<svg width="840" height="306" viewBox="0 0 840 306" fill="none" xmlns="http://www.w3.org/2000/svg">
<path d="M216.12 277.77C217.73 277.77 218.83 279.33 218.37 280.87C216.15 288.4 212.47 294.3 207.33 298.58C201.33 303.38 194.23 305.78 186.04 305.78C178.62 305.6 172.44 303.73 167.48 300.17C162.43 296.74 158.77 292.78 156.48 288.28C155.79 286.81 155.16 285.41 154.6 284.07C154.08 282.69 153.65 280.95 153.31 278.86C152.66 274.94 152.34 267.42 152.34 256.28C152.34 245.14 152.66 237.4 153.31 233.57C154 229.74 155.06 226.65 156.48 224.28C158.77 219.78 162.43 215.77 167.48 212.26C172.44 208.7 178.63 206.87 186.05 206.78C195.15 206.87 202.57 209.65 208.31 215.12C213.32 219.94 216.72 225.75 218.51 232.57C218.91 234.09 217.8 235.59 216.23 235.59H205.71C204.7 235.59 203.85 234.93 203.49 233.99C202.26 230.75 200.32 227.93 197.68 225.55C194.48 222.92 190.6 221.56 186.02 221.47C182.65 221.56 179.76 222.25 177.34 223.54C174.88 224.88 172.89 226.55 171.38 228.56C169.52 230.66 168.29 233.36 167.69 236.66C167 240.14 166.65 246.68 166.65 256.27C166.65 265.86 167 272.36 167.69 275.75C168.29 279.14 169.53 281.89 171.39 283.98C172.9 285.99 174.89 287.62 177.35 288.87C179.77 290.34 182.67 291.08 186.04 291.08C193.66 291.08 199.46 287.09 203.43 279.11C203.83 278.3 204.64 277.76 205.55 277.76H216.16L216.12 277.77Z" fill="#947D5C"/>
<path d="M327.9 210.75C327.9 209.44 328.96 208.39 330.26 208.39H362.09C365.8 208.39 369.39 208.75 372.84 209.46C376.29 210.4 379.79 212.31 383.33 215.2C386.3 217.38 388.71 220.5 390.57 224.55C392.51 228.47 393.48 233.1 393.48 238.44C393.48 245.65 391.02 252.22 386.1 258.14C381.05 264.37 373.66 267.58 363.95 267.76H344.55C343.24 267.76 342.19 268.82 342.19 270.12V303.41C342.19 304.72 341.13 305.77 339.83 305.77H330.28C328.97 305.77 327.92 304.71 327.92 303.41V210.74L327.9 210.75ZM342.18 251.52C342.18 252.83 343.24 253.88 344.54 253.88H363.38C368.7 253.79 372.69 252.09 375.37 248.78C377.92 245.56 379.2 241.98 379.2 238.04C379.2 234.77 378.68 232.02 377.64 229.78C376.56 227.77 375.05 226.18 373.1 225.02C370.16 223.1 366.75 222.18 362.86 222.27H344.54C343.23 222.27 342.18 223.33 342.18 224.63V251.51V251.52Z" fill="#947D5C"/>
<path d="M417.78 208.38H427.33C428.64 208.38 429.69 209.44 429.69 210.74V303.41C429.69 304.72 428.63 305.77 427.33 305.77H417.78C416.47 305.77 415.42 304.71 415.42 303.41V210.74C415.42 209.43 416.48 208.38 417.78 208.38Z" fill="#947D5C"/>
<path d="M480.77 221.47H459.64C458.33 221.47 457.28 220.41 457.28 219.11V210.75C457.28 209.44 458.34 208.39 459.64 208.39H520.92C522.23 208.39 523.28 209.45 523.28 210.75V219.11C523.28 220.42 522.22 221.47 520.92 221.47H499.78C498.47 221.47 497.42 222.53 497.42 223.83V303.41C497.42 304.72 496.36 305.77 495.06 305.77H485.51C484.2 305.77 483.15 304.71 483.15 303.41V223.83C483.15 222.52 482.09 221.47 480.79 221.47H480.77Z" fill="#947D5C"/>
<path d="M628.98 208.38H638.53C639.84 208.38 640.89 209.44 640.89 210.74V289.52C640.89 290.83 641.95 291.88 643.25 291.88H684.5C685.81 291.88 686.86 292.94 686.86 294.24V303.4C686.86 304.71 685.8 305.76 684.5 305.76H628.96C627.65 305.76 626.6 304.7 626.6 303.4V210.73C626.6 209.42 627.66 208.37 628.96 208.37L628.98 208.38Z" fill="#947D5C"/>
<path d="M307.7 302.63L275.08 209.96C274.75 209.01 273.85 208.38 272.85 208.38H264.23C263.23 208.38 262.33 209.01 262 209.96L229.38 302.63C228.84 304.17 229.98 305.78 231.61 305.78H241.71C242.73 305.78 243.63 305.13 243.95 304.16L255.79 267.83L268.45 228.31H268.71L286.98 285.61L293.21 304.17C293.53 305.13 294.44 305.78 295.45 305.78H305.49C307.12 305.78 308.26 304.17 307.72 302.63H307.7Z" fill="#947D5C"/>
<path d="M601.41 302.63L568.79 209.96C568.46 209.01 567.56 208.38 566.56 208.38H557.94C556.94 208.38 556.04 209.01 555.71 209.96L523.09 302.63C522.55 304.17 523.69 305.78 525.32 305.78H535.42C536.44 305.78 537.34 305.13 537.66 304.16L549.5 267.83L562.16 228.31H562.42L580.69 285.61L586.92 304.17C587.24 305.13 588.15 305.78 589.16 305.78H599.2C600.83 305.78 601.97 304.17 601.43 302.63H601.41Z" fill="#947D5C"/>
<path d="M3.56 19.01H17.95C19.92 19.01 21.51 20.6 21.51 22.57V94.58H21.94L79.38 20.39C80.05 19.52 81.09 19.01 82.2 19.01H98.67C101.64 19.01 103.31 22.44 101.47 24.77L61.95 74.99C61.06 76.13 60.94 77.69 61.65 78.95L107.78 160.41C109.12 162.78 107.41 165.73 104.68 165.73H87.36C86.05 165.73 84.85 165.01 84.23 163.86L48.88 98.37C47.72 96.22 44.79 95.85 43.13 97.65L22.48 120.03C21.87 120.69 21.54 121.55 21.54 122.44V162.16C21.54 164.13 19.95 165.72 17.98 165.72H3.56C1.59 165.72 0 164.13 0 162.16V22.57C0 20.6 1.59 19.01 3.56 19.01Z" fill="#947D5C"/>
<path d="M311.94 22.57C311.94 20.6 313.53 19.01 315.5 19.01H367.46C379.3 19.01 388.96 22.23 396.44 28.67C405.44 35.98 410.14 46.41 410.53 59.97C410.29 78.65 402.23 91.73 386.37 99.2C384.59 100.04 383.91 102.25 384.8 104.01L413.37 160.56C414.57 162.93 412.85 165.73 410.19 165.73H392.68C391.3 165.73 390.04 164.93 389.46 163.68L361.97 105.08C361.38 103.83 360.13 103.03 358.75 103.03H337.02C335.05 103.03 333.46 104.62 333.46 106.59V162.17C333.46 164.14 331.87 165.73 329.9 165.73H315.51C313.54 165.73 311.95 164.14 311.95 162.17V22.57H311.94ZM333.45 79.76C333.45 81.73 335.04 83.32 337.01 83.32H366.09C374.17 83.19 380.23 80.77 384.27 76.06C388.24 71.69 390.23 66.31 390.23 59.92C390.1 52.25 387.72 46.7 383.1 43.27C379.45 40.24 374.18 38.73 367.27 38.73H337.02C335.05 38.73 333.46 40.32 333.46 42.29V79.76H333.45Z" fill="#947D5C"/>
<path d="M450.11 19.01H464.47C465.9 19.01 467.19 19.86 467.75 21.18L504.27 106.88C505.5 109.78 509.62 109.76 510.83 106.86L546.63 21.2C547.18 19.87 548.48 19.01 549.92 19.01H564.33C566.3 19.01 567.89 20.6 567.89 22.57V162.16C567.89 164.13 566.3 165.72 564.33 165.72H549.94C547.97 165.72 546.38 164.13 546.38 162.16V74.22H545.89L517.07 142.51C516.51 143.83 515.22 144.69 513.79 144.69H500.57C499.14 144.69 497.85 143.83 497.29 142.51L468.46 74.22H468.07V162.16C468.07 164.13 466.48 165.72 464.51 165.72H450.12C448.15 165.72 446.56 164.13 446.56 162.16V22.57C446.56 20.6 448.15 19.01 450.12 19.01H450.11Z" fill="#947D5C"/>
<path d="M710.58 160.98L661.43 21.39C660.93 19.97 659.58 19.01 658.07 19.01H645.08C643.57 19.01 642.22 19.96 641.72 21.39L592.57 160.98C591.75 163.3 593.47 165.72 595.93 165.72H611.14C612.67 165.72 614.04 164.74 614.52 163.28L632.35 108.55L651.43 49.01H651.82L679.34 135.33L688.72 163.29C689.21 164.74 690.57 165.72 692.1 165.72H707.22C709.68 165.72 711.39 163.29 710.58 160.98Z" fill="#947D5C"/>
<path d="M736.24 19.01H750.97C752.21 19.01 753.35 19.65 754 20.7L817.31 123.31H817.7V22.57C817.7 20.6 819.29 19.01 821.26 19.01H835.65C837.62 19.01 839.21 20.6 839.21 22.57V162.16C839.21 164.13 837.62 165.72 835.65 165.72H820.82C819.58 165.72 818.44 165.08 817.79 164.03L754.57 61.42H754.18V162.16C754.18 164.13 752.59 165.72 750.62 165.72H736.23C734.26 165.72 732.67 164.13 732.67 162.16V22.57C732.67 20.6 734.26 19.01 736.23 19.01H736.24Z" fill="#947D5C"/>
<path d="M160.92 61.47C160.92 61.47 160.83 61.39 160.78 61.35L160.74 61.39C160.8 61.42 160.86 61.45 160.92 61.47Z" fill="#947D5C"/>
<path d="M206.96 159.19C206.72 159.49 205.84 160.52 205.27 160.79C204.85 161.2 204.43 161.61 204.14 162.11C203.79 162.7 203.63 163.39 203.53 164.07C203.46 164.56 203.43 165.06 203.42 165.56C204.65 165.64 205.88 165.7 207.13 165.72C207.59 164.03 208.42 162.41 208.66 160.66C208.86 159.17 208.61 157.69 208.21 156.23C208.02 157.29 207.64 158.34 206.97 159.18L206.96 159.19Z" fill="#947D5C"/>
<path d="M156.15 91.78C156.05 91.78 155.95 91.78 155.85 91.78C155.87 91.85 155.88 91.91 155.9 91.98C155.98 91.91 156.06 91.84 156.14 91.77L156.15 91.78Z" fill="#947D5C"/>
<path d="M234.8 65.8C233.69 64.79 232.95 63.26 232.66 61.63C231.49 65.9 229.32 69.83 226.6 73.36C226.98 73.01 227.37 72.67 227.75 72.32C229.08 71.14 230.42 69.94 231.73 68.77C232.82 67.79 233.87 66.82 234.79 65.8H234.8Z" fill="#947D5C"/>
<path d="M228.15 72.91C229.33 72.43 230.57 71.95 231.61 71.42C231.74 70.41 232.11 69.5 232.67 68.76C232.5 68.92 232.33 69.08 232.16 69.24C230.86 70.43 229.53 71.64 228.22 72.85C228.19 72.87 228.17 72.9 228.14 72.92L228.15 72.91Z" fill="#947D5C"/>
<path d="M230.89 45.13C230.86 44.95 230.83 44.76 230.8 44.57C230.77 44.65 230.72 44.72 230.68 44.8C230.75 44.91 230.82 45.03 230.89 45.13Z" fill="#947D5C"/>
<path d="M215.19 37.72L215.11 37.8C214.77 37.46 214.35 37.04 213.82 36.51C212.42 35.14 210.41 33.43 208.61 32.15C206.57 32.79 204.3 32.39 202.74 31.04C202.24 30.6 201.56 30.13 200.96 29.81C200.65 29.65 200.38 29.48 200.11 29.31C200 30.19 199.81 31.06 199.52 31.89C199 33.3 198.26 34.8 197.21 35.8C197.11 35.72 197.02 35.63 196.92 35.54C197.09 37.18 197.56 39.06 198.09 40.4C198.12 40.47 198.14 40.53 198.16 40.59C198.31 40.8 198.45 41.01 198.6 41.2C198.66 41.28 198.72 41.35 198.78 41.42C198.91 41.5 199.04 41.58 199.17 41.66C201.57 43.15 203.79 44.9 206.01 46.64C208.36 48.49 210.76 50.41 212.59 52.74C212.65 52.5 212.7 52.26 212.76 52.02C212.97 51.18 213.21 50.34 213.47 49.51C211.62 48.74 210.13 47.06 209.67 45.1C209.51 44.41 209.24 43.59 208.95 42.93C208.29 41.49 208.23 40.25 207.15 39.26C209.49 40.59 210.23 40.31 211.64 41.34C213.03 42.38 214.22 43.85 214.73 45.54C215.13 44.25 215.5 42.96 215.8 41.66C215.75 41.28 215.69 40.87 215.63 40.42C215.51 39.58 215.37 38.66 215.18 37.71L215.19 37.72Z" fill="#947D5C"/>
<path d="M231.91 78.52C231.06 78.46 230.53 78.18 230.11 77.91C229.89 77.77 229.71 77.62 229.49 77.48C229.41 77.43 229.31 77.39 229.22 77.35C229.01 77.41 228.8 77.46 228.59 77.53C226.92 78.02 225.12 78.72 223.44 79.56C221.75 80.4 220.19 81.37 218.93 82.28C218.71 82.44 218.51 82.59 218.32 82.73C217.35 84.12 216.57 85.63 216 87.23C216.37 87.06 216.74 86.89 217.11 86.73C217.21 86.68 217.3 86.63 217.41 86.58C217.49 86.54 217.57 86.52 217.66 86.48C220.66 85.11 223.64 83.71 226.57 82.18C228.84 81 231.09 79.75 233.29 78.41C232.85 78.51 232.39 78.55 231.93 78.51L231.91 78.52Z" fill="#947D5C"/>
<path d="M224.22 68.37C224.26 68.15 224.31 67.91 224.36 67.67C224.66 66.4 225.02 64.97 225.2 63.44C225.4 61.92 225.46 60.35 225.4 58.94C225.36 57.78 225.25 56.75 225.14 55.92C224.25 55.36 223.45 54.58 222.8 53.7C222 52.6 221.41 51.35 221.14 50.02C221 49.25 220.7 48.33 220.37 47.59C219.7 46.15 219.47 44.9 218.51 43.87C218.2 45.62 217.78 47.35 217.33 49.05C216.68 51.5 215.95 53.97 214.68 56.14C215.39 57.62 215.92 59.18 216.33 60.78C216.48 60.44 216.67 60.11 216.88 59.8C217.34 59.14 217.89 58.32 218.31 57.62C219.25 56.08 220.36 55.38 220.91 53.88C220.7 55.32 220.82 56.17 220.93 56.86C221.05 57.56 221.17 58.11 221.12 58.98C221.03 60.72 220.72 62.45 219.96 63.99C219.32 65.27 218.42 66.59 217.27 67.41C217.24 67.38 217.22 67.35 217.19 67.32C217.22 69.02 217.13 70.72 216.89 72.38C216.4 75.74 214.61 79.04 213.86 82.36C213.95 82.2 214.04 82.04 214.14 81.89C216.98 77.25 220.83 73.36 223.88 68.86C223.99 68.69 224.09 68.52 224.2 68.35L224.22 68.37Z" fill="#947D5C"/>
<path d="M242.1 81.92C240.77 81.9 239.33 81.61 238.22 80.94C235.64 82.97 232.9 84.79 230.01 86.36C231.69 86.23 233.37 86.21 235.05 86.31C237.09 86.43 239.11 86.71 241.13 87.07C241.53 87.01 241.95 86.96 242.41 86.92C243.97 86.77 245.73 86.75 247.45 86.35V86.31C248 86.13 248.68 85.91 249.49 85.7C251.01 85.1 252.45 84.27 253.69 83.4C254.85 82.6 255.87 81.79 256.71 81.1C256.54 78.81 257.54 76.4 259.3 74.89C259.86 74.42 260.49 73.76 260.95 73.16C261.62 72.27 262.33 71.64 262.83 70.86C261.98 70.92 261.12 70.91 260.28 70.76C259.13 70.56 257.9 70.19 256.86 69.59C256.38 69.68 255.87 69.78 255.35 69.9C252.65 70.47 249.5 71.41 246.95 72.37C245.52 74.13 243.97 75.79 242.34 77.36C242.98 77.23 243.64 77.19 244.28 77.27C245.03 77.36 245.94 77.43 246.7 77.42C248.38 77.42 249.53 77.93 250.98 77.48C248.58 78.88 248.55 79.69 247.04 80.52C245.53 81.36 243.83 81.93 242.11 81.91L242.1 81.92Z" fill="#947D5C"/>
<path d="M191.25 62.25C191.7 62.25 192.06 62.16 192.35 62.04C192.74 61.89 193.01 61.69 193.24 61.5C193.69 61.11 193.98 60.76 194.5 60.38C195.02 59.99 195.53 59.62 196.13 59.3C196.74 58.97 197.46 58.69 198.27 58.58C198.94 58.48 199.71 58.47 200.42 58.63C200.88 58.73 201.31 58.91 201.67 59.15C203 58.94 204.43 58.91 205.81 59.2C207.23 59.47 208.56 60.02 209.69 60.69C209.38 60.29 209.06 59.89 208.7 59.52C206.77 57.47 204.08 56.19 201.67 55.05C201.38 54.91 201.1 54.78 200.82 54.65C200.07 55.32 198.93 55.75 197.7 55.73C196.06 55.73 194.38 55.01 193.33 53.87C192.75 53.23 192.03 52.46 191.44 51.81C190.17 50.42 189.83 49.11 188.48 48.16C191.21 49.32 191.89 48.88 193.54 49.5C195.22 50.1 196.69 50.72 198 51.54C199.09 52.24 200.29 53 201.42 53.89C201.39 53.94 201.35 53.99 201.32 54.04C201.54 54.13 201.76 54.23 201.98 54.32C204.42 55.36 207.27 56.61 209.42 58.79C210.58 59.96 211.49 61.3 212.18 62.67C212.32 62.81 212.44 62.95 212.56 63.09C212.48 62.56 212.39 62.03 212.27 61.51C210.96 55.85 207.12 51.59 202.76 47.99C201.57 47.01 200.29 46.02 198.98 45.02C198.62 44.88 198.21 44.73 197.71 44.57C197.35 44.45 196.95 44.34 196.53 44.22C196.4 44.22 196.27 44.24 196.13 44.24C194.82 44.3 193.03 44.27 191.58 44.14C190.13 44.01 189.02 43.8 189.03 43.7C189.03 43.59 190.16 43.62 191.6 43.61C192.33 43.61 193.15 43.6 193.94 43.57C192.81 43.3 191.67 43.02 190.64 42.7C188.36 42.02 186.83 40.92 186.89 40.85C186.95 40.75 188.52 41.66 190.78 42.19C192.57 42.65 194.74 43 196.59 43.46C196.73 43.46 196.85 43.45 196.97 43.44C195.69 42.45 194.42 41.42 193.19 40.35C192.32 39.95 191.32 39.56 190.25 39.35C189.05 39.11 187.75 39.09 186.58 39C186.38 38.99 186.19 38.98 185.99 38.96C186.07 39.39 186.17 39.74 186.26 40.05C186.47 40.73 186.67 41.28 186.74 42.16C186.89 43.92 186.82 45.71 186.27 47.38C185.85 48.63 185.22 49.94 184.34 50.91C184.36 51.08 184.37 51.24 184.39 51.39C184.45 51.85 184.5 52.21 184.53 52.5H184.47C184.7 53.01 184.94 53.5 185.19 53.99C185.24 54.08 185.29 54.16 185.33 54.24H185.32C186.87 57.22 188.79 59.97 191.22 62.21L191.25 62.25Z" fill="#947D5C"/>
<path d="M200.02 80.99C200.13 81.01 200.23 81.04 200.34 81.07C199.36 78.45 197.91 76.01 196.05 73.92C194.09 73.87 192.21 73.58 190.33 73.15C189.3 73.03 188.28 72.88 187.26 72.72C187.36 72.76 187.46 72.79 187.56 72.84C189.3 73.55 190.98 74.56 192.25 75.96C193.3 77.12 194.25 78.56 194.55 79.99C194.48 80.01 194.4 80.03 194.33 80.05C196.24 80.28 198.14 80.6 200.02 81.01V80.99Z" fill="#947D5C"/>
<path d="M234.27 44.77C234.36 44.56 234.45 44.35 234.54 44.13L234.44 44.06C234.55 43.89 234.68 43.7 234.83 43.5C235.07 42.99 235.32 42.48 235.6 41.98C236.5 40.31 237.68 38.74 238.76 37.42C239.27 36.79 239.73 36.18 240.12 35.61C239.84 35.12 239.64 34.6 239.52 34.09C239.31 33.16 239.36 32.23 239.71 31.35C238.08 32.96 236.78 34.89 235.76 36.97C234.92 39.46 234.49 42.13 234.27 44.78V44.77Z" fill="#947D5C"/>
<path d="M209.42 71.69C208.62 71.23 208.02 70.64 207.6 69.81C207.37 69.32 206.96 68.79 206.55 68.41C205.66 67.62 205.07 66.67 203.86 66.65C204.94 66.34 205.65 66.15 206.26 65.95C206.87 65.78 207.4 65.64 208.22 65.78C209.86 66.05 211.52 67.1 212.27 68.66C212.35 68.82 212.42 68.98 212.49 69.15C212.54 68.86 212.58 68.58 212.62 68.29C212.57 67.7 212.49 67.06 212.34 66.36C212.13 65.38 211.78 64.35 211.3 63.33C211.01 63.04 210.69 62.75 210.31 62.45C209.1 61.48 207.44 60.6 205.6 60.19C204.42 59.91 203.19 59.87 202.01 59.98C201.52 60.84 201.01 61.58 200.36 62.17C199.61 62.84 198.56 63.37 197.29 63.41C196.55 63.44 195.65 63.47 194.89 63.47C194.05 63.47 193.33 63.25 192.69 63C192.31 62.84 191.95 62.69 191.57 62.53C192.02 62.93 192.48 63.32 192.97 63.68C194.34 64.7 195.83 65.56 197.12 66.67C199.44 68.67 200.98 71.38 202.71 73.9C204.25 76.16 206.08 78.37 208.49 79.6C208.61 79.29 208.73 78.98 208.86 78.67C209.75 76.59 210.82 74.59 211.61 72.48C210.78 72.29 210.05 72.01 209.44 71.66L209.42 71.69Z" fill="#947D5C"/>
<path d="M140.77 83.02C140.9 82.99 141.04 82.96 141.17 82.94C142 82.84 142.79 83.02 143.35 83.4C143.33 83.44 143.32 83.48 143.3 83.52C144.14 83.3 145.03 83.02 145.9 82.67C146.12 82.59 146.34 82.5 146.57 82.43C145.49 81.93 144.39 81.33 143.26 80.74C143.33 80.91 143.38 81.07 143.39 81.24C142.22 81.65 141.56 82.35 140.97 82.85C140.9 82.91 140.82 82.97 140.75 83.02H140.77Z" fill="#947D5C"/>
<path d="M238.63 157.94C238.63 157.94 238.53 157.94 238.48 157.94C238.37 158.08 238.26 158.22 238.19 158.37C238.05 158.7 238 159.07 238.04 159.43C238.08 159.75 238.2 160.06 238.36 160.34C239.2 160.02 240.03 159.69 240.86 159.34C240.81 159.3 240.76 159.25 240.7 159.21C240.39 158.99 239.32 158.28 238.61 157.94H238.63Z" fill="#947D5C"/>
<path d="M234.85 146.77C233.01 146.05 230.93 145.82 229.05 146.41C232.79 147.05 235.45 150.33 237.6 153.46C238.06 154.13 238.54 154.82 239.25 155.2C239.7 155.44 240.22 155.53 240.7 155.68C241.94 156.08 243.01 156.97 243.67 158.09C244.31 157.79 244.95 157.49 245.58 157.17C242.95 152.71 239.5 148.56 234.85 146.75V146.77Z" fill="#947D5C"/>
<path d="M236.56 158.83C236.51 158.37 236.66 157.91 236.74 157.45C237.2 155.05 235.94 152.57 234.1 150.95C232.26 149.33 229.92 148.43 227.61 147.63C225.3 146.83 222.92 146.08 220.9 144.71C219.76 143.94 218.76 142.98 217.63 142.2C218.03 145.47 219.98 148.51 222.79 150.22C223.71 150.78 224.71 151.21 225.65 151.73C228.96 153.57 231.3 156.5 233.85 159.3C234.43 159.94 235.22 160.34 235.93 160.82C236.06 160.91 236.18 161 236.31 161.09C236.64 160.97 236.97 160.86 237.29 160.74C236.91 160.26 236.68 159.67 236.61 159.05C236.59 158.97 236.57 158.9 236.56 158.82V158.83Z" fill="#947D5C"/>
<path d="M239.92 157.28C240.81 157.52 241.6 158.06 242.25 158.75C242.65 158.57 243.05 158.39 243.45 158.21C242.54 157.33 241.15 156.93 239.92 157.28Z" fill="#947D5C"/>
<path d="M221.88 156.13C221.53 154.69 220.73 153.37 219.66 152.35C218.87 152.1 218.1 151.82 217.35 151.47C215.78 150.72 214.42 149.64 213.17 148.43C213.25 148.68 213.34 148.94 213.44 149.19C214.3 151.41 215.79 153.52 215.73 155.9C215.68 158.11 214.32 160.05 213.01 161.83C213.64 162.47 214.18 162.91 214.98 163.32C216.01 163.85 217.06 164.47 217.89 165.27C219.29 165.12 220.67 164.93 222.04 164.71C221.66 161.88 222.55 158.92 221.87 156.13H221.88Z" fill="#947D5C"/>
<path d="M227.15 155.67C226.32 155.12 225.45 154.63 224.56 154.19C224.88 155.23 225.06 156.3 224.95 157.38C224.77 159.14 223.83 160.75 223.61 162.5C223.53 163.15 223.56 163.8 223.67 164.44C226.62 163.91 229.52 163.22 232.36 162.38C231.96 160.98 231.34 159.66 230.43 158.52C229.52 157.39 228.37 156.47 227.16 155.67H227.15Z" fill="#947D5C"/>
<path d="M248.62 149.56C246.82 147.11 244.98 144.42 242.14 143.35C238.73 142.05 234.96 143.72 231.59 145.11C235.7 143.99 240.43 145.69 242.88 149.18C244.21 151.07 244.95 153.44 246.76 154.87C247.24 155.25 247.77 155.54 248.33 155.78C249.67 155.05 250.99 154.29 252.29 153.49C250.88 152.44 249.68 150.99 248.64 149.56H248.62Z" fill="#947D5C"/>
<path d="M247.34 61.28C247.38 61.13 247.43 60.98 247.47 60.83C247.45 60.83 247.44 60.85 247.43 60.85C247.36 60.76 247.31 60.66 247.25 60.57C247.03 61.11 246.74 61.59 246.37 61.98C246.46 62.59 246.55 63.2 246.61 63.78C246.85 62.91 247.09 62.06 247.34 61.27V61.28Z" fill="#947D5C"/>
<path d="M235.96 64.41C236.21 64.08 236.45 63.75 236.67 63.42C236.64 63.26 236.62 63.1 236.59 62.94C236.42 63.46 236.21 63.95 235.95 64.41H235.96Z" fill="#947D5C"/>
<path d="M240.78 26.71C240.41 27.45 239.95 28.09 239.41 28.57C239.25 29.23 239.06 29.9 238.83 30.53C239.04 30.32 239.26 30.11 239.53 29.89C239.78 29.68 240.05 29.47 240.34 29.26C240.5 28.31 240.84 27.52 240.78 26.7V26.71Z" fill="#947D5C"/>
<path d="M251.84 149C250.67 149.09 249.35 148.91 248.6 148C249.87 149.81 251.21 151.56 252.6 153.27C254.33 152.19 256.02 151.05 257.67 149.85C257 149.29 256.21 148.89 255.34 148.76C254.18 148.59 253 148.9 251.83 148.99L251.84 149Z" fill="#947D5C"/>
<path d="M258.76 149.06C259.23 148.71 259.69 148.35 260.15 147.99C258.66 147.33 256.98 147.24 255.34 147.16C256.66 147.39 257.83 148.09 258.76 149.06Z" fill="#947D5C"/>
<path d="M202.58 102.13C202.58 102.13 202.58 102.07 202.58 102.04C201.69 101.88 200.82 101.58 200.01 101.2C198.87 100.65 197.85 99.92 197.02 98.97C196.54 98.41 195.85 97.83 195.21 97.42C193.8 96.56 192.85 95.59 191.24 95.58C192.65 95.26 193.51 95.06 194.25 94.85C194.98 94.67 195.61 94.52 196.62 94.64C198.59 94.88 200.67 95.85 202.01 97.44C201.82 96.36 201.59 95.28 201.3 94.22C200.1 92.01 198.54 90 196.67 88.32C194.97 86.79 193.02 85.55 190.93 84.63C188.68 84.13 186.42 83.65 184.14 83.27C181.89 85.41 179.03 86.91 176.05 87.82C172.35 88.96 168.45 89.29 164.58 89.47C163.63 89.52 162.68 89.56 161.74 89.66C161.29 89.87 160.75 90.14 160.08 90.5C159.39 90.87 158.62 91.33 157.84 91.85L157.86 91.87C157.65 92.08 157.38 92.32 157.08 92.62C156.69 93.02 156.33 93.49 156.19 94.08C156.19 94.41 156.16 94.73 156.12 95.05C156.11 95.14 156.08 95.23 156.06 95.33C156.06 95.64 156.07 95.95 156.09 96.24C156.18 97.59 156.44 98.64 156.3 98.7C156.19 98.75 155.8 98.09 155.5 97.07C155.33 97.42 155.13 97.77 154.89 98.09C154.49 98.6 154.1 99.31 153.86 99.93C153.36 101.3 152.61 102.28 152.89 103.66C152.32 102.49 151.94 101.79 151.58 101.19C151.24 100.59 150.96 100.08 150.83 99.18C150.58 97.39 150.97 95.34 152.12 93.85C152.89 92.83 153.99 92.01 155.11 91.7C154.43 91.6 153.78 91.4 153.23 91.13C151.69 90.39 150.98 89.25 151.1 89.17C151.22 89.06 152.11 89.93 153.53 90.4C154.24 90.64 155.05 90.77 155.84 90.73C156.63 90.7 157.39 90.5 157.99 90.26C158.43 90.08 158.77 89.9 159.03 89.74C159.18 89.67 159.33 89.6 159.48 89.52C159.5 89.51 159.52 89.5 159.54 89.49C160.27 89.09 160.88 88.82 161.37 88.62L161.43 88.75C163.35 88.12 165.41 87.78 167.33 87.47C170.08 87.02 172.79 86.45 175.22 85.02C176.39 84.33 177.46 83.49 178.4 82.54C175.97 82.36 173.52 82.32 171.09 82.43C170.49 84.67 168.31 86.59 165.9 86.94C165.16 87.05 164.26 87.24 163.54 87.46C161.94 87.95 160.67 87.81 159.43 88.7C161.28 86.61 161.09 85.83 162.33 84.58C162.67 84.23 163.04 83.91 163.42 83.61C159.81 84.18 156.2 84.29 152.62 83.73C152.44 83.81 152.24 83.9 152 84.02C151.09 84.45 149.94 85.19 149.09 85.94C148.98 86.04 148.87 86.13 148.77 86.23C149.01 87.34 148.97 88.52 148.71 89.63C148.42 90.86 147.88 92.01 147.06 92.97C146.58 93.52 146.08 94.27 145.74 94.94C145.02 96.41 144.11 97.36 144.12 98.92C143.79 97.54 143.52 96.73 143.26 96.04C143.02 95.35 142.82 94.77 142.82 93.81C142.82 91.88 143.44 89.8 144.73 88.29C145.71 87.11 147.07 86.18 148.39 85.95C148.49 85.83 148.6 85.7 148.71 85.58C149.3 84.92 150.12 84.26 150.9 83.78C150.18 83.69 149.36 83.51 148.47 83.19C147.78 83.21 147.06 83.34 146.26 83.62C145.31 83.94 144.27 84.18 143.35 84.31C143.22 84.33 143.11 84.34 142.98 84.36C142.3 86.15 141.79 87.47 140.47 88.62C140.02 89.01 139.54 89.63 139.24 90.22C138.59 91.51 137.75 92.41 137.77 93.84C137.44 92.56 137.11 91.84 136.84 91.21C136.57 90.58 136.34 90.05 136.32 89.14C136.3 88.22 136.46 87.24 136.87 86.3C137.23 85.47 137.79 84.72 138.49 84.14C138.45 84.15 138.41 84.17 138.37 84.18C137.67 84.35 136.84 84.61 136.18 84.88C134.71 85.49 133.48 85.45 132.4 86.42C133.92 84.22 133.64 83.47 134.67 82.14C135.19 81.48 135.78 80.86 136.45 80.34C137.13 79.82 138.03 79.3 139.14 79.1C139.45 79.04 139.78 79.02 140.12 79.03C139.86 78.88 139.61 78.72 139.36 78.54C138.54 77.92 137.98 77.18 137.43 76.49C137.38 76.44 137.33 76.4 137.28 76.35C137.13 76.3 136.96 76.25 136.75 76.17C136.17 75.96 135.41 75.69 134.73 75.44C133.7 75.89 132.51 76.16 131.28 76.27C129.72 76.41 128.11 76.31 126.6 75.91C126.51 75.89 126.42 75.87 126.32 75.84C126.24 76.79 126.17 77.74 126.13 78.7C126.32 78.66 126.51 78.62 126.7 78.6C128.12 78.41 129.71 78.52 130.93 79.17C130.37 81.3 128.31 83.05 126.04 83.44C126.05 85.24 126.12 87.04 126.25 88.81C126.42 88.81 126.58 88.8 126.75 88.8C127.99 88.83 129.41 88.98 130.67 89.5C130.51 90.68 129.72 91.83 128.55 92.57C127.99 92.93 127.36 93.18 126.7 93.32C129.31 114.03 139.56 132.36 154.55 145.39C158.83 145.02 163.34 148.06 167.25 146.23C169.4 145.22 170.69 142.98 172.64 141.64C175.99 139.35 180.47 140.11 184.46 139.36C191.49 138.04 197.07 131.73 200 125.18C202.27 117.73 203.18 109.86 202.61 102.1L202.58 102.13ZM137.75 99.22C137.01 100.23 135.76 100.93 134.51 100.96C133.8 100.98 132.94 101 132.24 101.02C130.67 101.02 129.73 100.37 128.42 100.51C129.6 100.1 130.12 99.57 130.54 99.16C130.95 98.72 131.24 98.35 131.75 97.94C132.78 97.13 133.74 96.48 134.91 96.18C135.9 95.94 137.1 95.75 138.38 95.86C138.74 96.94 138.5 98.22 137.74 99.23L137.75 99.22ZM164.2 97.54C163.74 98.13 163.2 98.86 162.81 99.49C161.92 100.89 160.86 101.54 160.42 102.96C160.59 100.24 159.92 99.78 160 98.12C160.07 96.47 160.42 94.81 161.26 93.4C161.97 92.23 162.96 91.07 164.18 90.45C165.8 92.24 165.83 95.5 164.19 97.54H164.2Z" fill="#947D5C"/>
<path d="M177.77 154.2C179 152.84 179.74 151.05 179.86 149.23C177.6 150.15 175.4 151.25 173.61 152.89C172.48 153.93 171.55 155.16 170.64 156.41C171.45 156.83 172.27 157.25 173.1 157.64C174.72 156.56 176.47 155.64 177.77 154.2Z" fill="#947D5C"/>
<path d="M161.68 149.36C160.13 148.76 158.66 147.85 157.05 147.54C159.68 149.65 162.44 151.6 165.31 153.38C165.49 151.73 166.31 149.28 167.36 148.09C166.07 149.47 163.44 150.03 161.68 149.36Z" fill="#947D5C"/>
<path d="M182.45 146.01C183.91 145.31 185.39 144.6 186.67 143.59C186.83 143.46 186.99 143.32 187.15 143.18C186.38 143.41 185.6 143.6 184.8 143.72C181.34 144.24 177.69 143.46 174.37 144.57C170.31 145.94 167.7 149.78 165.41 153.42C165.89 153.72 166.38 154.01 166.87 154.3C167.38 154.24 167.9 154.18 168.41 154.15C168.57 153.94 168.73 153.72 168.91 153.52C170.51 151.73 172.74 150.65 174.91 149.62C177.43 148.41 179.94 147.21 182.46 146.01H182.45Z" fill="#947D5C"/>
<path d="M211.38 164.02C211.1 164.57 210.87 165.14 210.71 165.73C212.54 165.69 214.35 165.59 216.15 165.43C214.79 164.41 213.08 163.86 211.38 164.02Z" fill="#947D5C"/>
<path d="M189.14 157.01C186.59 158.18 183.78 158.88 181.49 160.5C181.33 160.62 181.17 160.74 181.01 160.87C181.01 160.89 181.01 160.92 181.01 160.94C184.72 162.26 188.55 163.33 192.48 164.12C194.14 161.46 195.23 158.52 195.12 155.42C195.09 154.69 195 153.89 194.83 153.11C193.16 154.71 191.25 156.05 189.14 157.02V157.01Z" fill="#947D5C"/>
<path d="M206.49 154.73C207.14 152.63 206.8 150.42 206.04 148.31C205.88 149.08 205.68 149.83 205.42 150.56C204.51 153.04 202.84 155.21 202.05 157.73C201.57 159.26 201.43 160.88 201.4 162.48C201.38 163.45 201.41 164.45 201.55 165.42C201.92 165.45 202.29 165.49 202.67 165.52C202.41 164.03 202.47 162.5 203.02 161.14C203.94 158.88 205.78 157.06 206.5 154.73H206.49Z" fill="#947D5C"/>
<path d="M199.27 165.19C199.27 165.19 199.33 165.19 199.37 165.2C199.37 165.05 199.36 164.9 199.37 164.75C199.33 164.9 199.31 165.04 199.28 165.19H199.27Z" fill="#947D5C"/>
<path d="M193.17 140.81C192.21 142.6 190.67 144.1 188.95 145.21C187.2 146.34 185.27 147.14 183.32 147.89C182.26 151.45 179.46 154.41 176.39 156.62C175.66 157.14 174.92 157.64 174.18 158.15C175.41 158.72 176.65 159.26 177.91 159.76C179.1 158.73 180.41 157.84 181.83 157.15C183.4 156.39 185.07 155.86 186.65 155.12C192.98 152.18 197.52 145.79 198.38 138.88C196.77 139.3 195.17 139.99 193.69 140.58C193.51 140.65 193.34 140.73 193.16 140.8L193.17 140.81Z" fill="#947D5C"/>
<path d="M291.74 81.04C291.45 81.08 291.16 81.1 290.86 81.1C289.64 81.1 288.27 80.88 287.11 80.24C287.32 79.08 288.05 78.02 289.08 77.33C289.79 76.84 290.65 76.54 291.52 76.47C291.4 74.91 291.23 73.36 291.03 71.82C290.93 71.88 290.82 71.95 290.7 72.01C289.79 72.49 288.72 72.8 287.61 72.83C286.49 72.87 285.37 72.61 284.53 72.19C283.09 71.49 282.07 70.53 281.17 69.46C281.94 68.48 283.44 68.02 284.78 68C285.45 67.98 286.08 68.04 286.63 68.13C287.18 68.23 287.65 68.37 288.17 68.57C288.76 68.81 289.56 68.95 290.24 68.91C290.36 68.91 290.48 68.91 290.6 68.9C290.29 67.09 289.93 65.31 289.51 63.54C289.37 63.56 289.22 63.57 289.08 63.56C288.8 62.66 288.73 61.75 288.83 60.88C288.3 58.94 287.7 57.03 287.03 55.15C286.43 55.29 285.8 55.42 285.15 55.51C284.69 54.45 284.9 53 285.77 51.83C282.46 43.64 277.87 36.09 272.26 29.44C271.71 30.22 271.12 30.95 270.42 31.6C269.45 32.47 268.3 33.4 267.01 33.97C266.31 32.97 266.1 31.51 266.51 30.08C266.9 28.65 267.9 27.3 269.19 26.59C269.3 26.52 269.43 26.45 269.55 26.39C267.37 24.05 265.06 21.84 262.63 19.77C262.13 20.56 261.57 21.32 260.9 21.97C259.9 21.25 259.24 19.89 259.17 18.39C259.14 17.94 259.17 17.49 259.25 17.04C258.04 16.11 256.8 15.21 255.54 14.35C254.85 15.15 253.9 15.93 252.74 16.32C251.94 15.51 251.53 14.41 251.56 13.31C251.56 12.85 251.66 12.38 251.82 11.95C248.37 9.86 244.75 8.01 241 6.43C241 6.46 241 6.49 240.98 6.52C240.66 8.06 240.15 9.51 239.23 10.74C238.46 11.75 237.44 12.78 236.22 13.37C235.43 12.48 235.04 11.2 235.14 9.89C235.23 8.58 235.81 7.26 236.77 6.36C237.14 6.01 237.55 5.61 237.93 5.22C236.1 4.54 234.24 3.91 232.35 3.36C231.71 4.2 230.77 4.87 229.7 5.03C229.02 4.14 228.62 3.21 228.51 2.33C225.78 1.67 223 1.14 220.17 0.76C218.96 1.37 217.59 1.91 216.23 2.05C216.08 1.51 216.06 0.92 216.14 0.31C215.18 0.23 214.21 0.16 213.24 0.11C213.71 1.55 213.92 3.07 213.63 4.54C213.37 5.83 212.83 7.21 211.89 8.18C209.76 7.1 208.62 4.18 209.43 1.8C209.61 1.25 209.8 0.61 209.95 0.01C209.6 0.01 209.26 0 208.91 0C207.1 0 205.31 0.06 203.54 0.18C203.95 0.46 204.33 0.78 204.66 1.16C205.5 2.13 206.14 3.43 206.14 4.74C203.96 5.57 201.48 4.9 200.21 3.14C199.84 2.63 199.34 2.05 198.87 1.62C198.54 1.32 198.28 1.01 198.03 0.72C195.88 1 193.77 1.37 191.68 1.81C191.89 2.48 191.99 3.17 191.94 3.87C191.85 5.22 191.32 6.63 190.33 7.48C188.5 6.46 187.38 4.7 187.33 2.85C186.45 3.09 185.57 3.34 184.7 3.6C184.72 3.81 184.74 4.02 184.74 4.24C184.74 5.49 184.46 6.87 183.71 7.95C182.23 7.57 181.02 6.42 180.44 5.03C179.52 5.36 178.62 5.72 177.72 6.09C177.97 6.48 178.2 6.85 178.43 7.38C179.03 8.8 179.51 10.16 179.61 11.63C179.68 12.86 179.67 14.27 179.28 15.58C178.08 15.54 176.85 14.87 176 13.75C175.15 12.65 174.71 11.13 174.92 9.75C175.04 8.97 175.18 8.02 175.3 7.23C175.3 7.18 175.32 7.14 175.33 7.09C173.75 7.79 172.19 8.54 170.66 9.34C170.66 9.44 170.66 9.55 170.66 9.65C170.05 9.99 169.45 10.19 168.88 10.3C167.61 11 166.35 11.74 165.12 12.51C165.53 12.99 165.95 13.2 166.3 13.3C166.67 13.41 166.98 13.41 167.26 13.4C167.82 13.37 168.24 13.26 168.85 13.31C170.11 13.39 171.4 13.75 172.38 14.56C173.21 15.24 174.02 16.2 174.44 17.39C173.64 18.2 172.55 18.63 171.45 18.62C170.35 18.62 169.26 18.17 168.52 17.34C168.1 16.87 167.57 16.34 167.07 15.88C166.53 15.37 166.17 14.79 165.89 14.22C165.62 13.65 165.38 13.14 165.09 12.53C163.86 13.3 162.66 14.09 161.47 14.92C161.9 15.59 162.15 16.31 162.14 17.11C162.12 18.04 161.85 19.14 161.16 20.13C159.49 20.13 158.12 19.07 157.7 17.72C155.52 19.43 153.44 21.25 151.45 23.17C151.53 23.94 151.38 24.72 150.96 25.34C150.42 25.31 149.92 25.24 149.46 25.14C148.88 25.74 148.31 26.34 147.74 26.96C147.81 26.97 147.88 26.98 147.95 27C149.14 27.34 150.2 28.09 150.66 29.23C151.05 30.17 151.13 31.36 150.64 32.45C148.5 32.88 146.75 32.16 146.31 30.58C146.19 30.13 145.97 29.62 145.74 29.23C143.83 31.47 142.04 33.82 140.38 36.26C140.44 36.37 140.52 36.46 140.57 36.58C140.95 37.4 141.26 38.46 141.27 39.69C140.33 40.27 139.18 40.36 138.18 39.98C138.13 39.96 138.08 39.94 138.03 39.91C136.92 41.73 135.89 43.6 134.92 45.51C135.39 45.05 135.77 44.7 136.11 44.37C136.68 43.87 137.18 43.46 138.17 43.14C140.15 42.51 142.5 42.69 144.26 43.6C145.74 44.35 147.01 45.52 147.59 46.83C146.54 47.51 145.18 47.79 143.88 47.78C142.57 47.77 141.32 47.49 140.23 46.95C139.6 46.63 138.77 46.36 138.05 46.26C137.27 46.16 136.59 46.01 135.92 45.98C135.47 45.96 135.02 46.02 134.58 46.18C133.98 47.4 133.4 48.64 132.86 49.89C133.5 49.77 134.12 49.76 134.76 49.94C135.61 50.19 136.6 50.66 137.51 51.46C137.34 52.55 136.67 53.47 135.74 53.97C134.81 54.48 133.64 54.54 132.7 54.06C132.3 53.86 131.84 53.64 131.41 53.45C129.65 58.09 128.29 62.94 127.38 67.94C127.62 68.31 127.81 68.7 127.92 69.11C127.66 69.29 127.38 69.44 127.1 69.58C126.99 70.28 126.88 70.99 126.79 71.7C128.16 71.58 129.57 71.68 130.87 72.07C132.79 72.62 134.62 73.71 135.5 75.03C135.85 75.12 136.2 75.21 136.52 75.31C136.39 75.14 136.26 74.96 136.13 74.8C135.83 74.39 135.58 73.96 135.37 73.56C135.19 73.21 135.04 72.88 134.9 72.56C133.78 72.25 132.74 71.44 132.02 70.33C131.25 69.15 130.85 67.64 131.03 66.24C131.12 65.43 131.23 64.46 131.29 63.65C131.43 61.85 132.13 60.75 131.98 59.17C132.41 60.56 132.89 61.25 133.29 61.82C133.71 62.38 134.06 62.81 134.41 63.58C135.12 65.12 135.66 66.72 135.74 68.39C135.79 69.61 135.69 70.94 135.29 72.12C135.47 72.48 135.68 72.86 135.92 73.25C136.15 73.62 136.41 74.01 136.71 74.38C137.03 74.75 137.36 75.13 137.69 75.53C138.08 75.96 138.46 76.41 138.86 76.84C139.73 77.52 140.65 78.13 141.6 78.71C142.04 78.93 142.49 79.14 142.93 79.37C144.16 79.98 145.36 80.61 146.49 81.15C146.61 81.2 146.73 81.23 146.84 81.27C146.28 80.8 145.73 80.21 145.26 79.55C144.63 78.65 144.16 77.62 143.91 76.65C143.65 75.68 143.6 74.79 143.62 74.15C143.64 73.51 143.72 73.14 143.74 73.14C143.77 73.14 143.74 73.53 143.76 74.15C143.78 74.77 143.88 75.64 144.16 76.58C144.44 77.51 144.91 78.5 145.53 79.35C146.15 80.2 146.91 80.92 147.62 81.42C147.75 81.51 147.88 81.6 148 81.68C148.47 81.83 148.95 81.97 149.43 82.1C149.52 82.1 149.61 82.11 149.69 82.12C149.49 81.91 149.31 81.69 149.14 81.47C149.11 81.53 149.09 81.59 149.06 81.64C147.91 81.35 146.87 80.55 146.2 79.47C145.52 78.4 145.19 77.06 145.39 75.8C145.5 75.07 145.6 74.19 145.64 73.47C145.75 71.85 146.38 70.82 146.12 69.4C147.22 71.81 148.04 71.88 148.76 73.29C149.5 74.69 150.01 76.19 150 77.74C150 78.76 149.83 79.87 149.43 80.86C150.01 81.57 150.81 82.23 151.5 82.59C151.94 82.68 152.37 82.77 152.81 82.84C155.46 83.25 158.17 83.26 160.83 82.9C163.81 82.5 166.71 81.69 169.64 81.03C173.27 80.21 176.96 79.81 180.66 79.77C180.86 79.59 181.13 79.6 181.33 79.72C182.03 79.66 182.73 79.63 183.43 79.6C181.41 78.34 179.28 77.3 177.07 76.49C174.76 75.73 172.36 75.28 169.93 75.15C168.8 75.37 167.45 75.78 166.45 76.41C165.29 77.09 164.64 77.95 164.55 77.89C164.46 77.85 164.99 76.83 166.15 75.97C166.58 75.64 167.09 75.35 167.62 75.11C166.67 75.14 165.72 75.24 164.77 75.38C164.64 75.44 164.5 75.51 164.33 75.59C163.5 75.97 162.39 76.52 161.49 77C160.59 77.47 159.9 77.87 159.83 77.78C159.77 77.7 160.36 77.15 161.21 76.55C161.76 76.15 162.43 75.75 163.06 75.4C162.63 75.46 162.22 75.51 161.81 75.57C161.82 75.63 161.84 75.69 161.85 75.75C160.74 76.27 160.19 76.97 159.54 77.47C159.2 77.73 158.89 77.94 158.41 78.14C157.95 78.34 157.38 78.51 156.73 78.56C155.98 78.62 155.02 78.74 154.12 78.71C153.12 78.68 152.37 78.3 151.74 77.86C151.12 77.4 150.59 76.91 150.09 76.16C150.67 76.74 151.26 76.84 151.67 76.83C152.1 76.81 152.4 76.68 152.66 76.55C153.16 76.26 153.49 75.95 153.88 75.61C154.32 75.26 154.78 74.86 155.41 74.5C156.05 74.13 156.84 73.77 157.88 73.66C158.7 73.58 159.63 73.67 160.41 74.05C160.92 74.29 161.33 74.65 161.58 75.06C162.82 74.81 164.22 74.56 165.51 74.36C164.55 74.11 163.58 73.73 162.8 73.25C162.77 73.24 162.75 73.22 162.73 73.2C162.04 73.28 161.31 73.18 160.62 72.9C159.49 72.44 158.52 71.48 158.12 70.32C157.88 69.66 157.6 68.86 157.35 68.22C156.81 66.78 157.05 65.66 156.38 64.52C157.25 65.41 157.93 65.71 158.48 65.95C159.05 66.18 159.51 66.33 160.08 66.7C161.23 67.45 162.21 68.26 162.87 69.38C163.41 70.32 163.91 71.5 164.04 72.79C163.88 72.87 163.72 72.94 163.55 73C164.83 73.54 166.37 73.88 167.55 73.93C167.89 73.95 168.18 73.95 168.43 73.95C168.6 73.93 168.76 73.92 168.9 73.9C170.81 73.66 172.73 73.6 174.63 73.9C176.24 74.16 177.8 74.67 179.35 75.18C182.81 76.32 186.34 77.5 189.3 79.58C189.63 79.6 189.96 79.62 190.29 79.64C189.03 79.12 187.87 78.27 187.08 77.16C186.59 76.48 185.96 75.68 185.4 75.05C184.35 73.85 183.88 72.72 182.91 71.82C175.07 69.99 167.55 66.77 160.8 62.37C160.46 62.29 160.1 62.22 159.73 62.18C159.01 62.11 158.25 62.18 157.55 62.26C156.15 62.45 155.02 62.41 155.03 62.29C155.03 62.2 156.09 62.06 157.47 61.74C158.09 61.61 158.79 61.49 159.52 61.49C159.19 61.26 158.85 61.03 158.52 60.79C158.28 60.67 158.02 60.55 157.75 60.39C157.02 59.98 156.24 59.44 155.5 58.79C154.85 58.4 154.09 57.99 153.29 57.57C152.86 57.34 152.43 57.13 152.01 56.93C151.75 56.79 151.49 56.69 151.22 56.61C150.13 56.91 149.07 57.11 148.07 57.23C146.95 57.35 145.86 57.34 144.7 57.1C144.03 56.95 143.15 56.92 142.41 57.03C140.8 57.27 139.47 57.15 138.2 58.13C139.13 57.02 139.62 56.3 140.05 55.68C140.48 55.07 140.85 54.55 141.7 53.99C142.56 53.43 143.58 53 144.69 52.81C145.8 52.62 146.98 52.68 148.05 53.04C148.94 53.33 149.78 53.83 150.42 54.45C150.93 54.95 151.29 55.52 151.48 56.1C151.74 56.17 152 56.26 152.24 56.37C152.71 56.55 153.17 56.75 153.6 56.96C153.62 56.97 153.64 56.98 153.67 56.99C153.67 56.99 153.65 56.97 153.64 56.97C153.56 56.9 153.58 56.82 153.64 56.77C153.2 56.18 152.8 55.58 152.48 54.98C151.9 53.9 151.56 52.87 151.39 52.12C151.21 51.37 151.19 50.9 151.23 50.89C151.36 50.86 151.7 52.71 152.94 54.72C153.55 55.73 154.36 56.76 155.28 57.63C155.38 57.73 155.49 57.82 155.59 57.91C155.32 57.55 155.07 57.17 154.87 56.8C153.96 55.07 153.82 53.57 153.9 53.56C154.02 53.53 154.35 54.97 155.33 56.54C155.82 57.32 156.48 58.1 157.26 58.69C158.05 59.28 158.94 59.74 159.66 60.24C159.73 60.29 159.8 60.34 159.87 60.39C159.74 60.23 159.6 60.07 159.49 59.89C158.93 58.93 158.58 57.97 158.22 57.07C157.26 56.69 156.33 55.92 155.67 54.89C154.79 53.56 154.37 51.86 154.55 50.35C154.64 49.47 154.75 48.42 154.79 47.55C154.9 45.63 155.54 44.39 155.23 42.71C156.4 45.57 157.19 45.73 157.92 47.48C158.66 49.23 159.18 51.03 159.33 52.79C159.43 54.26 159.45 55.87 159.11 57.3C159.05 57.3 158.98 57.27 158.92 57.26C159.27 58.01 159.65 58.82 160.09 59.51C160.63 60.3 161.48 60.86 162.14 61.42C162.59 61.79 162.94 62.08 163.24 62.33C167.32 63.82 171.65 64.71 175.94 65.48C177.15 65.7 178.36 65.91 179.59 66.09C178.95 65.93 178.29 65.74 177.62 65.44C176.4 64.87 175.51 63.89 174.73 62.99C173.93 62.07 173.23 61.11 172.63 60.16C172.16 59.42 171.75 58.69 171.4 57.99C170.38 57.61 169.41 56.85 168.68 55.83C167.78 54.59 167.24 52.98 167.29 51.45C167.31 50.57 167.33 49.49 167.32 48.61C167.32 46.64 167.92 45.38 167.67 43.66C168.19 45.15 168.73 45.88 169.17 46.47C169.63 47.06 170.02 47.52 170.44 48.34C171.29 50 171.98 51.74 172.23 53.57C172.42 55 172.48 56.58 172.14 57.94C172.48 58.52 172.87 59.12 173.3 59.73C173.93 60.62 174.64 61.53 175.44 62.39C176.24 63.26 177.07 64.1 178.07 64.52C179.08 64.96 180.27 65.14 181.38 65.41C182.49 65.66 183.55 65.9 184.53 66.12C185.45 66.34 186.23 66.52 186.92 66.69C188.18 66.68 189.44 66.59 190.69 66.41C189.9 65.57 189.13 64.72 188.41 63.82C188.24 63.6 188.08 63.39 187.92 63.17C186.87 63.77 185.4 64.01 183.88 63.76C182.15 63.49 180.38 62.57 179.23 61.26C178.55 60.52 177.76 59.58 177.11 58.82C175.69 57.07 175.36 55.57 174.09 54.08C175.43 55.22 176.37 55.55 177.11 55.83C177.88 56.08 178.49 56.25 179.39 56.69C181.2 57.56 182.99 58.46 184.6 59.6C185.26 60.08 185.95 60.59 186.59 61.14C185.41 59.06 184.63 56.85 184.08 54.41C183.99 54 183.9 53.59 183.81 53.18C183.32 52.59 182.7 51.98 181.98 51.45C181.18 50.85 180.27 50.36 179.4 50.03C177.66 49.35 176.17 49.36 176.18 49.23C176.16 49.15 177.7 48.94 179.58 49.53C180.51 49.81 181.51 50.29 182.38 50.89C182.78 51.17 183.16 51.47 183.5 51.79C183.36 51.17 183.19 50.55 183.01 49.94C182.63 49.32 182.34 48.61 182.2 47.84C182.19 47.78 182.18 47.72 182.17 47.66C182.06 47.42 181.95 47.17 181.82 46.93C181.71 46.74 181.6 46.56 181.48 46.38C180.84 45.41 179.98 44.56 179.05 44.03C178.91 43.95 178.76 43.88 178.62 43.81C177.79 44.17 177.36 44.75 176.32 44.97C175.71 45.13 174.8 45.09 174.06 44.85C173.3 44.62 172.63 44.18 172.14 43.65C171.57 43.04 170.98 42.29 170.52 41.69C169.5 40.34 169.46 39.12 168.44 38.13C169.56 38.81 170.32 39 170.94 39.12C171.57 39.23 172.08 39.29 172.75 39.52C173.36 39.73 173.98 39.94 174.59 40.15C175.14 40.35 175.59 40.54 176.08 40.81C176.47 41.04 177.21 41.29 177.9 41.74C178.56 42.14 179.13 42.85 179.15 43.5C179.2 43.52 179.25 43.54 179.3 43.57C180.34 44.08 181.32 44.97 182.04 45.99C182.06 46.01 182.07 46.04 182.09 46.06C182.15 45.21 182.36 44.36 182.75 43.61C183.12 42.88 183.55 41.98 183.87 41.22C184.27 40.29 184.75 39.62 185.16 38.93C183.62 38.85 182.55 38.83 182.55 38.75C182.55 38.66 183.72 38.53 185.4 38.5C185.63 38.07 185.82 37.62 185.93 37.08C185.93 37.63 185.96 38.09 186.01 38.49C186.23 38.49 186.46 38.49 186.69 38.49C187.85 38.51 189.16 38.47 190.46 38.69C190.91 38.77 191.35 38.88 191.78 39.01C189.68 37.03 187.8 34.9 186.44 32.51C186.28 32.37 186.08 32.22 185.81 32.1C185.78 32.08 185.74 32.08 185.71 32.06C183.8 32.62 182.19 32.94 180.27 32.45C179.63 32.28 178.77 32.19 178.05 32.2C176.44 32.24 175.24 31.85 173.79 32.37C176.14 30.84 176.06 30 177.65 29.11C178.45 28.67 179.36 28.32 180.36 28.16C181.36 28.01 182.44 28.07 183.43 28.4C183.94 28.57 184.44 28.82 184.89 29.13C184.82 28.94 184.75 28.75 184.68 28.53C184.44 27.82 184.26 26.98 184.15 26.09C183.11 26.14 182.19 26.19 181.18 25.96C180.01 25.68 178.85 25.03 178.06 24.08C177.6 23.53 176.99 22.91 176.44 22.44C175.23 21.4 174.7 20.28 173.34 19.75C175.99 20.11 176.53 19.53 178.19 19.86C179.85 20.19 181.5 20.9 182.72 22.08C183.17 22.53 183.66 23.09 184.03 23.73C184.05 23.17 184.1 22.62 184.19 22.11C184.22 21.92 184.26 21.73 184.29 21.55C184.01 21.32 183.75 21.04 183.56 20.69C183.23 20.1 183.07 19.36 183.08 18.63C183.11 17.15 183.82 15.76 184.81 14.96C185.37 14.5 186.01 13.95 186.47 13.47C186.97 12.94 187.47 12.57 187.88 12.14C188.28 11.72 188.61 11.24 188.66 10.6C188.87 11.78 188.94 12.58 189.04 13.25C189.13 13.92 189.18 14.49 189 15.3C188.82 16.11 188.54 16.88 188.24 17.54C187.94 18.19 187.61 18.76 187.21 19.26C186.55 20.09 185.77 20.89 184.93 21.93C184.87 21.91 184.81 21.87 184.75 21.84C184.74 21.95 184.72 22.06 184.71 22.17C184.68 22.49 184.66 22.82 184.65 23.15C184.86 22.63 185.14 22.11 185.44 21.7C186 20.9 186.6 20.45 186.67 20.51C186.75 20.59 186.3 21.16 185.89 21.97C185.46 22.78 185.12 23.83 184.97 24.62C184.92 24.85 184.89 25.03 184.87 25.2C185.11 27.39 185.85 29.45 186.9 31.36C186.88 31.28 186.85 31.2 186.83 31.12C186.51 29.89 186.65 28.49 187.29 27.38C187.65 26.74 188.09 25.97 188.41 25.33C189.15 23.9 190.17 23.26 190.56 21.91C190.49 23.21 190.7 23.96 190.88 24.57C191.08 25.18 191.26 25.66 191.34 26.4C191.49 27.89 191.46 29.33 190.98 30.69C190.56 31.82 189.93 33.05 188.96 33.97C188.68 33.82 188.42 33.63 188.19 33.42C188.86 34.37 189.59 35.28 190.38 36.14C190.65 36.36 190.93 36.58 191.21 36.79C193.13 38.21 195.24 39.32 197.32 40.5C196.33 38.9 195.45 36.88 195.05 35.07C194.5 32.81 194.57 31 194.66 31C194.78 31 194.89 32.77 195.56 34.93C195.83 35.89 196.24 36.91 196.71 37.88C196.54 36.97 196.44 36.04 196.44 35.19C196.44 35.08 196.44 34.97 196.44 34.86C195.92 34.12 195.55 33.21 195.4 32.21C195.17 30.74 195.42 29.13 196.13 27.83C196.54 27.08 197.02 26.16 197.38 25.39C198.21 23.68 199.28 22.82 199.73 21.2C199.61 22.73 199.8 23.59 199.95 24.31C200.12 25.03 200.28 25.59 200.3 26.5C200.3 26.76 200.3 27.03 200.3 27.29C200.86 27.08 201.37 26.92 202.14 26.88C203.85 26.82 205.69 27.28 207.06 28.36C208.2 29.25 209.15 30.54 209.35 31.88C209.34 31.88 209.32 31.88 209.31 31.89C211.12 33.06 213.06 34.63 214.4 35.95C214.63 36.17 214.83 36.38 215.02 36.57C214.9 36.05 214.77 35.52 214.62 35C214.09 33.12 213.29 31.27 212.3 29.77C211.89 29.13 211.44 28.58 211 28.09C210.01 28.33 208.9 28.32 207.81 28.09C207.1 27.93 206.42 27.69 205.75 27.35C205.07 27 204.36 26.5 203.77 25.82C203.07 25.04 202.39 23.94 201.99 23.06C201.53 22.08 201.42 21.22 201.29 20.44C201.17 19.65 201.04 18.92 200.66 18.15C201.6 19.38 202.32 19.96 202.93 20.36C203.54 20.76 204.05 21.05 204.71 21.52C205.04 21.75 205.36 21.95 205.67 22.12C205.97 22.29 206.27 22.43 206.62 22.61C207.29 22.95 208.17 23.42 208.95 24.05C210.23 25.08 211.4 26.44 211.84 27.84C211.72 27.89 211.59 27.92 211.46 27.96C211.9 28.41 212.34 28.91 212.74 29.5C213.82 31.01 214.7 32.9 215.28 34.83C215.76 36.38 216.06 37.93 216.29 39.34C216.52 37.61 216.56 35.84 216.25 34.04C215.52 29.7 213.4 25.35 213.17 20.94C212.92 19.91 212.69 18.69 212.24 17.55C212.01 16.98 211.72 16.44 211.35 15.96C210.98 15.48 210.55 15.04 210.15 14.61C209.79 14.22 209.45 13.85 209.13 13.51C209.12 13.59 209.11 13.67 209.09 13.74C207.93 13.87 206.89 13.85 205.94 13.59C205 13.33 204.08 12.77 203.42 11.85C203.05 11.33 202.55 10.73 202.1 10.29C201.1 9.31 200.73 8.24 199.53 7.75C201.91 8.06 202.47 7.49 203.94 7.78C205.42 8.08 206.81 8.67 207.89 9.91C208.6 10.73 209.15 11.88 209.16 12.96C209.57 13.34 210.02 13.77 210.51 14.23C210.93 14.64 211.39 15.06 211.82 15.57C212.24 16.08 212.59 16.67 212.85 17.28C213 17.63 213.13 17.99 213.24 18.34C213.27 18.17 213.31 17.99 213.36 17.8C213.44 17.38 213.54 16.96 213.67 16.53C213.67 16.51 213.69 16.5 213.69 16.49C214 15.36 214.44 14.1 215.04 12.87C215.41 12.1 215.86 11.36 216.35 10.66C216.04 10.24 215.92 9.65 216.1 9.01C216.2 8.61 216.37 8.23 216.57 7.89C216.67 7.72 216.78 7.56 216.89 7.41C216.98 7.27 217.07 7.14 217.17 7.01C217.96 5.98 219.06 5.16 220.3 4.77C221.01 4.54 221.86 4.21 222.54 3.87C223.28 3.51 224 3.28 224.69 3.06C225.39 2.84 226.03 2.61 226.78 2.22C225.61 3.2 225.37 4 225.11 4.62C224.87 5.26 224.71 5.8 224.2 6.51C223.18 7.94 221.82 9.21 220.19 9.9C219.85 10.04 219.5 10.17 219.14 10.28C218.79 10.38 218.52 10.4 218.24 10.44C217.96 10.48 217.72 10.47 217.45 10.55C217.29 10.6 217.13 10.69 216.99 10.78C216.49 11.52 216.04 12.31 215.66 13.14C215.04 14.5 214.6 15.9 214.29 17.11C214.08 17.92 213.94 18.58 213.82 19.13C213.8 19.56 213.79 19.99 213.82 20.43C213.84 20.53 213.87 20.65 213.89 20.75C213.94 20.98 213.99 21.2 214.04 21.4C214.2 20.16 214.55 18.82 215.04 17.74C215.25 17.26 215.48 16.84 215.7 16.47C215.59 15.45 215.85 14.34 216.45 13.36C217.16 12.18 218.34 11.21 219.67 10.82C220.43 10.59 221.35 10.31 222.09 10.05C223.76 9.5 225.01 9.73 226.37 9.02C225.29 9.92 224.86 10.63 224.51 11.2C224.17 11.79 223.93 12.28 223.4 12.89C222.34 14.12 221.18 15.2 219.77 15.92C218.61 16.5 217.23 17.01 215.87 17.07C215.76 17.34 215.65 17.62 215.54 17.93C214.97 19.49 214.66 21.49 214.69 22.97C214.69 23.45 214.71 23.83 214.73 24.16C215.25 25.51 215.87 26.84 216.49 28.19C216.66 27.35 216.98 26.54 217.45 25.85C217.93 25.12 218.53 24.25 219 23.51C220.07 21.89 221.27 21.21 222.03 19.69C221.61 21.18 221.67 22.07 221.7 22.79C221.76 23.52 221.84 24.1 221.75 24.99C221.58 26.78 221.26 28.53 220.56 30.15C220.04 31.32 219.37 32.54 218.52 33.5C219.38 36.83 219.21 40.28 218.62 43.69C219.73 44.26 220.47 44.58 221.12 44.84C221.83 45.14 222.42 45.38 223.2 46.05C224.75 47.39 226.02 49.32 226.43 51.39C226.78 53.11 226.64 55 225.87 56.26C225.79 56.22 225.71 56.16 225.63 56.12C225.79 56.9 225.94 57.84 226.03 58.89C226.15 60.32 226.15 61.94 225.98 63.5C225.89 64.51 225.7 65.5 225.5 66.41C227.73 62.52 229.25 58.31 230.2 53.89C230.59 52.08 230.94 50.15 231.33 48.2C231.33 48.17 231.33 48.14 231.33 48.11C231.31 47.68 231.26 47.23 231.21 46.77C231.17 46.72 231.14 46.67 231.1 46.61C230.69 46.03 230.25 45.34 229.84 44.58C229.02 44.09 228.29 43.4 227.68 42.62C226.89 41.58 226.32 40.37 226.1 39.08C225.98 38.33 225.73 37.44 225.45 36.72C224.8 35.15 224.71 33.82 223.55 32.72C224.8 33.46 225.58 33.82 226.27 34.11C226.94 34.41 227.51 34.65 228.23 35.3C228.48 35.52 228.72 35.77 228.95 36.02C228.7 35.54 228.49 35.01 228.34 34.45C227.88 32.81 227.89 30.92 228.43 29.3C228.74 28.37 229.11 27.23 229.39 26.28C230.04 24.17 231.04 23.01 231.38 21.08C231.38 22.83 231.64 23.79 231.85 24.58C232.09 25.37 232.3 25.99 232.42 27.03C232.67 29.12 232.75 31.27 232.42 33.34C232.13 35.06 231.66 36.91 230.82 38.23C230.71 38.16 230.61 38.08 230.51 38C230.52 38.13 230.55 38.26 230.56 38.39C230.86 39.02 231.09 39.68 231.22 40.36C231.39 41.21 231.43 42.1 231.32 42.93C231.5 43.91 231.68 44.88 231.82 45.81C232.82 41.21 234.19 36.61 236.91 33.05C237.06 32.79 237.22 32.5 237.4 32.15C237.97 31.08 238.55 29.64 238.94 28.23C237.51 26.2 237 23.16 237.61 20.54C237.82 19.72 237.97 18.68 238.01 17.81C238.09 15.89 238.58 14.52 238.01 12.82C238.82 14.21 239.37 14.97 239.87 15.6C240.35 16.24 240.76 16.76 241.14 17.75C241.89 19.74 242.2 22.09 241.72 24.22C241.56 24.95 241.32 25.67 241.02 26.34C241.57 27 241.99 27.44 242.38 27.8C242.45 27.87 242.52 27.94 242.59 28.01C242.86 27.88 243.14 27.76 243.42 27.65C244.6 27.2 245.85 26.92 247.04 26.77C247.13 26.27 247.35 25.76 247.72 25.31C248.18 24.74 248.85 24.26 249.6 23.96C251.11 23.34 252.87 23.41 254.18 24C254.94 24.34 255.82 24.73 256.56 24.98C257.37 25.26 258 25.6 258.64 25.84C259.27 26.08 259.93 26.22 260.66 26.07C259.42 26.64 258.61 26.99 257.96 27.32C257.3 27.64 256.75 27.89 255.83 28.02C254.92 28.15 254.01 28.19 253.19 28.18C252.37 28.17 251.6 28.1 250.87 27.96C249.76 27.73 248.61 27.49 247.55 27.27C246.31 27.45 245 27.77 243.77 28.26C244.91 28.09 246.16 28.04 247.23 28.17C248.93 28.34 250.16 28.85 250.13 28.93C250.1 29.04 248.84 28.73 247.2 28.69C245.99 28.65 244.6 28.8 243.39 29.06C243.44 29.15 243.49 29.23 243.53 29.33C244.18 30.76 244.36 32.5 243.77 33.99C243.29 35.23 242.36 36.38 241.16 36.86C240.89 36.58 240.66 36.28 240.46 35.97C240.11 36.53 239.71 37.11 239.27 37.71C238.43 38.83 237.56 40.05 236.8 41.36C237.79 40.44 238.97 39.58 240.1 38.99C241.07 38.47 241.96 38.15 242.55 37.99C242.81 37.16 243.52 36.4 244.48 35.9C244.28 35.82 244.08 35.75 243.89 35.65C244.13 34.48 244.97 33.4 246.16 32.73C247.33 32.06 248.82 31.82 250.13 32.17C250.88 32.36 251.79 32.6 252.53 32.77C254.2 33.18 255.08 34.05 256.56 34.2C255.2 34.35 254.48 34.73 253.9 35.02C253.32 35.34 252.88 35.62 252.15 35.86C251.59 36.05 251.03 36.2 250.48 36.32C250.52 36.35 250.57 36.37 250.61 36.4C251.35 36.92 252.19 37.58 252.88 38.09C254.41 39.25 254.99 40.48 256.49 41.19C253.56 40.51 252.97 41.06 251.22 40.74C249.44 40.44 247.88 40.11 246.42 39.56C245.29 39.13 244.07 38.66 242.85 38.11C242.32 38.36 241.39 38.79 240.37 39.43C238.78 40.4 237.08 41.93 236.03 43.24C235.83 43.48 235.66 43.7 235.51 43.9C235.03 44.99 234.63 46.07 234.33 47.05C234.28 47.21 234.24 47.36 234.2 47.51C234.13 48.98 234.09 50.45 234.02 51.91C235.09 53.73 235.76 54.05 236.39 55.63C236.68 56.38 236.9 57.17 237.04 57.98C237.28 56.99 237.62 56 238.1 55.07C238.52 54.29 238.92 53.25 239.19 52.36C239.75 50.38 240.57 49.09 240.52 47.16C241.23 50.52 241.99 50.84 242.23 53.07C242.46 55.3 242.16 57.87 240.95 60C240.07 61.59 238.66 62.98 237.26 63.5C236.84 64.16 236.37 64.82 235.85 65.48C235.27 66.21 234.62 66.91 233.93 67.6C234.38 67.29 234.89 67.06 235.43 66.94C236.02 66.81 236.72 66.57 237.27 66.31C238.47 65.72 239.59 65.67 240.33 64.65C239.47 66.84 239.81 67.54 239.04 68.88C238.25 70.21 237.02 71.35 235.52 71.79C234.43 72.12 233.17 72.17 232.1 71.77C232.1 71.77 232.1 71.77 232.09 71.77C230.38 72.81 228.13 73.63 226.54 74.42C225.25 75.59 223.99 76.74 222.81 77.81C222.79 77.83 222.77 77.85 222.75 77.87C222.14 78.49 221.52 79.1 220.92 79.72C221.61 79.32 222.34 78.94 223.1 78.59C224.87 77.77 226.75 77.12 228.49 76.72C228.58 76.7 228.67 76.68 228.76 76.66C228.77 76.52 228.8 76.38 228.84 76.24C228.95 75.94 229.17 75.65 229.43 75.41C229.94 74.93 230.57 74.64 231.03 74.43C231.27 74.33 231.42 74.23 231.59 74.16C231.76 74.08 231.93 74.03 232.11 73.97C232.47 73.87 232.86 73.83 233.31 73.83C233.83 73.83 234.5 73.7 235.03 73.48C236.2 72.99 237.32 72.92 238.09 71.92C237.18 74.1 237.56 74.8 236.66 76.14C236.6 76.23 236.53 76.31 236.46 76.39C239.23 74.54 241.88 72.52 244.34 70.29C245.08 69.03 245.65 67.4 246.14 65.7C246.12 65.45 246.09 65.18 246.05 64.83C245.97 63.85 245.86 62.61 245.75 61.45C244.06 60.05 243.05 57.81 243.15 55.62C243.19 54.9 243.15 54.01 243.03 53.28C242.75 51.69 242.97 50.42 242.11 49.16C244.13 51.06 244.91 51 246.04 52.45C246.5 53.06 246.89 53.74 247.2 54.45C247.36 54.16 247.54 53.88 247.75 53.63C248.22 53.04 248.76 52.31 249.16 51.67C249.89 50.51 250.73 49.83 251.24 48.83C251.04 48.83 250.84 48.82 250.65 48.8C249.84 48.72 249.1 48.52 248.39 48.18C247.22 47.6 246.08 46.68 245.5 45.5C247.13 43.82 249.98 43.5 251.85 44.7C252.37 45.04 253.03 45.35 253.58 45.49C254.18 45.65 254.68 45.84 255.18 45.88C255.67 45.92 256.19 45.79 256.5 45.34C256.17 46.35 255.57 46.98 255.12 47.48C254.63 47.97 254.15 48.35 253.27 48.6C252.69 48.76 252.09 48.83 251.51 48.84C251.51 50.99 252.06 51.52 251.97 53.06C251.88 54.76 251.49 56.47 250.58 57.91C249.96 58.89 249.13 59.84 248.15 60.47C248.08 60.77 248 61.08 247.92 61.39C247.59 62.72 247.23 64.17 246.85 65.62C246.85 65.72 246.86 65.83 246.87 65.92H246.77C246.73 66.07 246.7 66.21 246.66 66.35C246.42 67.22 246.15 68.08 245.84 68.88C246.86 67.87 247.86 66.83 248.8 65.74C250.28 64.02 251.63 62.18 252.85 60.26C254.11 58.27 255.21 56.18 256.59 54.27C257.08 53.59 257.61 52.95 258.16 52.33C256.81 50.23 256.55 47.11 257.49 44.57C257.79 43.79 258.06 42.8 258.22 41.96C258.55 40.11 259.22 38.85 258.9 37.13C260.05 40.06 260.8 40.31 261.32 42.3C261.82 44.3 261.86 46.58 261.19 48.59C261.04 49.05 260.85 49.51 260.63 49.94C261.22 49.46 261.83 48.99 262.47 48.58C262.53 48.53 262.59 48.49 262.66 48.44C263.48 47.85 264.44 47.16 265.42 46.46C265.83 46.15 266.27 45.86 266.69 45.57C266.16 43.33 266.76 40.6 268.24 38.65C268.74 38.01 269.27 37.17 269.66 36.43C270.49 34.8 271.49 33.85 271.69 32.16C271.94 35.21 272.6 35.65 272.54 37.64C272.46 39.63 271.9 41.75 270.73 43.42C269.77 44.81 268.41 46.05 267 46.49C266.96 46.4 266.94 46.29 266.9 46.19C266.7 46.35 266.49 46.5 266.29 46.66C266.33 46.66 266.36 46.65 266.39 46.66C267.14 46.46 267.95 46.33 268.78 46.3C270.21 46.25 271.66 46.49 272.9 46.85C273.1 46.91 273.29 46.97 273.48 47.03C273.47 47 273.44 46.98 273.43 46.95C274.34 46.16 275.65 45.8 276.98 45.94C278.31 46.07 279.65 46.72 280.53 47.73C280.79 48.02 281.07 48.33 281.35 48.65C281.62 48.96 281.88 49.24 282.13 49.47C282.67 49.98 283.03 50.46 283.46 50.8C283.88 51.14 284.42 51.33 284.93 51.1C284.53 51.45 284.05 51.66 283.63 51.79C283.2 51.92 282.81 52 282.46 52.06C281.75 52.17 281.13 52.2 280.26 51.98C279.39 51.74 278.69 51.5 277.98 51.19C277.28 50.88 276.63 50.5 276.02 50.03C275.22 49.39 274.41 48.59 273.82 47.66C273.48 47.56 273.13 47.46 272.75 47.37C271.53 47.08 270.14 46.91 268.8 46.99C267.87 47.04 266.98 47.23 266.18 47.48C265.34 47.83 264.53 48.23 263.75 48.68C263.66 48.74 263.57 48.81 263.49 48.87L263.47 48.85C262.2 49.62 261.03 50.54 259.98 51.6C259.81 51.77 259.64 51.96 259.48 52.14C260.37 51.7 261.48 51.31 262.56 51.04C263.07 50.23 263.91 49.5 264.99 49.06C266.59 48.36 268.69 48.38 270.24 49.17C271.14 49.61 272.15 50.2 272.95 50.69C274.73 51.81 275.41 53.09 277.01 53.89C275.46 53.45 274.53 53.44 273.77 53.46C273.01 53.49 272.41 53.55 271.49 53.46C270.63 53.39 269.75 53.32 268.88 53.24C268.06 53.18 267.27 53.11 266.44 53C265.07 52.8 263.48 52.67 262.03 52.31C262.06 52.14 262.11 51.98 262.17 51.81C261.16 52.16 260.16 52.59 259.39 53.02C258.94 53.26 258.58 53.48 258.3 53.64L258.28 53.6C257.26 54.98 256.4 56.47 255.55 57.96C255.19 58.59 254.82 59.21 254.45 59.83C254.21 60.42 253.98 61.01 253.72 61.59C253.42 62.28 253.09 62.96 252.74 63.63C253.86 62.82 255.13 62.04 256.51 61.41C258.51 60.49 260.68 59.86 262.68 59.59C263.39 59.49 264.07 59.43 264.71 59.41C265.43 58.66 266.49 58.12 267.69 57.94C269.16 57.71 270.79 58.03 272.02 58.86C272.72 59.33 273.58 59.9 274.29 60.37C275.85 61.44 276.44 62.63 277.87 63.43C276.45 62.97 275.58 63.02 274.89 63.05C274.19 63.11 273.64 63.19 272.79 63.12C271.1 62.98 269.49 62.74 267.96 62.13C266.77 61.64 265.49 60.99 264.48 60.12C263.95 60.18 263.39 60.26 262.81 60.38C260.9 60.74 258.84 61.42 256.96 62.35C255.07 63.28 253.38 64.45 252.08 65.6C251.75 65.88 251.47 66.15 251.2 66.42C250.18 68.11 249.08 69.73 247.88 71.28C250.24 70.48 252.95 69.77 255.32 69.38C255.69 69.32 256.04 69.26 256.39 69.21C256.91 68.11 257.96 67.2 259.26 66.72C260.57 66.22 262.12 66.16 263.44 66.63C264.21 66.89 265.13 67.21 265.91 67.43C267.63 67.95 268.56 68.86 270.13 69.04C268.69 69.17 267.91 69.5 267.28 69.77C266.64 70.06 266.15 70.31 265.32 70.5C264.71 70.64 264.1 70.74 263.48 70.81C263.52 71.55 263.59 72.09 263.67 72.58C263.77 73.3 263.86 73.89 263.69 74.82C263.35 76.67 262.45 78.56 261.02 79.85C259.86 80.91 258.33 81.69 256.94 81.72C256.19 82.43 255.3 83.24 254.25 84.04C253.84 84.35 253.41 84.67 252.96 84.97C254.72 84.67 256.64 84.48 258.49 84.41C259.3 83.59 260.44 82.99 261.72 82.67C262.44 82.48 263.2 82.39 263.96 82.39C264.74 82.4 265.53 82.53 266.28 82.8C267.14 83.11 268.21 83.48 269.1 83.84C270.09 84.23 270.83 84.79 271.48 85.35C272.13 85.93 272.69 86.5 273.41 87.14C271.91 86.26 270.97 86.38 270.26 86.45C269.54 86.56 269.01 86.72 268.14 86.8C266.41 86.98 264.54 87.15 262.55 86.78C261.25 86.52 259.91 86.02 258.87 85.29C255.98 85.51 252.89 86.01 250.52 86.61C249.84 86.77 249.27 86.93 248.75 87.07C248.71 87.08 248.67 87.1 248.63 87.11C247.38 87.54 246.11 87.72 244.93 87.83C246.16 88.12 247.39 88.46 248.58 88.9C251.63 90.02 254.42 91.72 257.21 93.39C257.6 93.62 257.99 93.85 258.38 94.08C260 94.32 261.8 94.49 263.64 94.52C263.88 94.52 264.12 94.52 264.36 94.52V94.45C264.49 94.47 264.63 94.49 264.76 94.52C266.79 94.51 268.82 94.35 270.66 94.07C271.27 93.98 271.86 93.87 272.42 93.76C272.84 92.62 273.69 91.62 274.77 90.92C275.31 90.56 275.91 90.28 276.54 90.09C277.17 89.9 277.83 89.81 278.37 89.84C279.02 89.87 279.67 89.8 280.23 89.52C281.45 88.91 282.66 88.44 283.36 87.11C283.01 88.45 282.93 89.26 282.81 89.98C282.68 90.69 282.57 91.31 281.92 92.15C281.59 92.56 281.16 92.96 280.69 93.29C280.22 93.61 279.74 93.86 279.28 94.04C278.38 94.4 277.57 94.6 276.67 94.66C275.44 94.74 274.1 94.59 273.01 94.11C272.3 94.29 271.55 94.45 270.75 94.6C269.68 94.8 268.54 94.95 267.37 95.06C268.93 95.4 270.69 95.85 272.21 96.26C273.23 95.74 274.35 95.48 275.45 95.46C276.62 95.44 277.75 95.68 278.79 96.23C279.38 96.55 280.17 96.85 280.84 97.01C282.32 97.33 283.4 97.96 284.79 97.54C283.65 98.22 282.98 98.69 282.42 99.12C281.85 99.53 281.38 99.87 280.49 100.11C278.73 100.59 276.65 100.51 274.98 99.63C273.74 98.99 272.65 97.96 272.16 96.8C270.14 96.39 267.68 95.89 265.86 95.52C265.29 95.4 264.82 95.3 264.43 95.22C264.16 95.22 263.89 95.24 263.62 95.24C262.38 95.24 261.15 95.17 259.99 95.05C266.39 98.74 273.09 102.07 280.21 103.57C281.17 103.01 282.38 102.62 283.65 102.44C285.44 102.18 287.3 102.27 288.94 102.66C289.1 102.7 289.27 102.73 289.44 102.77C290.34 99.09 291.01 95.32 291.4 91.47C290.98 92.76 290.24 93.98 289.18 94.84C288.9 95.06 288.61 95.27 288.29 95.45C287.98 95.64 287.58 95.87 287.17 96.01C286.76 96.16 286.26 96.26 285.85 96.19C285.43 96.12 285.08 95.92 284.85 95.62C285.16 95.2 285.33 94.66 285.3 94.24C285.32 93.79 285.3 93.39 285.53 92.81C285.92 91.74 286.58 90.8 287.51 90.13C288.05 89.75 288.65 89.21 289.09 88.71C290.05 87.61 291.11 87.05 291.46 85.72C291.43 87 291.56 87.77 291.66 88.44C291.78 86.61 291.85 84.77 291.85 82.91C291.85 82.3 291.85 81.68 291.83 81.07L291.74 81.04ZM142.56 61.58C144.1 61.44 145.73 61.73 146.99 62.63C148.04 63.38 148.96 64.5 149.24 65.77C147.3 67.06 144.81 67.01 143.17 65.64C142.7 65.24 142.07 64.81 141.52 64.52C140.31 63.89 139.61 63 138.33 62.97C140.65 62.43 141.02 61.74 142.55 61.58H142.56ZM150.37 45.74C149.25 45.26 148.3 44.47 147.57 43.56C146.85 42.64 146.35 41.59 146.17 40.44C146.07 39.77 145.84 38.97 145.57 38.33C144.95 36.95 144.82 35.71 143.66 34.84C144.88 35.35 145.65 35.61 146.32 35.81C146.98 36.02 147.54 36.2 148.26 36.76C149.69 37.88 150.86 39.57 151.16 41.42C151.42 42.95 151.19 44.64 150.36 45.74H150.37ZM157.35 35.21C157.23 36.15 156.79 37.2 155.93 38.02C153.79 37.62 152.45 35.89 152.92 34.16C153.05 33.66 153.16 33.06 153.19 32.57C153.26 31.48 153.82 30.68 153.42 29.78C154.73 31.23 155.52 31.19 156.27 32.11C157.03 33.02 157.49 34.08 157.35 35.21ZM158.92 30.06C157.78 30.04 156.67 29.44 155.95 28.47C155.22 27.51 154.89 26.2 155.17 25.02C155.32 24.34 155.51 23.53 155.63 22.87C155.94 21.39 156.76 20.61 156.81 19.32C157.05 20.51 157.46 21.12 157.8 21.6C158.16 22.08 158.46 22.44 158.75 23.04C159.32 24.24 159.72 25.37 159.69 26.62C159.65 27.66 159.47 28.88 158.93 30.05L158.92 30.06ZM163.17 49.98C162.06 49.39 161.15 48.34 160.55 47.09C160.25 46.47 160.03 45.8 159.91 45.11C159.78 44.41 159.76 43.66 159.87 42.94C160 42.08 160.15 41.03 160.28 40.16C160.43 39.18 160.79 38.38 161.17 37.66C161.56 36.94 161.95 36.3 162.37 35.49C161.95 37.08 162.3 37.91 162.55 38.54C162.84 39.17 163.13 39.62 163.4 40.4C163.96 41.94 164.54 43.64 164.48 45.59C164.43 47.16 164.04 48.84 163.18 49.99L163.17 49.98ZM167.71 35.36C166.58 34.94 165.62 34 165.25 32.85C165.03 32.2 164.78 31.42 164.56 30.79C164.09 29.36 164.42 28.3 163.85 27.17C164.63 28.08 165.29 28.39 165.81 28.64C166.35 28.87 166.8 29.02 167.33 29.37C168.41 30.08 169.3 30.79 169.89 31.83C170.38 32.7 170.85 33.81 171.02 35.07C170.07 35.68 168.82 35.79 167.69 35.36H167.71ZM175.07 25.79C174.17 26.66 172.87 27.22 171.34 27.23C170.58 27.23 169.75 27.08 168.96 26.74C168.17 26.4 167.42 25.87 166.87 25.18C166.22 24.4 165.62 23.35 165.25 22.57C164.82 21.7 164.67 20.96 164.43 20.3C164.2 19.64 163.89 19.04 163.28 18.64C164.53 19.13 165.33 19.61 166 19.9C166.67 20.21 167.22 20.47 167.9 20.95C168.6 21.43 169.14 21.72 169.74 22.01C170.32 22.31 170.96 22.62 171.64 23.04C172.77 23.73 174.21 24.61 175.05 25.78L175.07 25.79ZM195.91 17.91C195.28 19.22 194.19 20.4 192.92 20.83C192.22 19.86 191.84 18.72 191.75 17.6C191.66 16.48 191.85 15.37 192.38 14.38C192.69 13.81 192.98 13.06 193.15 12.42C193.49 11.01 194.16 10.02 193.82 8.68C194.43 9.79 194.88 10.43 195.29 10.97C195.68 11.51 196.02 11.96 196.25 12.78C196.72 14.42 196.7 16.33 195.92 17.9L195.91 17.91ZM232.58 10.19C232.49 10.86 232.45 11.4 232.24 12.14C232.04 12.88 231.89 13.55 231.62 14.3C231.36 15.03 230.98 15.85 230.46 16.55C229.6 17.72 228.4 18.8 227.08 19.22C226.46 18.17 226.24 16.87 226.38 15.59C226.54 14.32 227.01 13.08 227.99 12.01C228.54 11.41 229.28 10.64 229.89 10.08C231.24 8.83 232.52 8.64 233.45 7.44C232.86 8.69 232.68 9.51 232.58 10.18V10.19ZM247.66 16.88C247.26 17.89 246.51 18.91 245.42 19.5C243.53 18.31 242.79 16.07 243.72 14.35C243.99 13.85 244.26 13.23 244.42 12.7C244.78 11.53 245.53 10.81 245.36 9.7C246.27 11.64 247.04 11.83 247.52 13.07C248 14.31 248.14 15.66 247.66 16.88ZM262.99 33.5C262.21 34.41 261.05 35.11 259.8 35.15C258.69 33.18 258.76 31.09 260.08 29.79C260.47 29.41 260.87 28.9 261.15 28.43C261.73 27.41 262.58 26.79 262.54 25.67C263.21 27.71 263.9 28.07 264.09 29.47C264.26 30.89 263.94 32.41 262.99 33.49V33.5ZM276.91 42.29C276.14 42.87 275.07 43.29 273.87 43.21C273.29 42.28 273.08 41.3 273.2 40.43C273.32 39.56 273.79 38.83 274.47 38.45C274.87 38.23 275.3 37.9 275.57 37.59C275.86 37.25 276.2 36.99 276.44 36.68C276.68 36.38 276.82 36.01 276.67 35.62C277.24 36.27 277.59 36.85 277.88 37.33C278.16 37.82 278.37 38.28 278.38 38.97C278.38 40.37 277.81 41.62 276.91 42.29ZM265.65 91.39C264.22 92.24 262.56 92.8 260.89 92.71C259.51 92.64 258.01 92.24 256.97 91.38C257.94 89.18 260.56 87.77 262.98 88.13C263.68 88.23 264.54 88.3 265.25 88.29C266.82 88.27 267.94 88.76 269.29 88.26C267.1 89.74 267.08 90.54 265.65 91.39ZM278.65 57.06C280.75 56.27 283.13 57.34 283.73 59.33C283.91 59.9 284.16 60.56 284.4 61.08C284.95 62.24 284.84 63.28 285.65 64.07C283.72 63.07 283.01 63.46 281.85 62.88C280.69 62.32 279.7 61.54 279.17 60.42C278.73 59.48 278.45 58.29 278.65 57.07V57.06ZM276.64 70.47C276.58 71.17 276.55 71.76 276.18 72.61C275.45 74.3 274.16 75.88 272.49 76.74C271.11 77.46 269.43 77.81 268.09 77.42C268.17 76.19 268.64 75.01 269.33 74C270.02 72.99 270.94 72.15 272.04 71.62C272.68 71.32 273.42 70.85 273.98 70.4C275.21 69.39 276.4 68.96 277.03 67.59C276.76 68.93 276.69 69.75 276.64 70.46V70.47ZM282.8 80.71C282.58 81.37 282.24 81.99 281.78 82.52C281.01 83.4 279.9 84.16 278.65 84.37C277.34 82.51 277.55 79.96 279.08 78.59C279.5 78.23 279.94 77.76 280.19 77.33C280.46 76.86 280.75 76.5 280.91 76.1C281.06 75.71 281.04 75.26 280.68 74.97C281.55 75.27 282.07 75.95 282.45 76.46C282.82 77 283.08 77.52 283.14 78.36C283.19 79.19 283.04 80.03 282.8 80.72V80.71Z" fill="#947D5C"/>
<path d="M284.38 106.59C282.82 106.24 281.3 105.69 280.09 104.98C279.32 104.9 278.55 104.8 277.79 104.69C277.81 104.74 277.84 104.79 277.86 104.84C278.14 105.49 278.45 106.28 278.74 106.91C279.35 108.33 279.15 109.46 279.87 110.58C278.97 109.72 278.28 109.45 277.72 109.23C277.14 109.03 276.68 108.9 276.09 108.55C274.91 107.86 273.9 107.11 273.18 106.03C272.72 105.32 272.28 104.48 272 103.53C271.13 103.31 270.26 103.08 269.39 102.82C264.31 101.32 259.56 99.05 254.83 96.71C252.15 95.39 249.45 94.07 246.68 92.95C246.87 93.3 247.02 93.67 247.13 94.05C247.36 94.83 247.62 95.79 247.86 96.55C248.37 98.28 248.08 99.55 248.72 100.99C247.88 99.82 247.19 99.34 246.63 98.96C246.05 98.59 245.58 98.32 244.98 97.75C243.78 96.62 242.72 95.42 242 93.99C241.56 93.09 241.14 92.07 240.93 91.02C240.82 90.99 240.72 90.96 240.61 90.93C235.56 89.68 230.23 89.63 225.15 90.74C224.8 90.82 224.45 90.91 224.09 91C221.56 92.58 219.64 95.16 218.46 97.94C216.98 101.45 216.52 105.29 216.16 109.08C215.44 116.56 215.18 124.72 218.02 131.61C218.02 131.61 218.02 131.61 218.03 131.61C220.37 136.22 224.6 140.34 229.76 140.65C233.74 140.88 237.98 138.88 241.55 140.63C243.87 141.77 245.3 144.27 247.64 145.35C250.39 146.62 253.58 145.64 256.58 145.2C258.94 144.85 261.32 144.86 263.7 145.04C275.1 134.98 283.72 121.83 288.23 106.9C286.91 106.97 285.6 106.87 284.39 106.59H284.38Z" fill="#947D5C"/>
</svg>
