<svg width="128" height="128" viewBox="0 0 128 128" fill="none" xmlns="http://www.w3.org/2000/svg">
<g clip-path="url(#clip0_1_452)">
<path d="M99.2931 29.7914C100.53 28.5859 100.966 26.8167 100.433 25.1743C99.8993 23.5318 98.5061 22.3571 96.7969 22.1089L92.0745 21.4226C91.8291 21.3869 91.6168 21.2329 91.5068 21.0101L89.3949 16.7313C88.6306 15.1826 87.0829 14.2203 85.356 14.2203C83.629 14.2203 82.0811 15.1826 81.3171 16.731L79.2057 21.0099C79.0957 21.2326 78.8834 21.3869 78.6374 21.4226L73.9153 22.1089C72.2064 22.3571 70.8132 23.5316 70.2794 25.174C69.7457 26.8165 70.1824 28.5857 71.4192 29.7914L74.8363 33.122C75.014 33.2953 75.095 33.545 75.0533 33.7898L74.2466 38.4926C73.9546 40.1951 74.6411 41.883 76.0383 42.898C77.4377 43.9147 79.2552 44.0432 80.7816 43.241L85.0055 41.0203C85.2255 40.9048 85.488 40.9048 85.7075 41.0203L89.9311 43.2407C91.4601 44.0442 93.2773 43.913 94.6747 42.8977C96.0719 41.8825 96.7584 40.1946 96.4664 38.4924L95.6597 33.789C95.6177 33.5445 95.6989 33.295 95.8767 33.1218L99.2931 29.7914ZM93.2585 30.4371C92.1965 31.4726 91.7123 32.963 91.9633 34.4237L92.77 39.1266C92.8388 39.5286 92.6115 39.7613 92.47 39.8643C92.3283 39.9671 92.0371 40.1113 91.6756 39.9218L87.4517 37.7012C86.7954 37.3562 86.0757 37.1837 85.3557 37.1837C84.6358 37.1837 83.916 37.3562 83.2598 37.7012L79.0359 39.9218C78.6744 40.1113 78.3837 39.9673 78.2417 39.8643C78.1002 39.7613 77.8727 39.5288 77.9417 39.1266L78.7487 34.4235C78.9992 32.9623 78.5147 31.4721 77.4532 30.4369L74.0361 27.1062C73.7438 26.8212 73.7913 26.4995 73.8451 26.3327C73.8993 26.1662 74.0501 25.8782 74.4538 25.8195L79.1762 25.1333C80.6434 24.9203 81.9111 23.9993 82.5676 22.6696L84.6793 18.3905C84.8598 18.0247 85.1805 17.97 85.3555 17.97C85.5305 17.97 85.8512 18.0247 86.0317 18.3905L88.1437 22.6693C88.7996 23.9991 90.0674 24.92 91.5348 25.1333L96.2572 25.8195C96.6607 25.8782 96.8119 26.1662 96.8659 26.3327C96.9202 26.4992 96.9672 26.8212 96.6749 27.106L93.2585 30.4371Z" fill="white"/>
<path d="M53.7951 16.9823L48.826 14.1136C47.9288 13.5956 46.7821 13.9031 46.2649 14.7998C45.7471 15.6966 46.0544 16.8433 46.9511 17.361L51.9202 20.2299C52.8182 20.7482 53.9644 20.4394 54.4814 19.5437C54.9991 18.6467 54.6916 17.5 53.7951 16.9823Z" fill="white"/>
<path d="M116.917 39.1006L121.886 41.9695C122.784 42.4878 123.93 42.179 124.447 41.2833C124.965 40.3866 124.658 39.2399 123.761 38.7221L118.792 35.8532C117.895 35.3352 116.748 35.6425 116.231 36.5395C115.713 37.4362 116.02 38.5829 116.917 39.1006Z" fill="white"/>
<path d="M42.7167 28.0414C42.7167 29.0769 43.556 29.9164 44.5917 29.9164H50.3293C51.365 29.9164 52.2042 29.0769 52.2042 28.0414C52.2042 27.006 51.365 26.1665 50.3293 26.1665H44.5917C43.556 26.1665 42.7167 27.006 42.7167 28.0414Z" fill="white"/>
<path d="M118.508 28.0414C118.508 29.0769 119.347 29.9164 120.383 29.9164H126.12C127.156 29.9164 127.995 29.0769 127.995 28.0414C127.995 27.006 127.156 26.1665 126.12 26.1665H120.383C119.347 26.1665 118.508 27.006 118.508 28.0414Z" fill="white"/>
<path d="M51.9202 35.8532L46.9511 38.7221C46.0544 39.2399 45.7471 40.3866 46.2649 41.2833C46.7834 42.1813 47.9306 42.4868 48.826 41.9695L53.7951 39.1006C54.6919 38.5829 54.9991 37.4362 54.4814 36.5395C53.9631 35.6425 52.8164 35.3352 51.9202 35.8532Z" fill="white"/>
<path d="M121.886 14.1136L116.917 16.9825C116.02 17.5003 115.713 18.647 116.231 19.5437C116.749 20.4412 117.896 20.7477 118.792 20.2299L123.761 17.361C124.658 16.8433 124.965 15.6966 124.447 14.7998C123.929 13.9029 122.782 13.5956 121.886 14.1136Z" fill="white"/>
<path d="M127.102 88.7289C124.497 83.2903 119.055 82.2906 113.548 84.4408L104.795 87.0312C103.802 87.3249 103.236 88.3682 103.53 89.3609C103.823 90.3539 104.866 90.9208 105.859 90.6269C115.522 87.7684 114.662 88.0299 114.912 87.9339C117.314 86.9962 121.647 86.0612 123.706 90.3216C125.801 95.1365 121.042 97.9549 119.938 98.5304L79.2049 116.548C79.1984 116.551 79.1867 116.557 79.1799 116.56C79.1549 116.571 79.1304 116.583 79.1059 116.596C73.6043 119.416 68.213 118.095 66.1071 117.375L54.4674 112.729C48.7141 110.433 41.5413 110.474 34.27 112.844C34.2417 112.853 34.2132 112.863 34.1855 112.873L4.29862 124.22C4.13388 124.283 4.00413 124.23 3.92488 124.175C3.84514 124.12 3.74989 124.018 3.74989 123.842V95.2417C3.74989 95.06 3.87239 94.8992 4.04738 94.8512L12.6444 92.4875C19.6399 90.5644 20.7239 87.4389 30.4169 83.1016C37.1347 80.0947 39.6188 79.9984 53.3814 79.9522H53.3874C56.8618 80.0072 58.8365 80.8031 69.7937 85.2195C72.0021 86.1095 74.5643 87.1422 77.5645 88.3399C82.3653 90.2556 80.8596 94.393 80.8596 94.9385C80.0652 97.2847 78.3457 98.3056 76.0685 97.7474C70.6984 96.4319 57.9036 93.3508 57.7748 93.3198C56.7678 93.0773 55.7554 93.6968 55.5129 94.7037C55.2704 95.7104 55.8901 96.7232 56.8968 96.9654C57.0256 96.9964 69.8132 100.076 75.1763 101.39C79.3022 102.401 82.5116 100.435 84.0505 97.0792L97.4689 93.1095C98.4619 92.8158 99.0286 91.7726 98.7348 90.7798C98.4409 89.7869 97.3984 89.2196 96.4049 89.5139L84.87 92.9263C84.7948 90.0774 83.4618 86.6567 78.9544 84.8578C75.9593 83.6618 73.4004 82.6306 71.1954 81.7419C59.9957 77.2277 57.6338 76.2758 53.4899 76.2038C53.4637 76.2028 53.4384 76.2025 53.4104 76.2023C39.2011 76.2498 36.2914 76.3635 28.8849 79.6789C18.8722 84.1598 17.9235 87.1474 11.6504 88.8721L3.05316 91.2358C1.25546 91.7301 0 93.3775 0 95.2417V123.842C0 125.207 0.67123 126.486 1.7952 127.261C2.92216 128.039 4.35487 128.209 5.62984 127.726L35.474 116.395C41.806 114.341 48.2198 114.273 53.0774 116.211L64.7594 120.875C64.7868 120.886 64.8151 120.896 64.8434 120.906C67.3678 121.776 73.9628 123.422 80.7684 119.957L121.507 101.937C123.763 100.943 130.354 96.1217 127.127 88.7839C127.119 88.7654 127.11 88.7472 127.102 88.7289Z" fill="white"/>
<path d="M109.001 23.9563C109.161 24.979 110.117 25.6788 111.143 25.5188C112.166 25.3588 112.866 24.3995 112.706 23.3766C110.593 9.87122 98.8099 -0.19049 84.9623 0.00625399C69.8675 0.216248 57.6248 12.6734 57.6718 27.7754C57.6968 35.8357 61.2262 43.4692 67.3548 48.7188C68.6143 49.7975 69.3367 51.4002 69.3367 53.1157V56.9453C69.3367 59.9422 71.2447 62.5014 73.9093 63.4731V72.2384C73.9093 77.1287 77.888 81.1074 82.7786 81.1074H87.9332C92.8236 81.1074 96.8024 77.1287 96.8024 72.2384C96.8024 69.0595 96.8024 67.1535 96.8024 63.4731C99.4671 62.5014 101.375 59.9422 101.375 56.9453V53.1142C101.375 51.4035 102.111 49.7898 103.394 48.6871C108.172 44.5799 111.432 38.9226 112.574 32.7575C112.763 31.7393 112.09 30.7611 111.072 30.5726C110.055 30.3846 109.075 31.0563 108.887 32.0746C107.9 37.4019 105.081 42.2915 100.95 45.8434C98.8369 47.6594 97.6252 50.3095 97.6252 53.1142V56.9453C97.6252 58.6158 96.3389 59.974 94.7452 60.1247C94.4907 60.1495 76.243 60.1515 75.9665 60.1247C75.962 60.1242 75.9575 60.1245 75.9533 60.1242C74.3453 59.959 73.0869 58.5965 73.0869 56.9456V53.1159C73.0869 50.3038 71.8867 47.6631 69.7945 45.8712C64.4951 41.332 61.4435 34.7322 61.422 27.7639C61.3815 14.7073 71.9652 3.93764 85.0148 3.75614C96.8494 3.58515 107.173 12.2754 109.001 23.9563ZM87.9332 77.3577H82.7786C80.3199 77.3577 78.2605 75.6153 77.7702 73.3006H92.9418C92.4513 75.6153 90.3919 77.3577 87.9332 77.3577ZM77.6592 63.8911H93.0523V69.5507H77.6592V63.8911Z" fill="white"/>
</g>
<defs>
<clipPath id="clip0_1_452">
<rect width="128" height="128" fill="white"/>
</clipPath>
</defs>
</svg>
