<svg width="128" height="128" viewBox="0 0 128 128" fill="none" xmlns="http://www.w3.org/2000/svg">
<path d="M127.366 18.5846C127.026 17.6683 126.183 17.0341 125.209 16.9613L111.579 15.9418L110.56 2.31362C110.487 1.33912 109.853 0.49637 108.937 0.156371C108.02 -0.183878 106.99 0.0413712 106.299 0.73237L95.4051 11.6261C93.6003 13.4303 92.5556 15.8283 92.4623 18.3786C92.4606 18.4238 92.4601 18.4691 92.4611 18.5143L92.6096 26.8613C82.8383 18.9596 70.4084 14.2216 56.8921 14.2216C25.5217 14.2216 0 39.742 0 71.111C0 102.48 25.5217 128 56.8921 128C88.2626 128 113.784 102.48 113.784 71.111C113.784 57.3785 108.893 44.767 100.761 34.9268L109.011 35.06C109.025 35.0603 109.038 35.0603 109.052 35.0603C109.082 35.0603 109.113 35.0598 109.143 35.0585C111.693 34.9653 114.091 33.9203 115.896 32.1158L126.79 21.2221C127.481 20.5311 127.706 19.5006 127.366 18.5846ZM98.9406 15.1616L105.981 8.12185L106.669 17.3183L97.6018 26.3993L97.4616 18.4998C97.5226 17.2388 98.0463 16.0556 98.9406 15.1616ZM56.8921 123C28.2787 123 4.99999 99.7224 4.99999 71.1105C4.99999 42.4985 28.2784 19.2211 56.8921 19.2211C70.1841 19.2211 82.3243 24.2448 91.5151 32.4926L85.7248 38.2825C78.0236 31.5108 67.9291 27.3991 56.8921 27.3991C51.8084 27.3991 46.8239 28.2686 42.0767 29.9833C40.7782 30.4523 40.1057 31.8853 40.5747 33.1841C41.0439 34.4825 42.4759 35.1558 43.7754 34.6861C47.9762 33.1686 52.3892 32.3991 56.8921 32.3991C66.5504 32.3991 75.3939 35.9543 82.1828 41.8243L76.3829 47.624C71.0911 43.2253 64.2951 40.5768 56.8921 40.5768C40.0549 40.5768 26.357 54.2743 26.357 71.1105C26.357 87.9467 40.0549 101.644 56.8921 101.644C61.7041 101.644 66.5019 100.49 70.7664 98.3069C71.9954 97.6777 72.4814 96.1714 71.8524 94.9424C71.2231 93.7132 69.7164 93.2277 68.4876 93.8564C64.8744 95.7064 60.9729 96.6444 56.8921 96.6444C42.8122 96.6444 31.3569 85.1902 31.3569 71.1107C31.3569 57.0313 42.8119 45.577 56.8921 45.577C62.9161 45.577 68.4586 47.675 72.8301 51.177L66.9981 57.0088C64.1499 54.962 60.6596 53.7548 56.8924 53.7548C47.3219 53.7548 39.5357 61.5405 39.5357 71.1105C39.5357 80.6805 47.3219 88.4662 56.8924 88.4662C66.4626 88.4662 74.2489 80.6805 74.2489 71.1105C74.2489 67.1075 72.8859 63.417 70.6004 60.4775L76.4109 54.6673C80.1624 59.113 82.4273 64.8517 82.4273 71.1102C82.4273 73.856 81.9923 76.5582 81.1339 79.1415C80.6986 80.4517 81.4081 81.867 82.7183 82.3022C84.0276 82.7372 85.4436 82.0285 85.8791 80.718C86.9063 77.6252 87.4273 74.3927 87.4273 71.1102C87.4273 63.4727 84.6086 56.4815 79.9568 51.1215L85.7483 45.3303C91.8758 52.1808 95.6061 61.218 95.6061 71.1102C95.6061 92.4557 78.2391 109.822 56.8926 109.822C35.5462 109.822 18.1785 92.4559 18.1785 71.1105C18.1785 62.8632 20.748 54.986 25.6092 48.3303C26.4237 47.2153 26.18 45.6513 25.065 44.837C23.95 44.0228 22.386 44.266 21.5715 45.3813C16.081 52.899 13.1785 61.796 13.1785 71.1105C13.1785 95.2132 32.7884 114.822 56.8919 114.822C80.9956 114.822 100.605 95.2129 100.605 71.1105C100.605 59.8395 96.3171 49.5518 89.2866 41.7918L95.0723 36.0063C103.581 45.2523 108.784 57.585 108.784 71.1107C108.784 99.7224 85.5053 123 56.8921 123ZM69.2484 71.1105C69.2484 77.9235 63.7054 83.4662 56.8919 83.4662C50.0784 83.4662 44.5352 77.9235 44.5352 71.1105C44.5352 64.2975 50.0784 58.7548 56.8919 58.7548C59.2769 58.7548 61.5059 59.4348 63.3964 60.6097L55.4221 68.5835C54.4459 69.5597 54.4459 71.1427 55.4221 72.119C55.9104 72.6072 56.5501 72.8512 57.1899 72.8512C57.8296 72.8512 58.4694 72.607 58.9576 72.119L67.0266 64.0505C68.4261 66.0532 69.2484 68.4875 69.2484 71.1105ZM112.36 28.5801C111.466 29.4746 110.281 29.9983 109.02 30.0591L101.147 29.9318L105.95 25.1293C106.004 25.0758 106.054 25.0201 106.101 24.9633L110.205 20.8528L119.4 21.5408L112.36 28.5801Z" fill="white"/>
</svg>
