<svg width="60" height="60" viewBox="0 0 60 60" fill="none" xmlns="http://www.w3.org/2000/svg">
<g clip-path="url(#clip0_93_1266)">
<path d="M53.0881 35.6802L52.8027 35.8341C51.5613 34.3437 49.4226 33.7682 47.7928 34.5942L47.7751 34.6036L47.0723 34.982C45.3053 33.4963 42.7974 33.2738 40.7965 34.4258L36.9271 36.5297H31.7763C30.6638 36.5281 29.5659 36.2765 28.5636 35.7935L27.854 35.4504C23.7263 33.4417 18.8203 33.921 15.1589 36.6903C15.1412 36.7033 15.1246 36.7168 15.108 36.7319L13.395 38.2567C12.7577 38.8228 12.0054 39.2449 11.1898 39.4929L10.2244 36.3269C10.122 35.9906 9.81213 35.7613 9.4607 35.7613H1.17669C0.947946 35.7608 0.730123 35.8591 0.578843 36.0301C0.427043 36.2011 0.356342 36.4293 0.383895 36.656L3.14541 59.2981C3.19427 59.6989 3.53426 59.9999 3.9382 59.9999H16.3634C16.6166 59.9999 16.8547 59.8798 17.0055 59.6766C17.1557 59.4733 17.2009 59.2108 17.1271 58.9685L15.5005 53.6316L20.566 50.4298C21.2403 50.0575 22.031 49.9551 22.7775 50.1438C22.7941 50.148 22.8108 50.1516 22.8274 50.1548L33.1685 52.059C35.9851 52.5628 38.8886 52.1531 41.4551 50.8893C41.4889 50.8722 41.5217 50.8535 41.5529 50.8316L59.4393 38.5509C59.7876 38.3118 59.8895 37.8423 59.6711 37.4805C58.3122 35.216 55.4109 34.4227 53.0881 35.6802ZM48.5232 36.015C49.4418 35.5549 50.5959 35.923 51.345 36.6207L44.5951 40.2623L44.225 40.4572C44.0129 39.8662 43.7082 39.3125 43.322 38.8176L48.5232 36.015ZM41.569 35.8237L41.5877 35.8133C42.8016 35.1115 44.2988 35.1162 45.508 35.8253L42.1164 37.6526C41.4791 37.1899 40.7554 36.8603 39.9881 36.6825L41.569 35.8237ZM4.64469 58.4029L2.07813 37.3583H8.86858L15.2847 58.4029H4.64469ZM40.6956 49.4826C38.4493 50.5753 35.9144 50.9278 33.455 50.488L23.1399 48.5884C21.9988 48.3072 20.7932 48.4704 19.768 49.0459C19.7561 49.0527 19.7436 49.0599 19.7316 49.0677L15.0165 52.0481L11.655 41.0223C12.6916 40.7063 13.6472 40.1692 14.4566 39.4492L16.1446 37.9463C19.3267 35.5549 23.5791 35.1463 27.1584 36.8873L27.8675 37.2304C29.0871 37.8184 30.4226 38.1241 31.7758 38.1262H38.6557C40.7149 38.1288 42.4866 39.5839 42.89 41.6035L37.9383 41.3795C36.124 41.2979 34.306 41.3816 32.5067 41.63C32.0701 41.6909 31.7649 42.0938 31.8252 42.531C31.886 42.9677 32.2889 43.2728 32.7261 43.212C34.4287 42.977 36.1489 42.8975 37.866 42.9749L43.7342 43.2411C43.7462 43.2411 43.7581 43.2416 43.7701 43.2416C44.2115 43.2416 44.5686 42.8845 44.5686 42.4431C44.5686 42.3235 44.5644 42.2055 44.5572 42.0875L45.3463 41.6716L53.8471 37.0859C55.1681 36.3706 56.8046 36.6248 57.8464 37.7072L40.6956 49.4826Z" fill="white"/>
<path d="M7.04492 55.2401C7.04492 56.5959 8.14443 57.6949 9.50075 57.6949C10.8566 57.6944 11.9555 56.5949 11.955 55.2386C11.955 53.8828 10.8555 52.7838 9.49919 52.7843C8.14391 52.7859 7.04596 53.8849 7.04492 55.2401ZM9.49971 54.3818C9.97383 54.3818 10.358 54.766 10.358 55.2401C10.3585 55.7137 9.97383 56.0984 9.50023 56.0984C9.02612 56.0984 8.64194 55.7142 8.64194 55.2401C8.64194 54.766 9.0256 54.3818 9.49919 54.3813L9.49971 54.3818Z" fill="white"/>
<path d="M30.0816 30.7213C37.8728 30.7213 44.1886 24.4055 44.1886 16.6143C44.1886 8.82314 37.8728 2.50732 30.0816 2.50732C22.2904 2.50732 15.9746 8.82314 15.9746 16.6143C15.9834 24.4019 22.2941 30.7125 30.0816 30.7213ZM30.0816 4.10434C36.9906 4.10434 42.5916 9.70535 42.5916 16.6143C42.5916 23.5233 36.9906 29.1243 30.0816 29.1243C23.1726 29.1243 17.5716 23.5233 17.5716 16.6143C17.5794 9.70846 23.1757 4.11214 30.0816 4.10434Z" fill="white"/>
<path d="M28.3131 16.5639H28.2834L25.9165 16.5384H25.9077C25.5822 16.5384 25.289 16.736 25.1674 17.0375C25.0452 17.3395 25.119 17.6853 25.353 17.9114L31.2087 23.5649C31.5263 23.8716 32.0317 23.8628 32.3378 23.5452C32.644 23.228 32.6352 22.7227 32.3181 22.416L27.9065 18.1573L28.2658 18.1615C30.3582 18.1833 32.1699 16.711 32.5765 14.6581L34.2088 14.6758H34.2172C34.6585 14.6779 35.0177 14.3223 35.0198 13.8814C35.0224 13.4401 34.6668 13.0808 34.226 13.0788L32.5947 13.0611C32.4704 12.3426 32.1658 11.6673 31.7088 11.0991L34.2468 11.1256H34.2556C34.6965 11.1282 35.0557 10.7726 35.0583 10.3313C35.0604 9.89043 34.7048 9.53121 34.2639 9.52861L28.3588 9.46518L25.9919 9.44023C25.551 9.43555 25.1897 9.78906 25.1851 10.2299C25.1804 10.6713 25.5339 11.0326 25.9747 11.0373L28.3417 11.0622C29.5535 11.0762 30.6135 11.8799 30.9545 13.0429L25.9539 12.9899H25.9451C25.5043 12.9873 25.1445 13.3428 25.1424 13.7842C25.1398 14.225 25.4959 14.5843 25.9368 14.5869L30.9353 14.6399C30.5734 15.7836 29.5129 16.5618 28.3131 16.5639Z" fill="white"/>
<path d="M49.6919 9.00562C49.2506 9.00562 48.8934 9.36328 48.8934 9.80412V11.135C48.8934 11.5763 49.2506 11.9335 49.6919 11.9335C50.1328 11.9335 50.4905 11.5763 50.4905 11.135V9.80412C50.4905 9.36328 50.1328 9.00562 49.6919 9.00562Z" fill="white"/>
<path d="M49.6919 12.9982C49.2506 12.9982 48.8934 13.3558 48.8934 13.7967V15.1275C48.8934 15.5689 49.2506 15.926 49.6919 15.926C50.1328 15.926 50.4905 15.5689 50.4905 15.1275V13.7967C50.4905 13.3558 50.1328 12.9982 49.6919 12.9982Z" fill="white"/>
<path d="M47.0302 11.6672C46.5888 11.6672 46.2317 12.0249 46.2317 12.4657C46.2317 12.9071 46.5888 13.2643 47.0302 13.2643H48.361C48.8019 13.2643 49.1596 12.9071 49.1596 12.4657C49.1596 12.0249 48.8019 11.6672 48.361 11.6672H47.0302Z" fill="white"/>
<path d="M52.3536 13.2643C52.7944 13.2643 53.1521 12.9071 53.1521 12.4657C53.1521 12.0249 52.7944 11.6672 52.3536 11.6672H51.0228C50.5814 11.6672 50.2242 12.0249 50.2242 12.4657C50.2242 12.9071 50.5814 13.2643 51.0228 13.2643H52.3536Z" fill="white"/>
<path d="M14.6718 0C14.231 0 13.8733 0.357666 13.8733 0.798509V2.12936C13.8733 2.5702 14.231 2.92787 14.6718 2.92787C15.1132 2.92787 15.4703 2.5702 15.4703 2.12936V0.798509C15.4703 0.357666 15.1132 0 14.6718 0Z" fill="white"/>
<path d="M14.6718 3.99255C14.231 3.99255 13.8733 4.35022 13.8733 4.79106V6.12191C13.8733 6.56276 14.231 6.92042 14.6718 6.92042C15.1132 6.92042 15.4703 6.56276 15.4703 6.12191V4.79106C15.4703 4.35022 15.1132 3.99255 14.6718 3.99255Z" fill="white"/>
<path d="M12.0102 2.66174C11.5693 2.66174 11.2117 3.01941 11.2117 3.46025C11.2117 3.9011 11.5693 4.25876 12.0102 4.25876H13.341C13.7824 4.25876 14.1395 3.9011 14.1395 3.46025C14.1395 3.01941 13.7824 2.66174 13.341 2.66174H12.0102Z" fill="white"/>
<path d="M17.3336 2.66174H16.0027C15.5619 2.66174 15.2042 3.01941 15.2042 3.46025C15.2042 3.9011 15.5619 4.25876 16.0027 4.25876H17.3336C17.7749 4.25876 18.1321 3.9011 18.1321 3.46025C18.1321 3.01941 17.7749 2.66174 17.3336 2.66174Z" fill="white"/>
</g>
<defs>
<clipPath id="clip0_93_1266">
<rect width="60" height="60" fill="white"/>
</clipPath>
</defs>
</svg>
