<svg width="60" height="60" viewBox="0 0 60 60" fill="none" xmlns="http://www.w3.org/2000/svg">
<path d="M57.0117 53.4375H56.4258V26.8945C56.4258 26.6614 56.3332 26.4379 56.1684 26.2731C56.0035 26.1082 55.78 26.0156 55.5469 26.0156C55.3138 26.0156 55.0902 26.1082 54.9254 26.2731C54.7606 26.4379 54.668 26.6614 54.668 26.8945V53.4375H45.8789V20.332C45.8789 20.2543 45.9098 20.1798 45.9647 20.1249C46.0197 20.0699 46.0942 20.0391 46.1719 20.0391H54.375C54.4527 20.0391 54.5272 20.0699 54.5822 20.1249C54.6371 20.1798 54.668 20.2543 54.668 20.332V23.3789C54.668 23.612 54.7606 23.8356 54.9254 24.0004C55.0902 24.1652 55.3138 24.2578 55.5469 24.2578C55.78 24.2578 56.0035 24.1652 56.1684 24.0004C56.3332 23.8356 56.4258 23.612 56.4258 23.3789V20.332C56.4252 19.7883 56.2089 19.2671 55.8244 18.8826C55.44 18.4981 54.9187 18.2819 54.375 18.2812H46.1719C45.6282 18.2819 45.1069 18.4981 44.7224 18.8826C44.338 19.2671 44.1217 19.7883 44.1211 20.332V53.4375H42.9102V30.8789C42.9096 30.3352 42.6933 29.8139 42.3088 29.4295C41.9244 29.045 41.4031 28.8287 40.8594 28.8281H32.6563C32.1126 28.8287 31.5913 29.045 31.2068 29.4294C30.8223 29.8139 30.6061 30.3352 30.6055 30.8789V53.4375H29.3945V25.0195C29.3939 24.4758 29.1777 23.9545 28.7932 23.5701C28.4087 23.1856 27.8874 22.9693 27.3437 22.9688H19.1406C18.5969 22.9694 18.0756 23.1856 17.6911 23.5701C17.3067 23.9546 17.0904 24.4758 17.0898 25.0195V53.4375H15.8789V40.2539C15.8783 39.7102 15.662 39.189 15.2775 38.8045C14.8931 38.42 14.3718 38.2038 13.8281 38.2031H5.625C5.0813 38.2038 4.56005 38.42 4.1756 38.8045C3.79114 39.189 3.57487 39.7102 3.57422 40.2539V51.6211C3.57422 51.8542 3.66682 52.0777 3.83164 52.2426C3.99647 52.4074 4.22002 52.5 4.45312 52.5C4.68623 52.5 4.90978 52.4074 5.07461 52.2426C5.23943 52.0777 5.33203 51.8542 5.33203 51.6211V40.2539C5.33203 40.1762 5.3629 40.1017 5.41784 40.0467C5.47278 39.9918 5.5473 39.9609 5.625 39.9609H13.8281C13.9058 39.9609 13.9803 39.9918 14.0353 40.0467C14.0902 40.1017 14.1211 40.1762 14.1211 40.2539V53.4375H2.98828C2.75518 53.4375 2.53163 53.5301 2.3668 53.6949C2.20197 53.8598 2.10938 54.0833 2.10938 54.3164C2.10938 54.5495 2.20197 54.7731 2.3668 54.9379C2.53163 55.1027 2.75518 55.1953 2.98828 55.1953H57.0117C57.2448 55.1953 57.4684 55.1027 57.6332 54.9379C57.798 54.7731 57.8906 54.5495 57.8906 54.3164C57.8906 54.0833 57.798 53.8598 57.6332 53.6949C57.4684 53.5301 57.2448 53.4375 57.0117 53.4375ZM18.8476 53.4375V25.0195C18.8476 24.9418 18.8785 24.8673 18.9334 24.8124C18.9884 24.7574 19.0629 24.7266 19.1406 24.7266H27.3437C27.4214 24.7266 27.4959 24.7574 27.5509 24.8124C27.6058 24.8673 27.6367 24.9418 27.6367 25.0195V53.4375H18.8476ZM32.3633 53.4375V30.8789C32.3633 30.8012 32.3942 30.7267 32.4491 30.6717C32.5041 30.6168 32.5786 30.5859 32.6563 30.5859H40.8594C40.9371 30.5859 41.0116 30.6168 41.0666 30.6717C41.1215 30.7267 41.1524 30.8012 41.1524 30.8789V53.4375H32.3633Z" fill="white"/>
<path d="M50.2734 4.80469C49.7151 4.80458 49.1663 4.94956 48.6809 5.22542C48.1955 5.50128 47.7901 5.89856 47.5045 6.37829C47.2188 6.85802 47.0628 7.40374 47.0516 7.96196C47.0404 8.52017 47.1745 9.07171 47.4407 9.5625L39.0916 16.355C38.7792 16.0254 38.4004 15.7656 37.9803 15.5929C37.5602 15.4201 37.1083 15.3383 36.6543 15.3529C36.2003 15.3674 35.7545 15.4779 35.3463 15.6772C34.9381 15.8764 34.5767 16.1599 34.286 16.5089L26.4637 12.7563C26.4637 12.7424 26.4648 12.7286 26.4648 12.7145C26.4653 12.2206 26.3522 11.7333 26.1344 11.29C25.9166 10.8468 25.5999 10.4596 25.2086 10.1582C24.8173 9.85686 24.3621 9.64946 23.8779 9.55203C23.3937 9.45461 22.8937 9.46976 22.4163 9.59631C21.9389 9.72286 21.497 9.95744 21.1247 10.2819C20.7524 10.6064 20.4597 11.0121 20.2691 11.4677C20.0785 11.9233 19.9952 12.4166 20.0256 12.9096C20.056 13.4025 20.1992 13.8818 20.4443 14.3106L10.9227 24.9577C10.1997 24.6678 9.39625 24.6491 8.66058 24.9051C7.92492 25.1612 7.30667 25.6746 6.91989 26.3508C6.53312 27.0269 6.40391 27.8201 6.55612 28.584C6.70832 29.348 7.13167 30.0311 7.74805 30.5074C8.36443 30.9836 9.13226 31.2209 9.90987 31.1755C10.6875 31.13 11.4224 30.8048 11.9791 30.26C12.5358 29.7151 12.8766 28.9873 12.9388 28.2109C13.0009 27.4344 12.7801 26.6617 12.3172 26.0352L21.6999 15.5437C22.4141 15.9338 23.2495 16.0388 24.0379 15.8376C24.8264 15.6365 25.5094 15.1441 25.9494 14.4596L33.5683 18.1146C33.5012 18.5791 33.5363 19.0526 33.6712 19.5021C33.806 19.9515 34.0375 20.3661 34.3492 20.7169C34.661 21.0676 35.0456 21.346 35.4762 21.5327C35.9068 21.7193 36.3729 21.8096 36.8421 21.7974C37.3112 21.7851 37.772 21.6705 38.1922 21.4616C38.6124 21.2528 38.982 20.9546 39.275 20.5881C39.5681 20.2215 39.7775 19.7954 39.8887 19.3395C39.9999 18.8836 40.0102 18.4089 39.9189 17.9486L48.6756 10.8243C49.1042 11.0691 49.5833 11.2122 50.076 11.2425C50.5686 11.2728 51.0617 11.1895 51.5171 10.9991C51.9724 10.8086 52.378 10.516 52.7023 10.144C53.0267 9.77195 53.2613 9.33034 53.3879 8.85326C53.5145 8.37618 53.5299 7.87638 53.4327 7.39243C53.3356 6.90849 53.1285 6.45334 52.8275 6.0621C52.5266 5.67087 52.1397 5.35402 51.6969 5.136C51.254 4.91798 50.767 4.80463 50.2734 4.80469ZM9.72655 29.4141C9.43683 29.4141 9.15362 29.3282 8.91272 29.1672C8.67183 29.0062 8.48408 28.7775 8.37321 28.5098C8.26234 28.2421 8.23333 27.9476 8.28985 27.6634C8.34637 27.3793 8.48588 27.1183 8.69075 26.9134C8.89561 26.7086 9.15662 26.569 9.44077 26.5125C9.72492 26.456 10.0195 26.485 10.2871 26.5959C10.5548 26.7068 10.7836 26.8945 10.9445 27.1354C11.1055 27.3763 11.1914 27.6595 11.1914 27.9492C11.191 28.3376 11.0365 28.7099 10.7619 28.9845C10.4873 29.2592 10.1149 29.4136 9.72655 29.4141ZM23.2421 14.1797C22.9524 14.1797 22.6692 14.0938 22.4283 13.9328C22.1874 13.7719 21.9997 13.5431 21.8888 13.2754C21.7779 13.0078 21.7489 12.7132 21.8054 12.4291C21.862 12.1449 22.0015 11.8839 22.2063 11.679C22.4112 11.4742 22.6722 11.3347 22.9564 11.2781C23.2405 11.2216 23.535 11.2506 23.8027 11.3615C24.0704 11.4724 24.2991 11.6601 24.4601 11.901C24.6211 12.1419 24.707 12.4251 24.707 12.7148C24.7065 13.1032 24.5521 13.4755 24.2775 13.7502C24.0028 14.0248 23.6305 14.1793 23.2421 14.1797ZM36.7578 20.0391C36.4681 20.0391 36.1849 19.9532 35.944 19.7922C35.7031 19.6312 35.5154 19.4025 35.4045 19.1348C35.2936 18.8671 35.2646 18.5726 35.3211 18.2884C35.3777 18.0043 35.5172 17.7433 35.722 17.5384C35.9269 17.3336 36.1879 17.194 36.4721 17.1375C36.7562 17.081 37.0507 17.11 37.3184 17.2209C37.5861 17.3317 37.8148 17.5195 37.9758 17.7604C38.1368 18.0013 38.2227 18.2845 38.2227 18.5742C38.2222 18.9626 38.0678 19.3349 37.7932 19.6095C37.5185 19.8842 37.1462 20.0386 36.7578 20.0391ZM50.2734 9.49219C49.9837 9.49219 49.7005 9.40628 49.4596 9.24532C49.2187 9.08436 49.031 8.85558 48.9201 8.58792C48.8092 8.32025 48.7802 8.02572 48.8367 7.74157C48.8932 7.45742 49.0328 7.1964 49.2376 6.99154C49.4425 6.78668 49.7035 6.64717 49.9876 6.59065C50.2718 6.53413 50.5663 6.56313 50.834 6.674C51.1017 6.78488 51.3304 6.97263 51.4914 7.21352C51.6524 7.45441 51.7383 7.73763 51.7383 8.02734C51.7378 8.41571 51.5834 8.78805 51.3087 9.06266C51.0341 9.33728 50.6618 9.49175 50.2734 9.49219Z" fill="white"/>
</svg>
