<svg width="128" height="128" viewBox="0 0 128 128" fill="none" xmlns="http://www.w3.org/2000/svg">
<path d="M30 3.99756C24.6944 3.99756 19.5163 5.62145 15.1601 8.64976C12.892 10.1561 15.2372 13.534 17.4414 11.9349C21.1278 9.37226 25.5104 7.99739 30 7.99739C42.1739 7.99739 52 17.8236 52 29.9975C52 42.1714 42.1739 51.9974 30 51.9974C17.826 51.9974 7.99994 42.1714 7.99994 29.9975C7.99994 25.5066 9.37342 21.1219 11.9375 17.4349C13.5359 15.2311 10.1587 12.8861 8.65229 15.1537C5.62231 19.5107 3.99991 24.6905 3.99991 29.9975C3.99991 44.3332 15.6642 55.9974 30 55.9974C44.3357 55.9974 56 44.3332 56 29.9975C56 15.6617 44.3357 3.99756 30 3.99756ZM30 11.9739C28.9997 11.9739 27.9999 12.6399 27.9999 13.974V16.2748C24.5675 17.1724 22.0078 20.2902 22.0078 23.9935C22.0078 28.3881 25.5975 31.9936 29.9921 31.9936C32.225 31.9936 33.9922 33.7606 33.9922 35.9934C33.9922 38.2264 32.225 39.9974 29.9921 39.9974C27.7593 39.9974 26.0077 38.2264 26.0077 35.9934C26.0682 33.2663 21.9466 33.2663 22.0078 35.9934C22.0078 39.6968 24.5675 42.8147 27.9999 43.7124V45.9897C27.9999 48.657 32 48.657 32 45.9897V43.7084C35.4284 42.8057 37.9961 39.6915 37.9961 35.9934C37.9961 31.5989 34.3867 27.9935 29.9921 27.9935C27.7593 27.9935 26.0077 26.2264 26.0077 23.9935C26.0077 21.7606 27.7593 19.9895 29.9921 19.9895C32.225 19.9895 33.9922 21.7606 33.9922 23.9935C33.9922 26.6628 37.9961 26.6628 37.9961 23.9935C37.9961 20.2955 35.4284 17.1814 32 16.2787V13.974C32 12.6403 31.0002 11.9739 30 11.9739ZM97.9961 15.9897H109.438C104.61 22.1018 65.1323 69.9974 11.996 69.9974C9.26949 69.9369 9.26949 74.058 11.996 73.9975C65.1762 73.9975 104.429 28.6271 112.008 19.2123V30.0014C112.068 32.6088 115.949 32.6088 116.008 30.0014V13.9975C116.004 12.893 115.105 12.0011 114 12.0053H97.9004C95.3512 12.3107 95.5244 15.9213 97.9961 15.9897ZM5.99996 124.001H122C124.726 124.062 124.726 119.941 122 120.001H116.008V69.9974C116.023 68.8692 115.097 67.9528 113.969 67.9739C112.87 67.9965 111.995 68.8981 112.008 69.9974V120.001H100.004V56.0014H112.008V61.9936C112.008 64.6609 116.008 64.6609 116.008 61.9936V53.9935C116.004 52.8886 115.105 51.9971 114 52.0013H97.9961C96.897 52.0053 96.0039 52.8943 96.0001 53.9935V120.001H88V69.9974C87.996 68.8989 87.1063 68.0096 86.0078 68.0052H69.9004C68.7738 68.108 67.9951 68.9692 67.9961 69.9974V120.001H59.9922V86.0014C59.9962 84.8968 59.1045 83.9979 58 83.9935H41.9961C40.8915 83.9975 39.9997 84.8968 40.0039 86.0014V120.001H32V102.005C32.004 100.895 31.1028 99.9932 29.9921 99.9974H14.0038C12.8932 99.9934 11.9918 100.895 11.996 102.005V120.001H5.89837C3.19672 120.196 3.39378 124.071 5.99996 124.001ZM71.9961 72.0053H84.0001V120.001H71.9961V72.0053ZM44.0039 87.9935H56.0078V120.001H44.0039V87.9935ZM15.9961 103.997H27.9999V120.001H15.9961V103.997Z" fill="white"/>
</svg>
