<svg width="54" height="58" viewBox="0 0 54 58" fill="none" xmlns="http://www.w3.org/2000/svg">
<path fill-rule="evenodd" clip-rule="evenodd" d="M18.25 47.5363V49C18.25 50.6325 19.2937 52.0225 20.75 52.5363V54C20.75 56.0713 22.4288 57.75 24.5 57.75H29.5C31.5712 57.75 33.25 56.0713 33.25 54V52.5363C34.7062 52.0225 35.75 50.6325 35.75 49V47.5363C37.2062 47.0225 38.25 45.6325 38.25 44C38.25 43.35 38.25 42.6763 38.2675 42.125C38.2675 42.1125 38.2675 42.0987 38.2675 42.0862C38.2675 41.7062 38.4425 41.3475 38.7425 41.1138C38.7475 41.11 38.7538 41.105 38.7588 41.1012C43.0213 37.6637 45.75 32.3975 45.75 26.5C45.75 16.1512 37.3488 7.75 27 7.75C16.6512 7.75 8.25 16.1512 8.25 26.5C8.25 32.3975 10.9775 37.6625 15.2537 41.0813C15.2587 41.085 15.2625 41.0888 15.2675 41.0925C15.5713 41.3288 15.75 41.6925 15.75 42.0788V44C15.75 45.6325 16.7937 47.0225 18.25 47.5363ZM30.75 52.75V54C30.75 54.69 30.19 55.25 29.5 55.25H24.5C23.81 55.25 23.25 54.69 23.25 54V52.75H30.75ZM33.25 47.75V49C33.25 49.69 32.69 50.25 32 50.25H22C21.31 50.25 20.75 49.69 20.75 49V47.75H33.25ZM18.25 44V42.0775C18.25 40.925 17.7187 39.8363 16.8112 39.1263C13.11 36.165 10.75 31.6063 10.75 26.5C10.75 17.5312 18.0312 10.25 27 10.25C35.9688 10.25 43.25 17.5312 43.25 26.5C43.25 31.6063 40.8888 36.165 37.2013 39.145C36.2988 39.855 35.7738 40.9288 35.7675 42.0675C35.75 42.635 35.75 43.33 35.75 44C35.75 44.69 35.19 45.25 34.5 45.25H19.5C18.81 45.25 18.25 44.69 18.25 44Z" fill="white"/>
<path fill-rule="evenodd" clip-rule="evenodd" d="M2 27.75H4.5C5.19 27.75 5.75 27.19 5.75 26.5C5.75 25.81 5.19 25.25 4.5 25.25H2C1.31 25.25 0.75 25.81 0.75 26.5C0.75 27.19 1.31 27.75 2 27.75Z" fill="white"/>
<path fill-rule="evenodd" clip-rule="evenodd" d="M5.96373 40.0713L8.12873 38.8212C8.72627 38.4762 8.93123 37.7113 8.58623 37.1137C8.24123 36.5162 7.47627 36.3112 6.87873 36.6562L4.71373 37.9062C4.11619 38.2512 3.91123 39.0162 4.25623 39.6138C4.60123 40.2113 5.36619 40.4163 5.96373 40.0713Z" fill="white"/>
<path fill-rule="evenodd" clip-rule="evenodd" d="M49.2863 37.9287L47.1213 36.6787C46.5237 36.3337 45.7588 36.5387 45.4138 37.1362C45.0688 37.7338 45.2737 38.4987 45.8713 38.8437L48.0363 40.0937C48.6338 40.4387 49.3988 40.2338 49.7438 39.6362C50.0888 39.0387 49.8838 38.2737 49.2863 37.9287Z" fill="white"/>
<path fill-rule="evenodd" clip-rule="evenodd" d="M49.5 27.75H52C52.69 27.75 53.25 27.19 53.25 26.5C53.25 25.81 52.69 25.25 52 25.25H49.5C48.81 25.25 48.25 25.81 48.25 26.5C48.25 27.19 48.81 27.75 49.5 27.75Z" fill="white"/>
<path fill-rule="evenodd" clip-rule="evenodd" d="M47.0987 16.3213L49.2637 15.0712C49.8613 14.7262 50.0662 13.9613 49.7212 13.3637C49.3762 12.7662 48.6113 12.5612 48.0137 12.9062L45.8487 14.1562C45.2512 14.5012 45.0462 15.2662 45.3912 15.8638C45.7362 16.4613 46.5012 16.6663 47.0987 16.3213Z" fill="white"/>
<path fill-rule="evenodd" clip-rule="evenodd" d="M39.3213 7.65126L40.5713 5.48626C40.9163 4.88872 40.7113 4.12376 40.1138 3.77876C39.5162 3.43376 38.7513 3.63872 38.4063 4.23626L37.1563 6.40126C36.8113 6.9988 37.0162 7.76376 37.6138 8.10876C38.2113 8.45376 38.9763 8.2488 39.3213 7.65126Z" fill="white"/>
<path fill-rule="evenodd" clip-rule="evenodd" d="M28.25 4V1.5C28.25 0.809999 27.69 0.25 27 0.25C26.31 0.25 25.75 0.809999 25.75 1.5V4C25.75 4.69 26.31 5.25 27 5.25C27.69 5.25 28.25 4.69 28.25 4Z" fill="white"/>
<path fill-rule="evenodd" clip-rule="evenodd" d="M16.8213 6.40126L15.5712 4.23626C15.2262 3.63872 14.4613 3.43376 13.8637 3.77876C13.2662 4.12376 13.0612 4.88872 13.4062 5.48626L14.6562 7.65126C15.0012 8.2488 15.7662 8.45376 16.3638 8.10876C16.9613 7.76376 17.1663 6.9988 16.8213 6.40126Z" fill="white"/>
<path fill-rule="evenodd" clip-rule="evenodd" d="M8.15126 14.1787L5.98626 12.9287C5.38872 12.5837 4.62376 12.7887 4.27876 13.3862C3.93376 13.9838 4.13872 14.7487 4.73626 15.0937L6.90126 16.3437C7.4988 16.6887 8.26376 16.4838 8.60876 15.8862C8.95376 15.2887 8.7488 14.5237 8.15126 14.1787Z" fill="white"/>
<path fill-rule="evenodd" clip-rule="evenodd" d="M16.8488 31.6513L21.8488 36.6513C23.3125 38.1163 25.6875 38.1163 27.1513 36.6513L37.1513 26.6513C38.615 25.1888 38.615 22.8113 37.1513 21.3488C35.6888 19.885 33.3113 19.885 31.8488 21.3488L24.5 28.6963L22.1513 26.3488C20.6888 24.885 18.3113 24.885 16.8488 26.3488C15.385 27.8113 15.385 30.1888 16.8488 31.6513ZM18.6163 29.8838C18.1288 29.3963 18.1288 28.6038 18.6163 28.1163C19.1038 27.6288 19.8963 27.6288 20.3838 28.1163L23.6163 31.3488C24.1038 31.8363 24.8963 31.8363 25.3838 31.3488L33.6163 23.1163C34.1038 22.6288 34.8963 22.6288 35.3838 23.1163C35.8713 23.6038 35.8713 24.3963 35.3838 24.8838L25.3838 34.8838C24.8963 35.3725 24.1038 35.3725 23.6163 34.8838L18.6163 29.8838Z" fill="white"/>
</svg>
