<svg width="60" height="56" viewBox="0 0 60 56" fill="none" xmlns="http://www.w3.org/2000/svg">
<path d="M16.8279 32.2064C16.8279 32.6918 17.2213 33.0853 17.7068 33.0853H23.2329C22.8639 34.1452 21.8606 34.9077 20.6831 34.9077H18.8583C18.3028 34.9077 17.8077 35.2185 17.566 35.7188C17.3245 36.219 17.3891 36.7999 17.7347 37.2349L23.1006 43.9899C23.2741 44.2083 23.5305 44.3222 23.7894 44.3222C23.981 44.3222 24.1739 44.2599 24.3355 44.1314C24.7155 43.8295 24.7789 43.2765 24.4771 42.8965L19.5274 36.6656H20.6831C22.8362 36.6656 24.6376 35.1258 25.0523 33.0854H26.5926C27.0782 33.0854 27.4716 32.6919 27.4716 32.2065C27.4716 31.7211 27.0782 31.3276 26.5926 31.3276H25.0733C24.9557 30.6665 24.6881 30.0451 24.2857 29.5052H26.5928C27.0783 29.5052 27.4717 29.1117 27.4717 28.6263C27.4717 28.1409 27.0783 27.7474 26.5928 27.7474L17.7069 27.7473C17.2214 27.7473 16.828 28.1408 16.828 28.6262C16.828 29.1116 17.2214 29.5051 17.7069 29.5051H19.6025L19.6048 29.5052H20.7923C21.4844 29.5058 22.1351 29.7755 22.6246 30.2649C22.9268 30.567 23.1445 30.9308 23.2676 31.3277H17.7068C17.2213 31.3275 16.8279 31.721 16.8279 32.2064Z" fill="white"/>
<path d="M59.5023 49.7321L55.2423 42.3536C54.9996 41.9332 54.4618 41.7891 54.0417 42.0319C53.6214 42.2746 53.4773 42.8122 53.72 43.2325L57.98 50.6109C58.521 51.548 58.1987 52.7506 57.2617 53.2917C56.3246 53.8325 55.122 53.5105 54.581 52.5733L46.9078 39.2831C46.6458 38.8291 46.5762 38.3003 46.7118 37.794C46.8475 37.2877 47.1722 36.8644 47.6262 36.6024C48.0799 36.3404 48.6086 36.2705 49.1153 36.4064C49.6215 36.5421 50.0448 36.8668 50.3068 37.3207L51.6691 39.6805C51.9117 40.1009 52.4491 40.2448 52.8697 40.0021C53.2901 39.7594 53.4341 39.2219 53.1914 38.8016L51.8291 36.4417C51.3323 35.5811 50.53 34.9655 49.5701 34.7084C48.6101 34.4513 47.6078 34.5832 46.7471 35.08C45.8865 35.5768 45.2709 36.3791 45.0138 37.3389C44.7566 38.2988 44.8886 39.3014 45.3854 40.1619L46.5561 42.1896H44.2854C44.0916 39.0049 41.5657 33.8973 36.767 26.9932C34.2934 23.4343 31.7987 20.2503 30.4241 18.5395C31.2768 18.3004 31.9852 17.7144 32.387 16.9434C34.3697 17.1881 35.9501 19.0715 36.5409 20.9691C36.6611 21.3542 36.7685 21.7437 36.8824 22.1561C37.3205 23.7437 37.7736 25.3853 38.9493 26.6835C39.1227 26.8751 39.3615 26.9724 39.6011 26.9724C39.8115 26.9724 40.0226 26.8973 40.1907 26.7449C40.5505 26.4192 40.5782 25.8632 40.2523 25.5035C39.357 24.5149 38.978 23.1419 38.5768 21.6884C38.4642 21.2804 38.3477 20.8585 38.2192 20.4462C37.7712 19.0071 36.9361 17.6899 35.8678 16.7373C34.9228 15.8944 33.8555 15.3796 32.734 15.2162C32.6916 14.7011 32.5262 14.2205 32.2668 13.8041C33.5414 13.0331 34.749 12.9144 35.937 13.4429C36.4702 13.6805 36.9758 14.0449 37.5114 14.4308C38.4056 15.0751 39.3304 15.7414 40.5296 15.9296C40.5759 15.9369 40.6218 15.9404 40.667 15.9404C41.0924 15.9404 41.4662 15.631 41.5343 15.1975C41.6096 14.718 41.2819 14.2682 40.8023 14.193C40.0175 14.0698 39.2994 13.5523 38.539 13.0045C37.955 12.5837 37.3511 12.1485 36.6523 11.8371C34.792 11.0092 32.8146 11.2735 30.9016 12.5954C30.6248 12.4668 30.3267 12.3768 30.0138 12.3326C30.4822 11.7768 30.9214 11.1549 31.3187 10.4798C31.5424 10.0987 31.7429 9.71784 31.9146 9.34788C32.119 8.90761 31.9276 8.38495 31.4873 8.18057C31.0472 7.97632 30.5245 8.16757 30.3202 8.60784C30.172 8.92694 29.998 9.25729 29.8032 9.58917C29.153 10.6944 28.3859 11.6253 27.5728 12.3007H25.4187C25.5273 11.913 25.6297 11.4966 25.7249 11.0516C25.9171 10.1508 26.048 9.28413 26.1139 8.47518C26.1536 7.99132 25.7934 7.5671 25.3096 7.52761C24.8269 7.48718 24.4017 7.84823 24.3621 8.33198C24.302 9.06593 24.1822 9.85753 24.0057 10.6845C23.8789 11.2782 23.7355 11.8252 23.5837 12.3005H20.7159C20.5652 11.8285 20.4219 11.2816 20.2944 10.6846C20.1172 9.85448 19.9979 9.06335 19.9396 8.33339C19.9008 7.84952 19.479 7.4887 18.9933 7.52737C18.5094 7.56616 18.1486 7.98968 18.1873 8.47354C18.2518 9.27944 18.3824 10.1467 18.5755 11.0517C18.6709 11.498 18.7732 11.9142 18.8814 12.3004H16.7263C15.9131 11.625 15.1461 10.694 14.4962 9.58929C12.8917 6.85929 12.9277 4.6387 14.6006 3.16718C15.177 2.6594 16.0764 2.06632 17.2263 2.7719C18.3389 3.45335 19.6322 3.48839 20.6858 2.866C21.6253 2.31147 22.6733 2.31077 23.6135 2.86589C24.667 3.48815 25.9608 3.45311 27.0751 2.77155C27.625 2.43382 28.4959 2.10757 29.6999 3.16694C30.336 3.72757 30.74 4.39975 30.9011 5.16487C31.001 5.63995 31.4668 5.94382 31.942 5.84397C32.4171 5.74401 32.7212 5.27796 32.6211 4.80288C32.3804 3.6589 31.7886 2.66479 30.8616 1.84776C29.3667 0.532567 27.6955 0.328426 26.1568 1.27272C25.5996 1.61339 24.9986 1.64233 24.5075 1.35241C23.7632 0.912841 22.9703 0.690067 22.1504 0.690067C21.3301 0.690067 20.5366 0.912841 19.7921 1.35241C19.3011 1.64233 18.7008 1.61362 18.1453 1.27331C16.6046 0.327958 14.9332 0.531981 13.4394 1.84765C12.3537 2.80272 11.7121 4.04245 11.5842 5.433C11.4431 6.96511 11.9132 8.66315 12.9812 10.4804C13.3781 11.1551 13.8172 11.7768 14.2856 12.3325C12.7439 12.5506 11.5541 13.8781 11.5541 15.479C11.5541 16.9345 12.5378 18.1638 13.875 18.539C13.0311 19.589 11.7667 21.1918 10.3505 23.0882C10.06 23.4772 10.1398 24.028 10.5287 24.3183C10.6867 24.4362 10.8711 24.4931 11.0541 24.4931C11.3218 24.4931 11.5863 24.3711 11.7589 24.14C13.7411 21.4859 15.4194 19.4167 16.043 18.6575H28.2571C29.1574 19.7541 32.2563 23.5823 35.3242 27.9962C40.9141 36.0387 42.3654 40.1308 42.5259 42.1893H31.4321C29.3811 42.1893 27.7125 43.8584 27.7125 45.9101C27.7125 47.0483 28.2268 48.068 29.0346 48.7509C28.2265 49.4339 27.712 50.454 27.712 51.5925C27.712 52.3122 27.9182 52.9844 28.2735 53.5544H11.787C9.58102 53.5544 7.03277 52.1936 5.48566 50.8451C3.78504 49.363 1.75781 46.7251 1.75781 42.5774C1.75781 40.6113 3.07137 36.3979 9.32906 27.4906C9.60809 27.0933 9.51234 26.5451 9.1152 26.2662C8.71781 25.9872 8.16973 26.083 7.89082 26.4801C2.65488 33.933 0 39.3489 0 42.5774C0 47.386 2.355 50.4482 4.33066 52.1705C6.52031 54.0792 9.44707 55.3126 11.787 55.3126L46.7781 55.3129C48.8293 55.3129 50.4983 53.6441 50.4983 51.5927C50.4983 50.4543 49.9839 49.4342 49.1757 48.7512C49.4482 48.521 49.687 48.2526 49.8843 47.954L53.0586 53.4523C53.7469 54.6445 55 55.3117 56.2867 55.3117C56.9174 55.3117 57.5562 55.1514 58.1406 54.8141C59.917 53.7884 60.5279 51.5087 59.5023 49.7321ZM13.3114 15.4794C13.3114 14.696 13.9488 14.0587 14.7321 14.0587H29.5671C30.3505 14.0587 30.9878 14.6961 30.9878 15.4794C30.9878 16.2628 30.3504 16.9 29.5671 16.9H14.7321C13.9488 16.9 13.3114 16.2626 13.3114 15.4794ZM48.7404 51.5927C48.7404 52.6748 47.8601 53.555 46.7781 53.555H32.5199C32.5172 53.555 32.5146 53.5546 32.5119 53.5546H31.4238C30.3455 53.5503 29.4693 52.6721 29.4693 51.5927C29.4693 50.5105 30.3496 49.6301 31.4316 49.6301H46.7777C47.8601 49.6301 48.7404 50.5106 48.7404 51.5927ZM46.7777 47.8723H31.4316C30.3497 47.8723 29.4696 46.9923 29.4696 45.9104C29.4696 44.828 30.3497 43.9475 31.4314 43.9475H46.7775C47.1046 43.9475 47.4218 44.0287 47.7063 44.1819L48.7376 45.968C48.7066 47.023 47.8406 47.8723 46.7777 47.8723Z" fill="white"/>
</svg>
