<svg width="175" height="64" viewBox="0 0 175 64" fill="none" xmlns="http://www.w3.org/2000/svg">
<path d="M45.0617 57.9249C45.3974 57.9249 45.6268 58.2503 45.5309 58.5714C45.0679 60.1417 44.3005 61.372 43.2286 62.2646C41.9774 63.2656 40.4968 63.766 38.7889 63.766C37.2416 63.7285 35.9528 63.3385 34.9185 62.5962C33.8654 61.8809 33.1021 61.0551 32.6246 60.1167C32.4807 59.8101 32.3493 59.5182 32.2325 59.2387C32.1241 58.9509 32.0344 58.5881 31.9635 58.1522C31.828 57.3348 31.7612 55.7666 31.7612 53.4435C31.7612 51.1204 31.828 49.5063 31.9635 48.7076C32.1074 47.909 32.3285 47.2646 32.6246 46.7704C33.1021 45.8319 33.8654 44.9957 34.9185 44.2637C35.9528 43.5214 37.2436 43.1397 38.791 43.121C40.6887 43.1397 42.236 43.7195 43.433 44.8602C44.4778 45.8653 45.1868 47.0769 45.5601 48.4991C45.6435 48.8161 45.412 49.1289 45.0846 49.1289H42.8908C42.6802 49.1289 42.5029 48.9913 42.4279 48.7952C42.1714 48.1196 41.7668 47.5315 41.2163 47.0352C40.5489 46.4867 39.7398 46.2031 38.7847 46.1844C38.082 46.2031 37.4793 46.347 36.9746 46.616C36.4616 46.8955 36.0467 47.2437 35.7318 47.6629C35.3439 48.1008 35.0874 48.6639 34.9623 49.352C34.8184 50.0777 34.7454 51.4416 34.7454 53.4414C34.7454 55.4413 34.8184 56.7968 34.9623 57.5037C35.0874 58.2106 35.346 58.7841 35.7339 59.22C36.0487 59.6391 36.4637 59.979 36.9767 60.2397C37.4814 60.5462 38.0861 60.7006 38.7889 60.7006C40.3779 60.7006 41.5875 59.8685 42.4153 58.2044C42.4988 58.0355 42.6677 57.9229 42.8574 57.9229H45.07L45.0617 57.9249Z" fill="#947D5C"/>
<path d="M68.3721 43.9489C68.3721 43.6757 68.5931 43.4568 68.8642 43.4568H75.5019C76.2756 43.4568 77.0242 43.5319 77.7437 43.6799C78.4631 43.8759 79.193 44.2742 79.9312 44.8769C80.5506 45.3315 81.0532 45.9822 81.441 46.8267C81.8456 47.6442 82.0479 48.6097 82.0479 49.7233C82.0479 51.2268 81.5349 52.5969 80.5089 53.8315C79.4558 55.1306 77.9147 55.8 75.8898 55.8376H71.8442C71.571 55.8376 71.3521 56.0586 71.3521 56.3297V63.2719C71.3521 63.5451 71.131 63.764 70.8599 63.764H68.8684C68.5952 63.764 68.3762 63.543 68.3762 63.2719V43.9468L68.3721 43.9489ZM71.35 52.4509C71.35 52.7241 71.571 52.9431 71.8421 52.9431H75.7709C76.8804 52.9243 77.7124 52.5698 78.2713 51.8796C78.8031 51.2081 79.07 50.4615 79.07 49.6399C79.07 48.958 78.9615 48.3845 78.7447 47.9174C78.5194 47.4982 78.2045 47.1666 77.7979 46.9247C77.1848 46.5244 76.4737 46.3325 75.6625 46.3513H71.8421C71.5689 46.3513 71.35 46.5723 71.35 46.8434V52.4489V52.4509Z" fill="#947D5C"/>
<path d="M87.1152 43.4546H89.1067C89.3799 43.4546 89.5989 43.6756 89.5989 43.9467V63.2718C89.5989 63.545 89.3778 63.7639 89.1067 63.7639H87.1152C86.842 63.7639 86.623 63.5429 86.623 63.2718V43.9467C86.623 43.6735 86.8441 43.4546 87.1152 43.4546Z" fill="#947D5C"/>
<path d="M100.252 46.1844H95.8457C95.5725 46.1844 95.3535 45.9634 95.3535 45.6923V43.9489C95.3535 43.6757 95.5746 43.4568 95.8457 43.4568H108.625C108.898 43.4568 109.117 43.6778 109.117 43.9489V45.6923C109.117 45.9655 108.896 46.1844 108.625 46.1844H104.216C103.943 46.1844 103.724 46.4055 103.724 46.6766V63.2719C103.724 63.5451 103.503 63.764 103.232 63.764H101.24C100.967 63.764 100.748 63.543 100.748 63.2719V46.6766C100.748 46.4034 100.527 46.1844 100.256 46.1844H100.252Z" fill="#947D5C"/>
<path d="M131.159 43.4546H133.15C133.424 43.4546 133.643 43.6756 133.643 43.9467V60.3752C133.643 60.6484 133.864 60.8674 134.135 60.8674H142.737C143.01 60.8674 143.229 61.0884 143.229 61.3595V63.2697C143.229 63.5429 143.008 63.7618 142.737 63.7618H131.155C130.882 63.7618 130.663 63.5408 130.663 63.2697V43.9447C130.663 43.6715 130.884 43.4525 131.155 43.4525L131.159 43.4546Z" fill="#947D5C"/>
<path d="M64.1601 63.1091L57.3577 43.7841C57.2889 43.586 57.1012 43.4546 56.8926 43.4546H55.0951C54.8865 43.4546 54.6989 43.586 54.63 43.7841L47.8276 63.1091C47.715 63.4303 47.9527 63.766 48.2926 63.766H50.3988C50.6115 63.766 50.7992 63.6305 50.866 63.4282L53.335 55.8521L55.9751 47.6107H56.0293L59.8393 59.5598L61.1384 63.4303C61.2052 63.6305 61.395 63.766 61.6056 63.766H63.6993C64.0392 63.766 64.2769 63.4303 64.1643 63.1091H64.1601Z" fill="#947D5C"/>
<path d="M125.41 63.1091L118.607 43.7841C118.538 43.586 118.351 43.4546 118.142 43.4546H116.345C116.136 43.4546 115.948 43.586 115.88 43.7841L109.077 63.1091C108.964 63.4303 109.202 63.766 109.542 63.766H111.648C111.861 63.766 112.049 63.6305 112.115 63.4282L114.585 55.8521L117.225 47.6107H117.279L121.089 59.5598L122.388 63.4303C122.455 63.6305 122.644 63.766 122.855 63.766H124.949C125.289 63.766 125.526 63.4303 125.414 63.1091H125.41Z" fill="#947D5C"/>
<path d="M0.736138 3.96423H3.73697C4.14779 3.96423 4.47936 4.29581 4.47936 4.70662V19.7233H4.56903L16.5473 4.25201C16.6871 4.07059 16.9039 3.96423 17.1354 3.96423H20.57C21.1894 3.96423 21.5376 4.67951 21.1539 5.1654L12.9126 15.6381C12.727 15.8758 12.7019 16.2011 12.85 16.4639L22.4698 33.4512C22.7492 33.9455 22.3926 34.5606 21.8233 34.5606H18.2115C17.9383 34.5606 17.688 34.4105 17.5587 34.1707L10.187 20.5137C9.94509 20.0653 9.33408 19.9881 8.98791 20.3635L4.68164 25.0306C4.55443 25.1682 4.48561 25.3475 4.48561 25.5331V33.8162C4.48561 34.227 4.15404 34.5586 3.74322 34.5586H0.742388C0.331572 34.5586 0 34.227 0 33.8162V4.70662C0 4.29581 0.331572 3.96423 0.742388 3.96423H0.736138Z" fill="#0A322D"/>
<path d="M65.0444 4.70662C65.0444 4.29581 65.376 3.96423 65.7868 3.96423H76.6223C79.0914 3.96423 81.1059 4.63572 82.6657 5.97869C84.5426 7.50309 85.5227 9.67812 85.604 12.5059C85.5539 16.4013 83.8732 19.129 80.5658 20.6867C80.1946 20.8619 80.0528 21.3228 80.2384 21.6898L86.1962 33.4825C86.4465 33.9767 86.0878 34.5606 85.5331 34.5606H81.8816C81.5939 34.5606 81.3311 34.3938 81.2101 34.1331L75.4775 21.9129C75.3545 21.6523 75.0938 21.4854 74.806 21.4854H70.2745C69.8637 21.4854 69.5321 21.817 69.5321 22.2278V33.8183C69.5321 34.2291 69.2005 34.5606 68.7897 34.5606H65.7889C65.3781 34.5606 65.0465 34.2291 65.0465 33.8183V4.70871L65.0444 4.70662ZM69.53 16.6328C69.53 17.0436 69.8616 17.3752 70.2724 17.3752H76.3367C78.0216 17.3481 79.2854 16.8434 80.1278 15.8612C80.9557 14.9499 81.3707 13.828 81.3707 12.4954C81.3436 10.896 80.8473 9.7386 79.8839 9.02332C79.1227 8.39146 78.0237 8.07656 76.5827 8.07656H70.2745C69.8637 8.07656 69.5321 8.40814 69.5321 8.81895V16.6328H69.53Z" fill="#0A322D"/>
<path d="M93.8585 3.96423H96.853C97.1512 3.96423 97.4203 4.14149 97.537 4.41676L105.153 22.2883C105.409 22.893 106.268 22.8889 106.521 22.2841L113.986 4.42093C114.101 4.14357 114.372 3.96423 114.672 3.96423H117.677C118.088 3.96423 118.42 4.29581 118.42 4.70662V33.8162C118.42 34.227 118.088 34.5586 117.677 34.5586H114.677C114.266 34.5586 113.934 34.227 113.934 33.8162V15.4775H113.832L107.822 29.7184C107.705 29.9937 107.436 30.173 107.138 30.173H104.381C104.083 30.173 103.814 29.9937 103.697 29.7184L97.6851 15.4775H97.6038V33.8162C97.6038 34.227 97.2722 34.5586 96.8614 34.5586H93.8606C93.4497 34.5586 93.1182 34.227 93.1182 33.8162V4.70662C93.1182 4.29581 93.4497 3.96423 93.8606 3.96423H93.8585Z" fill="#0A322D"/>
<path d="M148.175 33.5701L137.925 4.46055C137.821 4.16443 137.54 3.96423 137.225 3.96423H134.516C134.201 3.96423 133.919 4.16234 133.815 4.46055L123.566 33.5701C123.395 34.0539 123.753 34.5586 124.266 34.5586H127.438C127.757 34.5586 128.043 34.3542 128.143 34.0497L131.861 22.6366L135.84 10.2203H135.921L141.66 28.2211L143.616 34.0518C143.719 34.3542 144.002 34.5586 144.321 34.5586H147.474C147.987 34.5586 148.344 34.0518 148.175 33.5701Z" fill="#0A322D"/>
<path d="M153.527 3.96423H156.598C156.857 3.96423 157.095 4.0977 157.23 4.31666L170.433 25.7145H170.514V4.70662C170.514 4.29581 170.846 3.96423 171.256 3.96423H174.257C174.668 3.96423 175 4.29581 175 4.70662V33.8162C175 34.227 174.668 34.5586 174.257 34.5586H171.165C170.906 34.5586 170.668 34.4251 170.533 34.2061L157.349 12.8082H157.268V33.8162C157.268 34.227 156.936 34.5586 156.525 34.5586H153.525C153.114 34.5586 152.782 34.227 152.782 33.8162V4.70662C152.782 4.29581 153.114 3.96423 153.525 3.96423H153.527Z" fill="#0A322D"/>
<path d="M33.5525 12.8186C33.5525 12.8186 33.5338 12.802 33.5234 12.7937L33.5151 12.802C33.5276 12.8082 33.54 12.8144 33.5525 12.8186Z" fill="#0A322D"/>
<path d="M43.1518 33.1968C43.1017 33.2594 42.9182 33.4742 42.7994 33.5305C42.7118 33.616 42.6242 33.7015 42.5637 33.8058C42.4907 33.9288 42.4574 34.0727 42.4365 34.2145C42.4219 34.3167 42.4157 34.421 42.4136 34.5252C42.6701 34.5419 42.9266 34.5544 43.1872 34.5586C43.2832 34.2062 43.4563 33.8683 43.5063 33.5034C43.548 33.1927 43.4959 32.8841 43.4125 32.5796C43.3728 32.8006 43.2936 33.0196 43.1539 33.1948L43.1518 33.1968Z" fill="#0A322D"/>
<path d="M32.5551 19.1414C32.5346 19.1414 32.5142 19.1414 32.4937 19.1414C32.4978 19.1558 32.4998 19.1681 32.5039 19.1824C32.5203 19.1681 32.5367 19.1538 32.5531 19.1394L32.5551 19.1414Z" fill="#0A322D"/>
<path d="M48.958 13.7237C48.7266 13.5131 48.5723 13.194 48.5118 12.8541C48.2678 13.7446 47.8153 14.5641 47.248 15.3003C47.3273 15.2273 47.4086 15.1564 47.4879 15.0834C47.7652 14.8373 48.0447 14.5871 48.3178 14.3431C48.5451 14.1387 48.7641 13.9364 48.956 13.7237H48.958Z" fill="#0A322D"/>
<path d="M47.5719 15.2043C47.818 15.1042 48.0766 15.0041 48.2934 14.8936C48.3205 14.683 48.3977 14.4932 48.5145 14.3389C48.479 14.3722 48.4436 14.4056 48.4081 14.439C48.137 14.6871 47.8597 14.9395 47.5865 15.1918C47.5802 15.1959 47.5761 15.2022 47.5698 15.2064L47.5719 15.2043Z" fill="#0A322D"/>
<path d="M48.1427 9.4125C48.1364 9.37518 48.1302 9.33578 48.124 9.29639C48.1178 9.31297 48.1074 9.32749 48.0991 9.34408C48.1136 9.36689 48.1282 9.39176 48.1427 9.4125Z" fill="#0A322D"/>
<path d="M44.8676 7.86584L44.8509 7.88253C44.78 7.81163 44.6924 7.72404 44.5819 7.61352C44.2899 7.32782 43.8708 6.97123 43.4954 6.7043C43.07 6.83777 42.5966 6.75435 42.2713 6.47282C42.167 6.38107 42.0252 6.28306 41.9001 6.21633C41.8355 6.18296 41.7792 6.14751 41.7228 6.11206C41.6999 6.29557 41.6603 6.477 41.5998 6.65008C41.4914 6.94412 41.3371 7.25692 41.1181 7.46546C41.0972 7.44877 41.0785 7.43 41.0576 7.41124C41.0931 7.75324 41.1911 8.14529 41.3016 8.42472C41.3079 8.43932 41.312 8.45183 41.3162 8.46435C41.3475 8.50814 41.3767 8.55193 41.408 8.59155C41.4205 8.60823 41.433 8.62283 41.4455 8.63743C41.4726 8.65411 41.4997 8.67079 41.5268 8.68748C42.0273 8.99819 42.4903 9.36313 42.9532 9.72599C43.4433 10.1118 43.9438 10.5122 44.3254 10.9981C44.3379 10.948 44.3483 10.898 44.3608 10.8479C44.4046 10.6727 44.4547 10.4976 44.5089 10.3245C44.1231 10.1639 43.8124 9.81357 43.7165 9.40484C43.6831 9.26095 43.6268 9.08995 43.5663 8.95232C43.4287 8.65203 43.4162 8.39344 43.1909 8.18699C43.6789 8.46434 43.8332 8.40596 44.1273 8.62075C44.4171 8.83763 44.6653 9.14417 44.7716 9.4966C44.8551 9.22759 44.9322 8.95857 44.9948 8.68748C44.9844 8.60823 44.9718 8.52273 44.9593 8.42889C44.9343 8.25372 44.9051 8.06187 44.8655 7.86376L44.8676 7.86584Z" fill="#0A322D"/>
<path d="M48.3559 16.3742C48.1786 16.3617 48.0681 16.3033 47.9805 16.247C47.9346 16.2178 47.8971 16.1866 47.8512 16.1574C47.8346 16.1469 47.8137 16.1386 47.7949 16.1302C47.7511 16.1428 47.7073 16.1532 47.6635 16.1678C47.3153 16.27 46.9399 16.4159 46.5896 16.5911C46.2372 16.7663 45.9119 16.9686 45.6491 17.1583C45.6032 17.1917 45.5615 17.223 45.5219 17.2522C45.3196 17.542 45.157 17.8569 45.0381 18.1906C45.1152 18.1551 45.1924 18.1197 45.2696 18.0863C45.2904 18.0759 45.3092 18.0655 45.3321 18.055C45.3488 18.0467 45.3655 18.0425 45.3843 18.0342C46.0099 17.7485 46.6313 17.4565 47.2423 17.1375C47.7157 16.8914 48.1849 16.6307 48.6437 16.3513C48.5519 16.3722 48.456 16.3805 48.3601 16.3722L48.3559 16.3742Z" fill="#0A322D"/>
<path d="M46.7522 14.2577C46.7606 14.2118 46.771 14.1618 46.7814 14.1117C46.844 13.8469 46.9191 13.5487 46.9566 13.2296C46.9983 12.9126 47.0108 12.5852 46.9983 12.2912C46.99 12.0493 46.967 11.8345 46.9441 11.6614C46.7585 11.5446 46.5917 11.382 46.4561 11.1985C46.2893 10.9691 46.1663 10.7084 46.1099 10.4311C46.0808 10.2705 46.0182 10.0786 45.9494 9.92431C45.8096 9.62402 45.7617 9.36335 45.5615 9.14856C45.4968 9.5135 45.4093 9.87426 45.3154 10.2288C45.1799 10.7397 45.0276 11.2548 44.7628 11.7073C44.9109 12.0159 45.0214 12.3412 45.1069 12.6749C45.1382 12.604 45.1778 12.5352 45.2216 12.4705C45.3175 12.3329 45.4322 12.1619 45.5198 12.0159C45.7158 11.6948 45.9473 11.5488 46.062 11.236C46.0182 11.5363 46.0432 11.7136 46.0661 11.8574C46.0912 12.0034 46.1162 12.1181 46.1058 12.2995C46.087 12.6624 46.0223 13.0232 45.8639 13.3443C45.7304 13.6112 45.5427 13.8865 45.3029 14.0575C45.2966 14.0512 45.2925 14.045 45.2862 14.0387C45.2925 14.3932 45.2737 14.7477 45.2237 15.0939C45.1215 15.7946 44.7482 16.4828 44.5918 17.1751C44.6106 17.1417 44.6293 17.1084 44.6502 17.0771C45.2424 16.1095 46.0453 15.2983 46.6813 14.3599C46.7043 14.3244 46.7251 14.289 46.7481 14.2535L46.7522 14.2577Z" fill="#0A322D"/>
<path d="M50.4802 17.0831C50.2028 17.0789 49.9025 17.0184 49.6711 16.8787C49.133 17.302 48.5617 17.6816 47.959 18.009C48.3093 17.9819 48.6597 17.9777 49.01 17.9986C49.4354 18.0236 49.8567 18.082 50.2779 18.157C50.3613 18.1445 50.4489 18.1341 50.5448 18.1258C50.8701 18.0945 51.2372 18.0903 51.5959 18.0069V17.9986C51.7105 17.961 51.8523 17.9151 52.0213 17.8714C52.3382 17.7462 52.6385 17.5731 52.8971 17.3917C53.139 17.2249 53.3517 17.056 53.5269 16.9121C53.4914 16.4345 53.7 15.932 54.067 15.6171C54.1838 15.5191 54.3152 15.3814 54.4111 15.2563C54.5508 15.0707 54.6989 14.9393 54.8031 14.7767C54.6259 14.7892 54.4465 14.7871 54.2714 14.7558C54.0315 14.7141 53.775 14.637 53.5582 14.5118C53.4581 14.5306 53.3517 14.5515 53.2433 14.5765C52.6802 14.6954 52.0234 14.8914 51.4916 15.0916C51.1934 15.4586 50.8701 15.8048 50.5302 16.1322C50.6637 16.1051 50.8013 16.0967 50.9348 16.1134C51.0912 16.1322 51.281 16.1468 51.4395 16.1447C51.7898 16.1447 52.0296 16.251 52.332 16.1572C51.8315 16.4491 51.8252 16.6181 51.5103 16.7911C51.1955 16.9663 50.8409 17.0852 50.4823 17.081L50.4802 17.0831Z" fill="#0A322D"/>
<path d="M39.8751 12.9835C39.9689 12.9835 40.044 12.9647 40.1045 12.9397C40.1858 12.9084 40.2421 12.8667 40.2901 12.8271C40.3839 12.7458 40.4444 12.6728 40.5528 12.5936C40.6613 12.5122 40.7676 12.4351 40.8927 12.3683C41.0199 12.2995 41.1701 12.2411 41.339 12.2182C41.4787 12.1973 41.6393 12.1953 41.7873 12.2286C41.8833 12.2495 41.9729 12.287 42.048 12.3371C42.3254 12.2933 42.6236 12.287 42.9114 12.3475C43.2075 12.4038 43.4848 12.5185 43.7205 12.6582C43.6558 12.5748 43.5891 12.4914 43.514 12.4142C43.1116 11.9867 42.5506 11.7198 42.048 11.4821C41.9875 11.4529 41.9292 11.4257 41.8708 11.3986C41.7144 11.5384 41.4766 11.628 41.2201 11.6239C40.8781 11.6239 40.5278 11.4737 40.3088 11.236C40.1879 11.1025 40.0377 10.9419 39.9147 10.8064C39.6499 10.5165 39.5789 10.2434 39.2974 10.0452C39.8667 10.2871 40.0085 10.1954 40.3526 10.3247C40.703 10.4498 41.0095 10.5791 41.2827 10.7501C41.51 10.8961 41.7602 11.0546 41.9959 11.2402C41.9896 11.2506 41.9813 11.261 41.975 11.2714C42.0209 11.2902 42.0668 11.3111 42.1127 11.3298C42.6215 11.5467 43.2158 11.8074 43.6642 12.262C43.9061 12.506 44.0958 12.7854 44.2397 13.0711C44.2689 13.1003 44.294 13.1295 44.319 13.1587C44.3023 13.0482 44.2835 12.9376 44.2585 12.8292C43.9853 11.6489 43.1845 10.7605 42.2753 10.0098C42.0272 9.80542 41.7602 9.59898 41.4871 9.39044C41.412 9.36125 41.3265 9.32997 41.2222 9.2966C41.1471 9.27158 41.0637 9.24863 40.9761 9.22361C40.949 9.22361 40.9219 9.22778 40.8927 9.22778C40.6195 9.24029 40.2463 9.23404 39.9439 9.20693C39.6415 9.17982 39.41 9.13603 39.4121 9.11517C39.4121 9.09224 39.6478 9.09849 39.9481 9.09641C40.1003 9.09641 40.2713 9.09432 40.436 9.08806C40.2004 9.03176 39.9627 8.97337 39.7479 8.90664C39.2724 8.76483 38.9533 8.53544 38.9659 8.52085C38.9784 8.49999 39.3058 8.68976 39.7771 8.80028C40.1503 8.89621 40.6029 8.96919 40.9886 9.06512C41.0178 9.06512 41.0429 9.06304 41.0679 9.06095C40.801 8.8545 40.5361 8.63971 40.2796 8.41658C40.0982 8.33316 39.8897 8.25183 39.6665 8.20804C39.4163 8.15799 39.1452 8.15382 38.9012 8.13505C38.8595 8.13297 38.8199 8.13088 38.7782 8.12671C38.7949 8.21638 38.8157 8.28937 38.8345 8.35402C38.8783 8.49582 38.92 8.61052 38.9346 8.79403C38.9659 9.16105 38.9512 9.53433 38.8366 9.88259C38.749 10.1433 38.6176 10.4164 38.4341 10.6187C38.4383 10.6542 38.4403 10.6875 38.4445 10.7188C38.457 10.8147 38.4674 10.8898 38.4737 10.9503H38.4612C38.5092 11.0566 38.5592 11.1588 38.6113 11.261C38.6218 11.2798 38.6322 11.2965 38.6405 11.3131H38.6385C38.9617 11.9346 39.3621 12.5081 39.8688 12.9752L39.8751 12.9835Z" fill="#0A322D"/>
<path d="M41.7049 16.8894C41.7278 16.8936 41.7486 16.8998 41.7716 16.9061C41.5672 16.3597 41.2648 15.8509 40.877 15.415C40.4682 15.4046 40.0762 15.3441 39.6841 15.2545C39.4693 15.2294 39.2567 15.1982 39.0439 15.1648C39.0648 15.1731 39.0856 15.1794 39.1065 15.1898C39.4694 15.3379 39.8197 15.5485 40.0845 15.8405C40.3035 16.0824 40.5016 16.3826 40.5642 16.6809C40.5496 16.685 40.5329 16.6892 40.5183 16.6934C40.9166 16.7413 41.3128 16.8081 41.7049 16.8936V16.8894Z" fill="#0A322D"/>
<path d="M48.8467 9.33603C48.8654 9.29224 48.8842 9.24844 48.903 9.20257L48.8821 9.18797C48.9051 9.15252 48.9322 9.11289 48.9635 9.07119C49.0135 8.96483 49.0656 8.85848 49.124 8.75421C49.3117 8.40596 49.5578 8.07856 49.783 7.80329C49.8894 7.67191 49.9853 7.54471 50.0666 7.42584C50.0082 7.32366 49.9665 7.21522 49.9415 7.10887C49.8977 6.91493 49.9081 6.72099 49.9811 6.53748C49.6412 6.87322 49.3701 7.27569 49.1574 7.70945C48.9822 8.2287 48.8926 8.7855 48.8467 9.33812V9.33603Z" fill="#0A322D"/>
<path d="M43.6672 14.9499C43.5004 14.8539 43.3752 14.7309 43.2877 14.5578C43.2397 14.4556 43.1542 14.3451 43.0687 14.2659C42.8831 14.1011 42.7601 13.903 42.5077 13.8988C42.733 13.8342 42.881 13.7946 43.0082 13.7529C43.1354 13.7174 43.246 13.6882 43.417 13.7174C43.759 13.7737 44.1051 13.9927 44.2615 14.318C44.2782 14.3514 44.2928 14.3847 44.3074 14.4202C44.3178 14.3597 44.3262 14.3013 44.3345 14.2408C44.3241 14.1178 44.3074 13.9843 44.2761 13.8384C44.2323 13.634 44.1593 13.4192 44.0592 13.2065C43.9988 13.146 43.932 13.0856 43.8528 13.023C43.6005 12.8207 43.2543 12.6372 42.8706 12.5517C42.6245 12.4933 42.368 12.485 42.1219 12.5079C42.0198 12.6873 41.9134 12.8416 41.7779 12.9646C41.6215 13.1043 41.4025 13.2148 41.1377 13.2232C40.9833 13.2294 40.7957 13.2357 40.6372 13.2357C40.462 13.2357 40.3119 13.1898 40.1784 13.1377C40.0992 13.1043 40.0241 13.073 39.9448 13.0397C40.0387 13.1231 40.1346 13.2044 40.2368 13.2795C40.5225 13.4922 40.8332 13.6715 41.1022 13.903C41.586 14.3201 41.9072 14.8852 42.2679 15.4107C42.5891 15.882 42.9707 16.3429 43.4733 16.5994C43.4983 16.5347 43.5233 16.4701 43.5504 16.4055C43.736 15.9717 43.9592 15.5546 44.1239 15.1146C43.9508 15.075 43.7986 15.0166 43.6714 14.9436L43.6672 14.9499Z" fill="#0A322D"/>
<path d="M29.3499 17.3126C29.377 17.3064 29.4062 17.3001 29.4333 17.2959C29.6064 17.2751 29.7711 17.3126 29.8879 17.3919C29.8837 17.4002 29.8816 17.4085 29.8775 17.4169C30.0526 17.371 30.2382 17.3126 30.4197 17.2396C30.4655 17.2229 30.5114 17.2042 30.5594 17.1896C30.3342 17.0853 30.1048 16.9602 29.8691 16.8372C29.8837 16.8726 29.8942 16.906 29.8962 16.9414C29.6523 17.0269 29.5146 17.1729 29.3916 17.2772C29.377 17.2897 29.3603 17.3022 29.3457 17.3126H29.3499Z" fill="#0A322D"/>
<path d="M49.7577 32.936C49.7577 32.936 49.7368 32.936 49.7264 32.936C49.7034 32.9652 49.6805 32.9944 49.6659 33.0257C49.6367 33.0945 49.6263 33.1717 49.6346 33.2468C49.643 33.3135 49.668 33.3781 49.7013 33.4365C49.8765 33.3698 50.0496 33.301 50.2227 33.228C50.2123 33.2196 50.2018 33.2092 50.1893 33.2009C50.1247 33.155 49.9015 33.0069 49.7535 32.936H49.7577Z" fill="#0A322D"/>
<path d="M48.9673 30.6089C48.5836 30.4588 48.1499 30.4108 47.7578 30.5339C48.5377 30.6673 49.0924 31.3513 49.5408 32.0041C49.6367 32.1438 49.7368 32.2877 49.8849 32.3669C49.9787 32.417 50.0872 32.4357 50.1873 32.467C50.4458 32.5504 50.669 32.736 50.8066 32.9696C50.9401 32.907 51.0735 32.8444 51.2049 32.7777C50.6565 31.8476 49.937 30.9822 48.9673 30.6048V30.6089Z" fill="#0A322D"/>
<path d="M49.325 33.1218C49.3146 33.0258 49.3459 32.9299 49.3626 32.834C49.4585 32.3335 49.1957 31.8163 48.812 31.4785C48.4283 31.1407 47.9403 30.953 47.4586 30.7862C46.9769 30.6193 46.4806 30.4629 46.0593 30.1772C45.8216 30.0167 45.6131 29.8165 45.3774 29.6538C45.4609 30.3357 45.8675 30.9697 46.4535 31.3263C46.6453 31.4431 46.8539 31.5327 47.0499 31.6412C47.7401 32.0249 48.2281 32.6359 48.7599 33.2198C48.8808 33.3532 49.0456 33.4367 49.1936 33.5367C49.2208 33.5555 49.2458 33.5743 49.2729 33.5931C49.3417 33.568 49.4105 33.5451 49.4773 33.5201C49.398 33.42 49.35 33.2969 49.3355 33.1676C49.3313 33.151 49.3271 33.1364 49.325 33.1197V33.1218Z" fill="#0A322D"/>
<path d="M50.0269 32.8007C50.2125 32.8508 50.3772 32.9634 50.5127 33.1073C50.5962 33.0697 50.6796 33.0322 50.763 32.9947C50.5732 32.8111 50.2834 32.7277 50.0269 32.8007Z" fill="#0A322D"/>
<path d="M46.2628 32.5587C46.1898 32.2584 46.023 31.9832 45.7998 31.7705C45.6351 31.7183 45.4745 31.6599 45.3181 31.587C44.9907 31.4306 44.7071 31.2053 44.4464 30.953C44.4631 31.0051 44.4819 31.0594 44.5028 31.1115C44.6821 31.5744 44.9928 32.0145 44.9803 32.5108C44.9699 32.9716 44.6863 33.3762 44.4131 33.7474C44.5445 33.8809 44.6571 33.9726 44.8239 34.0581C45.0387 34.1686 45.2577 34.2979 45.4307 34.4648C45.7227 34.4335 46.0105 34.3939 46.2962 34.348C46.2169 33.7578 46.4025 33.1405 46.2607 32.5587H46.2628Z" fill="#0A322D"/>
<path d="M47.3634 32.4627C47.1903 32.348 47.0089 32.2458 46.8233 32.1541C46.89 32.3709 46.9275 32.5941 46.9046 32.8193C46.8671 33.1863 46.671 33.522 46.6251 33.887C46.6085 34.0225 46.6147 34.1581 46.6377 34.2915C47.2528 34.181 47.8576 34.0371 48.4498 33.862C48.3664 33.57 48.2371 33.2947 48.0474 33.057C47.8576 32.8214 47.6178 32.6295 47.3654 32.4627H47.3634Z" fill="#0A322D"/>
<path d="M51.8399 31.1907C51.4646 30.6798 51.0809 30.1188 50.4886 29.8957C49.7775 29.6246 48.9913 29.9728 48.2886 30.2627C49.1457 30.0291 50.132 30.3836 50.643 31.1114C50.9203 31.5056 51.0746 31.9998 51.4521 32.298C51.5522 32.3772 51.6627 32.4377 51.7795 32.4878C52.0589 32.3355 52.3342 32.177 52.6053 32.0102C52.3112 31.7913 52.061 31.4889 51.8441 31.1907H51.8399Z" fill="#0A322D"/>
<path d="M51.5734 12.7811C51.5817 12.7498 51.5921 12.7186 51.6005 12.6873C51.5963 12.6873 51.5942 12.6914 51.5921 12.6914C51.5775 12.6727 51.5671 12.6518 51.5546 12.6331C51.5087 12.7457 51.4483 12.8458 51.3711 12.9271C51.3899 13.0543 51.4086 13.1815 51.4211 13.3025C51.4712 13.121 51.5212 12.9438 51.5734 12.779V12.7811Z" fill="#0A322D"/>
<path d="M49.1993 13.4318C49.2515 13.363 49.3015 13.2942 49.3474 13.2253C49.3411 13.192 49.337 13.1586 49.3307 13.1252C49.2953 13.2337 49.2515 13.3359 49.1973 13.4318H49.1993Z" fill="#0A322D"/>
<path d="M50.205 5.56996C50.1278 5.72428 50.0319 5.85774 49.9193 5.95783C49.8859 6.09547 49.8463 6.23519 49.7983 6.36657C49.8421 6.32278 49.888 6.27898 49.9443 6.2331C49.9965 6.18931 50.0528 6.14552 50.1132 6.10172C50.1466 5.90361 50.2175 5.73887 50.205 5.56787V5.56996Z" fill="#0A322D"/>
<path d="M52.5121 31.0739C52.2681 31.0927 51.9928 31.0551 51.8364 30.8654C52.1013 31.2428 52.3807 31.6077 52.6706 31.9643C53.0313 31.7391 53.3838 31.5014 53.7278 31.2511C53.5881 31.1344 53.4234 31.051 53.242 31.0238C53.0001 30.9884 52.754 31.053 52.51 31.0718L52.5121 31.0739Z" fill="#0A322D"/>
<path d="M53.9544 31.0843C54.0524 31.0113 54.1483 30.9363 54.2443 30.8612C53.9336 30.7236 53.5832 30.7048 53.2412 30.6881C53.5165 30.7361 53.7605 30.882 53.9544 31.0843Z" fill="#0A322D"/>
<path d="M42.2392 21.2997C42.2392 21.2997 42.2392 21.2872 42.2392 21.2809C42.0536 21.2476 41.8722 21.185 41.7033 21.1058C41.4655 20.9911 41.2528 20.8388 41.0797 20.6407C40.9796 20.524 40.8357 20.403 40.7023 20.3175C40.4082 20.1382 40.2101 19.9359 39.8744 19.9338C40.1684 19.8671 40.3478 19.8254 40.5021 19.7816C40.6543 19.744 40.7857 19.7128 40.9963 19.7378C41.4071 19.7878 41.8409 19.9901 42.1203 20.3217C42.0807 20.0965 42.0327 19.8712 41.9723 19.6502C41.722 19.1893 41.3967 18.7702 41.0067 18.4198C40.6522 18.1008 40.2456 17.8422 39.8097 17.6503C39.3405 17.5461 38.8692 17.446 38.3938 17.3667C37.9246 17.813 37.3282 18.1258 36.7067 18.3156C35.9351 18.5533 35.1218 18.6221 34.3148 18.6596C34.1167 18.6701 33.9186 18.6784 33.7226 18.6993C33.6287 18.7431 33.5161 18.7994 33.3764 18.8744C33.2325 18.9516 33.0719 19.0475 32.9093 19.156L32.9135 19.1601C32.8697 19.2039 32.8133 19.254 32.7508 19.3165C32.6695 19.3999 32.5944 19.498 32.5652 19.621C32.5652 19.6898 32.5589 19.7566 32.5506 19.8233C32.5485 19.8421 32.5423 19.8608 32.5381 19.8817C32.5381 19.9463 32.5402 20.011 32.5443 20.0714C32.5631 20.353 32.6173 20.5719 32.5881 20.5844C32.5652 20.5949 32.4839 20.4572 32.4213 20.2445C32.3859 20.3175 32.3442 20.3905 32.2941 20.4572C32.2107 20.5636 32.1294 20.7116 32.0793 20.8409C31.975 21.1266 31.8186 21.331 31.877 21.6188C31.7582 21.3748 31.6789 21.2288 31.6038 21.1037C31.5329 20.9786 31.4745 20.8722 31.4474 20.6845C31.3953 20.3113 31.4766 19.8838 31.7165 19.573C31.877 19.3603 32.1064 19.1893 32.34 19.1247C32.1982 19.1038 32.0626 19.0621 31.9479 19.0058C31.6268 18.8515 31.4787 18.6138 31.5037 18.5971C31.5288 18.5742 31.7144 18.7556 32.0105 18.8536C32.1585 18.9036 32.3275 18.9307 32.4922 18.9224C32.6569 18.9161 32.8154 18.8744 32.9406 18.8244C33.0323 18.7869 33.1032 18.7493 33.1574 18.7159C33.1887 18.7014 33.22 18.6868 33.2513 18.6701C33.2554 18.668 33.2596 18.6659 33.2638 18.6638C33.416 18.5804 33.5432 18.5241 33.6454 18.4824L33.6579 18.5095C34.0583 18.3781 34.4879 18.3072 34.8883 18.2426C35.4618 18.1487 36.0269 18.0299 36.5336 17.7317C36.7776 17.5878 37.0008 17.4126 37.1968 17.2145C36.69 17.177 36.1791 17.1686 35.6724 17.1916C35.5473 17.6587 35.0926 18.0591 34.5901 18.1321C34.4358 18.155 34.2481 18.1946 34.0979 18.2405C33.7643 18.3427 33.4994 18.3135 33.2409 18.4991C33.6266 18.0632 33.587 17.9006 33.8456 17.6399C33.9165 17.5669 33.9937 17.5002 34.0729 17.4376C33.3201 17.5565 32.5673 17.5794 31.8207 17.4627C31.7832 17.4793 31.7415 17.4981 31.6914 17.5231C31.5017 17.6128 31.2618 17.7671 31.0846 17.9235C31.0616 17.9444 31.0387 17.9631 31.0179 17.984C31.0679 18.2155 31.0596 18.4615 31.0053 18.693C30.9449 18.9495 30.8323 19.1893 30.6613 19.3895C30.5612 19.5042 30.4569 19.6606 30.386 19.8003C30.2358 20.1069 30.0461 20.305 30.0482 20.6303C29.9794 20.3425 29.923 20.1736 29.8688 20.0297C29.8188 19.8858 29.7771 19.7649 29.7771 19.5647C29.7771 19.1622 29.9064 18.7285 30.1754 18.4136C30.3797 18.1675 30.6634 17.9736 30.9386 17.9256C30.9595 17.9006 30.9824 17.8735 31.0053 17.8484C31.1284 17.7108 31.2994 17.5732 31.462 17.4731C31.3119 17.4543 31.1409 17.4168 30.9553 17.35C30.8114 17.3542 30.6613 17.3813 30.4944 17.4397C30.2963 17.5064 30.0794 17.5565 29.8876 17.5836C29.8605 17.5878 29.8375 17.5899 29.8104 17.594C29.6686 17.9673 29.5623 18.2426 29.287 18.4824C29.1932 18.5637 29.0931 18.693 29.0305 18.816C28.895 19.0851 28.7198 19.2727 28.724 19.5709C28.6551 19.304 28.5863 19.1539 28.53 19.0225C28.4737 18.8911 28.4258 18.7806 28.4216 18.5908C28.4174 18.399 28.4508 18.1946 28.5363 17.9986C28.6114 17.8255 28.7281 17.6691 28.8741 17.5482C28.8658 17.5502 28.8574 17.5544 28.8491 17.5565C28.7031 17.5919 28.53 17.6462 28.3924 17.7025C28.0858 17.8297 27.8293 17.8213 27.6041 18.0236C27.9211 17.5648 27.8627 17.4084 28.0775 17.1311C28.1859 16.9934 28.309 16.8642 28.4487 16.7557C28.5905 16.6473 28.7782 16.5388 29.0097 16.4971C29.0743 16.4846 29.1431 16.4804 29.214 16.4825C29.1598 16.4513 29.1077 16.4179 29.0555 16.3803C28.8845 16.2511 28.7678 16.0967 28.6531 15.9528C28.6426 15.9424 28.6322 15.9341 28.6218 15.9237C28.5905 15.9132 28.5551 15.9028 28.5113 15.8861C28.3903 15.8423 28.2318 15.786 28.09 15.7339C27.8752 15.8277 27.6271 15.884 27.3706 15.907C27.0452 15.9362 26.7095 15.9153 26.3946 15.8319C26.3758 15.8277 26.3571 15.8236 26.3362 15.8173C26.3195 16.0154 26.3049 16.2135 26.2966 16.4137C26.3362 16.4054 26.3759 16.397 26.4155 16.3929C26.7116 16.3532 27.0432 16.3762 27.2976 16.5117C27.1808 16.9559 26.7512 17.3208 26.2778 17.4022C26.2799 17.7775 26.2945 18.1529 26.3216 18.522C26.3571 18.522 26.3904 18.5199 26.4259 18.5199C26.6845 18.5262 26.9806 18.5575 27.2434 18.6659C27.21 18.912 27.0452 19.1518 26.8013 19.3061C26.6845 19.3812 26.5531 19.4333 26.4155 19.4625C26.9598 23.7813 29.0972 27.6038 32.2232 30.321C33.1157 30.2438 34.0562 30.8778 34.8716 30.4962C35.32 30.2855 35.589 29.8184 35.9956 29.539C36.6942 29.0614 37.6284 29.2199 38.4605 29.0635C39.9265 28.7882 41.0902 27.4724 41.7012 26.1065C42.1745 24.5529 42.3643 22.9117 42.2454 21.2935L42.2392 21.2997ZM28.7198 20.6929C28.5655 20.9035 28.3048 21.0495 28.0441 21.0557C27.8961 21.0599 27.7167 21.0641 27.5708 21.0682C27.2434 21.0682 27.0473 20.9327 26.7741 20.9619C27.0202 20.8764 27.1287 20.7659 27.2162 20.6804C27.3017 20.5886 27.3622 20.5114 27.4686 20.4259C27.6834 20.257 27.8836 20.1215 28.1275 20.0589C28.334 20.0089 28.5842 19.9693 28.8512 19.9922C28.9262 20.2174 28.8762 20.4843 28.7177 20.695L28.7198 20.6929ZM34.2356 20.3425C34.1396 20.4656 34.027 20.6178 33.9457 20.7492C33.7601 21.0411 33.5391 21.1767 33.4473 21.4728C33.4828 20.9056 33.343 20.8097 33.3597 20.4635C33.3743 20.1194 33.4473 19.7732 33.6225 19.4792C33.7705 19.2352 33.977 18.9933 34.2314 18.864C34.5692 19.2373 34.5755 19.9171 34.2335 20.3425H34.2356Z" fill="#0A322D"/>
<path d="M37.0655 32.1563C37.322 31.8727 37.4763 31.4994 37.5013 31.1199C37.03 31.3117 36.5712 31.5411 36.198 31.8831C35.9623 32.1 35.7684 32.3565 35.5786 32.6172C35.7475 32.7047 35.9185 32.7923 36.0916 32.8737C36.4294 32.6484 36.7944 32.4566 37.0655 32.1563Z" fill="#0A322D"/>
<path d="M33.7092 31.1469C33.3859 31.0217 33.0794 30.832 32.7437 30.7673C33.2921 31.2073 33.8677 31.614 34.4662 31.9852C34.5037 31.6411 34.6747 31.1302 34.8937 30.882C34.6246 31.1698 34.0762 31.2866 33.7092 31.1469Z" fill="#0A322D"/>
<path d="M38.0408 30.4482C38.3452 30.3022 38.6539 30.1542 38.9208 29.9435C38.9541 29.9164 38.9875 29.8872 39.0209 29.858C38.8603 29.906 38.6977 29.9456 38.5308 29.9706C37.8093 30.0791 37.0481 29.9164 36.3558 30.1479C35.5091 30.4336 34.9649 31.2344 34.4873 31.9935C34.5874 32.056 34.6896 32.1165 34.7918 32.177C34.8981 32.1644 35.0066 32.1519 35.1129 32.1457C35.1463 32.1019 35.1796 32.056 35.2172 32.0143C35.5508 31.641 36.0159 31.4158 36.4684 31.201C36.9939 30.9487 37.5173 30.6984 38.0428 30.4482H38.0408Z" fill="#0A322D"/>
<path d="M44.0728 34.204C44.0144 34.3187 43.9665 34.4375 43.9331 34.5606C44.3147 34.5522 44.6922 34.5314 45.0675 34.498C44.7839 34.2853 44.4273 34.1706 44.0728 34.204Z" fill="#0A322D"/>
<path d="M39.4356 32.7423C38.9039 32.9862 38.3179 33.1322 37.8403 33.47C37.807 33.4951 37.7736 33.5201 37.7402 33.5472C37.7402 33.5514 37.7402 33.5576 37.7402 33.5618C38.5139 33.8371 39.3126 34.0602 40.1321 34.2249C40.4783 33.6702 40.7056 33.0571 40.6827 32.4107C40.6764 32.2585 40.6576 32.0916 40.6222 31.929C40.2739 32.2626 39.8756 32.5421 39.4356 32.7443V32.7423Z" fill="#0A322D"/>
<path d="M43.0548 32.2667C43.1904 31.8287 43.1195 31.3679 42.961 30.9279C42.9276 31.0884 42.8859 31.2448 42.8317 31.3971C42.6419 31.9142 42.2936 32.3668 42.1289 32.8923C42.0288 33.2113 41.9996 33.5492 41.9934 33.8828C41.9892 34.0851 41.9954 34.2936 42.0246 34.4959C42.1018 34.5022 42.179 34.5105 42.2582 34.5168C42.204 34.206 42.2165 33.887 42.3312 33.6034C42.523 33.1321 42.9067 32.7526 43.0569 32.2667H43.0548Z" fill="#0A322D"/>
<path d="M41.5498 34.4474C41.5498 34.4474 41.5623 34.4474 41.5705 34.4495C41.5705 34.4184 41.5685 34.3873 41.5705 34.3562C41.5623 34.3873 41.5581 34.4163 41.5519 34.4474H41.5498Z" fill="#0A322D"/>
<path d="M40.2775 29.3638C40.0773 29.7371 39.7561 30.0499 39.3975 30.2813C39.0325 30.517 38.6301 30.6838 38.2234 30.8402C38.0024 31.5826 37.4185 32.1999 36.7783 32.6607C36.626 32.7692 36.4717 32.8734 36.3174 32.9798C36.5739 33.0987 36.8325 33.2113 37.0952 33.3155C37.3434 33.1007 37.6166 32.9152 37.9127 32.7713C38.2401 32.6128 38.5883 32.5022 38.9178 32.3479C40.2379 31.7348 41.1846 30.4023 41.364 28.9613C41.0282 29.0489 40.6946 29.1928 40.3859 29.3158C40.3484 29.3304 40.3129 29.3471 40.2754 29.3617L40.2775 29.3638Z" fill="#0A322D"/>
<path d="M60.8306 16.8998C60.7702 16.9081 60.7097 16.9123 60.6471 16.9123C60.3927 16.9123 60.107 16.8664 59.8651 16.7329C59.9089 16.491 60.0611 16.27 60.2759 16.1261C60.424 16.0239 60.6033 15.9614 60.7848 15.9468C60.7597 15.6214 60.7243 15.2982 60.6826 14.9771C60.6617 14.9896 60.6388 15.0042 60.6138 15.0167C60.424 15.1168 60.2009 15.1814 59.9694 15.1877C59.7358 15.196 59.5023 15.1418 59.3271 15.0542C59.0268 14.9082 58.8141 14.7081 58.6264 14.4849C58.787 14.2806 59.0998 14.1846 59.3792 14.1805C59.5189 14.1763 59.6503 14.1888 59.765 14.2076C59.8797 14.2284 59.9777 14.2576 60.0862 14.2993C60.2092 14.3494 60.376 14.3786 60.5178 14.3702C60.5429 14.3702 60.5679 14.3702 60.5929 14.3681C60.5283 13.9907 60.4532 13.6195 60.3656 13.2504C60.3364 13.2546 60.3051 13.2566 60.2759 13.2546C60.2175 13.0669 60.2029 12.8771 60.2238 12.6957C60.1133 12.2911 59.9882 11.8928 59.8484 11.5008C59.7233 11.53 59.5919 11.5571 59.4564 11.5758C59.3605 11.3548 59.4042 11.0524 59.5857 10.8084C58.8954 9.10052 57.9382 7.52607 56.7684 6.1393C56.6537 6.30196 56.5306 6.45419 56.3846 6.58974C56.1824 6.77117 55.9426 6.9651 55.6735 7.08397C55.5276 6.87543 55.4838 6.57097 55.5693 6.27277C55.6506 5.97456 55.8591 5.69304 56.1282 5.54498C56.1511 5.53038 56.1782 5.51578 56.2032 5.50327C55.7486 5.0153 55.2669 4.55443 54.7602 4.12276C54.6559 4.28751 54.5391 4.44599 54.3994 4.58154C54.1908 4.43139 54.0532 4.14779 54.0386 3.83498C54.0324 3.74114 54.0386 3.6473 54.0553 3.55346C53.803 3.35952 53.5444 3.17183 53.2816 2.99249C53.1377 3.15932 52.9396 3.32198 52.6977 3.40331C52.5309 3.2344 52.4454 3.00501 52.4517 2.77562C52.4517 2.67969 52.4725 2.58168 52.5059 2.49201C51.7864 2.05617 51.0315 1.67038 50.2495 1.34089C50.2495 1.34715 50.2495 1.3534 50.2453 1.35966C50.1786 1.6808 50.0723 1.98318 49.8804 2.23968C49.7198 2.4503 49.5071 2.6651 49.2527 2.78813C49.088 2.60254 49.0067 2.33561 49.0275 2.06242C49.0463 1.78924 49.1672 1.51398 49.3674 1.32629C49.4446 1.25331 49.5301 1.16989 49.6093 1.08856C49.2277 0.946754 48.8398 0.815379 48.4457 0.700684C48.3122 0.875855 48.1162 1.01558 47.8931 1.04894C47.7513 0.863345 47.6678 0.669404 47.6449 0.485893C47.0756 0.348259 46.4959 0.237733 45.9057 0.158489C45.6534 0.285696 45.3677 0.398308 45.0841 0.427503C45.0528 0.314893 45.0486 0.191859 45.0653 0.064652C44.8651 0.0479691 44.6628 0.0333691 44.4606 0.0229423C44.5586 0.323234 44.6024 0.640207 44.5419 0.946755C44.4877 1.21577 44.3751 1.50355 44.179 1.70583C43.7349 1.48061 43.4971 0.871685 43.666 0.375369C43.7036 0.260674 43.7432 0.127209 43.7745 0.0020874C43.7015 0.0020874 43.6306 0 43.5576 0C43.1801 0 42.8069 0.012517 42.4378 0.0375413C42.5233 0.0959314 42.6025 0.162659 42.6713 0.241903C42.8465 0.444183 42.98 0.715283 42.98 0.988465C42.5254 1.16155 42.0082 1.02183 41.7433 0.654806C41.6662 0.548453 41.5619 0.427504 41.4639 0.337834C41.3951 0.275273 41.3409 0.210622 41.2887 0.150146C40.8404 0.208536 40.4004 0.2857 39.9645 0.377456C40.0083 0.517175 40.0292 0.661065 40.0187 0.80704C40 1.08856 39.8894 1.3826 39.683 1.55985C39.3014 1.34715 39.0678 0.980121 39.0574 0.594329C38.8739 0.644378 38.6904 0.696512 38.5089 0.750731C38.5131 0.794524 38.5173 0.838319 38.5173 0.884197C38.5173 1.14487 38.4589 1.43265 38.3025 1.65786C37.9939 1.57862 37.7415 1.33881 37.6206 1.04894C37.4287 1.11776 37.241 1.19283 37.0534 1.26999C37.1055 1.35132 37.1535 1.42847 37.2014 1.539C37.3265 1.83512 37.4266 2.11873 37.4475 2.42528C37.4621 2.68177 37.46 2.97581 37.3787 3.249C37.1284 3.24065 36.8719 3.10093 36.6947 2.86737C36.5174 2.63798 36.4257 2.32101 36.4695 2.03323C36.4945 1.87057 36.5237 1.67246 36.5487 1.50772C36.5487 1.49729 36.5529 1.48895 36.555 1.47853C36.2255 1.6245 35.9002 1.7809 35.5811 1.94773C35.5811 1.96859 35.5811 1.99152 35.5811 2.01238C35.4539 2.08328 35.3288 2.12499 35.2099 2.14793C34.9451 2.2939 34.6823 2.44822 34.4258 2.60879C34.5113 2.70889 34.5989 2.75268 34.6719 2.77353C34.749 2.79647 34.8137 2.79647 34.8721 2.79439C34.9889 2.78813 35.0764 2.76519 35.2036 2.77562C35.4664 2.7923 35.7354 2.86738 35.9398 3.03629C36.1129 3.1781 36.2818 3.37829 36.3694 3.62645C36.2025 3.79536 35.9752 3.88503 35.7458 3.88295C35.5165 3.88295 35.2891 3.78911 35.1348 3.61602C35.0472 3.51801 34.9367 3.40748 34.8325 3.31155C34.7198 3.2052 34.6448 3.08425 34.5864 2.96538C34.5301 2.84652 34.48 2.74017 34.4195 2.61296C34.163 2.77354 33.9128 2.93828 33.6646 3.11136C33.7543 3.25108 33.8065 3.40123 33.8044 3.56806C33.8002 3.76199 33.7439 3.99138 33.6 4.19783C33.2517 4.19783 32.9661 3.97678 32.8785 3.69526C32.4239 4.05186 31.9901 4.43139 31.5751 4.83178C31.5918 4.99236 31.5605 5.15502 31.4729 5.28431C31.3603 5.27805 31.2561 5.26345 31.1601 5.2426C31.0392 5.36772 30.9203 5.49284 30.8014 5.62214C30.816 5.62422 30.8306 5.6263 30.8452 5.63047C31.0934 5.70138 31.3144 5.85778 31.4104 6.09551C31.4917 6.29154 31.5084 6.53969 31.4062 6.767C30.9599 6.85667 30.595 6.70652 30.5032 6.37704C30.4782 6.2832 30.4323 6.17684 30.3844 6.09551C29.9861 6.56263 29.6128 7.05269 29.2666 7.56152C29.2791 7.58446 29.2958 7.60323 29.3063 7.62825C29.3855 7.79925 29.4501 8.0203 29.4522 8.2768C29.2562 8.39775 29.0164 8.41652 28.8078 8.33727C28.7974 8.3331 28.787 8.32893 28.7766 8.32267C28.5451 8.70221 28.3303 9.09217 28.128 9.49048C28.226 9.39455 28.3053 9.32157 28.3762 9.25275C28.495 9.14848 28.5993 9.06298 28.8058 8.99625C29.2187 8.86487 29.7087 8.90241 30.0757 9.09217C30.3844 9.24858 30.6492 9.49257 30.7702 9.76575C30.5512 9.90755 30.2676 9.96594 29.9965 9.96386C29.7233 9.96177 29.4626 9.90338 29.2353 9.79077C29.104 9.72404 28.9309 9.66773 28.7807 9.64688C28.6181 9.62603 28.4763 9.59475 28.3366 9.58849C28.2427 9.58432 28.1489 9.59683 28.0571 9.6302C27.932 9.88461 27.811 10.1432 27.6984 10.4039C27.8319 10.3788 27.9612 10.3768 28.0947 10.4143C28.2719 10.4664 28.4784 10.5644 28.6681 10.7313C28.6327 10.9586 28.493 11.1504 28.299 11.2547C28.1051 11.361 27.8611 11.3736 27.6651 11.2735C27.5817 11.2318 27.4857 11.1859 27.3961 11.1463C27.029 12.1139 26.7454 13.1253 26.5557 14.1679C26.6057 14.2451 26.6453 14.3264 26.6683 14.4119C26.614 14.4495 26.5557 14.4807 26.4973 14.5099C26.4743 14.6559 26.4514 14.804 26.4326 14.952C26.7183 14.927 27.0124 14.9479 27.2834 15.0292C27.6838 15.1439 28.0655 15.3712 28.249 15.6465C28.322 15.6652 28.3949 15.684 28.4617 15.7049C28.4346 15.6694 28.4075 15.6319 28.3803 15.5985C28.3178 15.513 28.2657 15.4233 28.2219 15.3399C28.1843 15.2669 28.153 15.1981 28.1238 15.1314C27.8903 15.0667 27.6734 14.8978 27.5233 14.6663C27.3627 14.4203 27.2793 14.1054 27.3168 13.8134C27.3356 13.6445 27.3585 13.4422 27.371 13.2733C27.4002 12.898 27.5462 12.6686 27.5149 12.3391C27.6046 12.6289 27.7047 12.7728 27.7881 12.8917C27.8757 13.0085 27.9487 13.0982 28.0217 13.2587C28.1697 13.5799 28.2823 13.9135 28.299 14.2618C28.3094 14.5162 28.2886 14.7936 28.2052 15.0396C28.2427 15.1147 28.2865 15.1939 28.3366 15.2753C28.3845 15.3524 28.4387 15.4338 28.5013 15.5109C28.568 15.5881 28.6368 15.6673 28.7057 15.7507C28.787 15.8404 28.8662 15.9342 28.9496 16.0239C29.1311 16.1657 29.3229 16.2929 29.521 16.4139C29.6128 16.4598 29.7066 16.5035 29.7984 16.5515C30.0549 16.6787 30.3051 16.8101 30.5408 16.9227C30.5658 16.9331 30.5908 16.9394 30.6138 16.9477C30.497 16.8497 30.3823 16.7267 30.2843 16.589C30.1529 16.4014 30.0549 16.1866 30.0028 15.9843C29.9485 15.782 29.9381 15.5964 29.9423 15.463C29.9465 15.3295 29.9631 15.2523 29.9673 15.2523C29.9736 15.2523 29.9673 15.3337 29.9715 15.463C29.9757 15.5922 29.9965 15.7737 30.0549 15.9697C30.1133 16.1636 30.2113 16.3701 30.3406 16.5473C30.4699 16.7246 30.6284 16.8747 30.7764 16.979C30.8035 16.9978 30.8306 17.0165 30.8557 17.0332C30.9537 17.0645 31.0538 17.0937 31.1539 17.1208C31.1726 17.1208 31.1914 17.1229 31.2081 17.125C31.1664 17.0812 31.1289 17.0353 31.0934 16.9894C31.0871 17.0019 31.083 17.0145 31.0767 17.0249C30.8369 16.9644 30.62 16.7976 30.4803 16.5724C30.3385 16.3492 30.2697 16.0698 30.3114 15.807C30.3343 15.6548 30.3552 15.4713 30.3635 15.3211C30.3865 14.9833 30.5178 14.7685 30.4636 14.4724C30.693 14.975 30.864 14.9896 31.0142 15.2836C31.1685 15.5756 31.2748 15.8884 31.2727 16.2116C31.2727 16.4243 31.2373 16.6558 31.1539 16.8622C31.2748 17.0103 31.4417 17.1479 31.5855 17.223C31.6773 17.2418 31.767 17.2605 31.8587 17.2751C32.4113 17.3606 32.9765 17.3627 33.5312 17.2876C34.1526 17.2042 34.7574 17.0353 35.3684 16.8977C36.1254 16.7267 36.8949 16.6433 37.6665 16.6349C37.7082 16.5974 37.7645 16.5995 37.8062 16.6245C37.9521 16.612 38.0981 16.6057 38.2441 16.5995C37.8229 16.3367 37.3787 16.1198 36.9178 15.9509C36.4361 15.7924 35.9356 15.6986 35.4289 15.6715C35.1932 15.7174 34.9117 15.8029 34.7032 15.9342C34.4613 16.076 34.3257 16.2554 34.3069 16.2429C34.2882 16.2345 34.3987 16.0218 34.6406 15.8425C34.7303 15.7737 34.8366 15.7132 34.9471 15.6631C34.749 15.6694 34.5509 15.6903 34.3528 15.7194C34.3257 15.732 34.2965 15.7466 34.2611 15.7632C34.088 15.8425 33.8565 15.9572 33.6688 16.0573C33.4811 16.1553 33.3372 16.2387 33.3226 16.2199C33.3101 16.2033 33.4332 16.0886 33.6104 15.9634C33.7251 15.88 33.8648 15.7966 33.9962 15.7236C33.9066 15.7361 33.8211 15.7466 33.7356 15.7591C33.7376 15.7716 33.7418 15.7841 33.7439 15.7966C33.5124 15.905 33.3977 16.051 33.2622 16.1553C33.1913 16.2095 33.1266 16.2533 33.0265 16.295C32.9306 16.3367 32.8117 16.3722 32.6762 16.3826C32.5198 16.3951 32.3196 16.4201 32.1319 16.4139C31.9234 16.4076 31.767 16.3284 31.6356 16.2366C31.5063 16.1407 31.3958 16.0385 31.2915 15.8821C31.4125 16.0031 31.5355 16.0239 31.621 16.0218C31.7107 16.0177 31.7732 15.9905 31.8274 15.9634C31.9317 15.903 32.0005 15.8383 32.0819 15.7674C32.1736 15.6944 32.2695 15.611 32.4009 15.5359C32.5344 15.4588 32.6991 15.3837 32.916 15.3608C33.087 15.3441 33.2809 15.3629 33.4436 15.4421C33.55 15.4921 33.6354 15.5672 33.6876 15.6527C33.9462 15.6006 34.2381 15.5485 34.5071 15.5067C34.3069 15.4546 34.1047 15.3754 33.942 15.2753C33.9357 15.2732 33.9316 15.269 33.9274 15.2648C33.7835 15.2815 33.6313 15.2607 33.4874 15.2023C33.2517 15.1064 33.0495 14.9062 32.9661 14.6643C32.916 14.5266 32.8576 14.3598 32.8055 14.2263C32.6929 13.926 32.7429 13.6925 32.6032 13.4548C32.7846 13.6403 32.9264 13.7029 33.0411 13.753C33.16 13.8009 33.2559 13.8322 33.3748 13.9094C33.6146 14.0658 33.819 14.2347 33.9566 14.4682C34.0692 14.6643 34.1735 14.9103 34.2006 15.1793C34.1672 15.196 34.1339 15.2106 34.0984 15.2231C34.3653 15.3357 34.6865 15.4066 34.9325 15.4171C35.0035 15.4212 35.0639 15.4212 35.1161 15.4212C35.1515 15.4171 35.1849 15.415 35.2141 15.4108C35.6124 15.3608 36.0128 15.3483 36.409 15.4108C36.7447 15.465 37.07 15.5714 37.3933 15.6777C38.1148 15.9155 38.8509 16.1615 39.4682 16.5953C39.537 16.5995 39.6058 16.6036 39.6747 16.6078C39.4119 16.4994 39.17 16.3221 39.0053 16.0906C38.9031 15.9488 38.7717 15.782 38.6549 15.6506C38.4359 15.4004 38.3379 15.1647 38.1357 14.9771C36.5007 14.5954 34.9325 13.924 33.5249 13.0064C33.454 12.9897 33.379 12.9751 33.3018 12.9668C33.1516 12.9522 32.9932 12.9668 32.8472 12.9835C32.5552 13.0231 32.3196 13.0147 32.3217 12.9897C32.3217 12.9709 32.5427 12.9418 32.8305 12.875C32.9598 12.8479 33.1058 12.8229 33.258 12.8229C33.1892 12.7749 33.1183 12.727 33.0495 12.6769C32.9994 12.6519 32.9452 12.6269 32.8889 12.5935C32.7367 12.508 32.574 12.3954 32.4197 12.2598C32.2841 12.1785 32.1257 12.093 31.9588 12.0054C31.8692 11.9575 31.7795 11.9137 31.6919 11.872C31.6377 11.8428 31.5835 11.8219 31.5272 11.8052C31.2998 11.8678 31.0788 11.9095 30.8703 11.9345C30.6367 11.9595 30.4094 11.9575 30.1675 11.9074C30.0278 11.8761 29.8443 11.8699 29.6899 11.8928C29.3542 11.9429 29.0769 11.9178 28.812 12.1222C29.006 11.8907 29.1081 11.7406 29.1978 11.6113C29.2875 11.4841 29.3646 11.3756 29.5419 11.2589C29.7212 11.1421 29.9339 11.0524 30.1654 11.0128C30.3969 10.9732 30.643 10.9857 30.8661 11.0608C31.0517 11.1212 31.2269 11.2255 31.3603 11.3548C31.4667 11.4591 31.5418 11.5779 31.5814 11.6989C31.6356 11.7135 31.6898 11.7322 31.7399 11.7552C31.8379 11.7927 31.9338 11.8344 32.0235 11.8782C32.0276 11.8803 32.0318 11.8824 32.0381 11.8845C32.0381 11.8845 32.0339 11.8803 32.0318 11.8803C32.0151 11.8657 32.0193 11.849 32.0318 11.8386C31.9401 11.7156 31.8566 11.5904 31.7899 11.4653C31.669 11.2401 31.5981 11.0253 31.5626 10.8689C31.5251 10.7125 31.5209 10.6145 31.5292 10.6124C31.5563 10.6061 31.6273 10.9919 31.8858 11.4111C32.013 11.6217 32.182 11.8365 32.3738 12.0179C32.3947 12.0388 32.4176 12.0576 32.4385 12.0763C32.3821 12.0013 32.33 11.922 32.2883 11.8449C32.0985 11.4841 32.0693 11.1713 32.086 11.1692C32.1111 11.1629 32.1799 11.4632 32.3842 11.7906C32.4864 11.9533 32.6241 12.1159 32.7867 12.239C32.9515 12.362 33.1371 12.4579 33.2872 12.5622C33.3018 12.5726 33.3164 12.5831 33.331 12.5935C33.3039 12.5601 33.2747 12.5268 33.2517 12.4892C33.135 12.289 33.062 12.0888 32.9869 11.9012C32.7867 11.8219 32.5928 11.6613 32.4551 11.4465C32.2716 11.1692 32.184 10.8147 32.2216 10.4998C32.2403 10.3163 32.2633 10.0973 32.2716 9.91589C32.2946 9.5155 32.428 9.25692 32.3634 8.90658C32.6074 9.50299 32.7721 9.53636 32.9243 9.90129C33.0787 10.2662 33.1871 10.6416 33.2184 11.0086C33.2392 11.3152 33.2434 11.6509 33.1725 11.9491C33.16 11.9491 33.1454 11.9429 33.1329 11.9408C33.2059 12.0972 33.2851 12.2661 33.3769 12.41C33.4895 12.5747 33.6667 12.6915 33.8044 12.8083C33.8982 12.8854 33.9712 12.9459 34.0338 12.9981C34.8846 13.3088 35.7875 13.4944 36.6822 13.6549C36.9345 13.7008 37.1868 13.7446 37.4433 13.7822C37.3099 13.7488 37.1722 13.7092 37.0325 13.6466C36.7781 13.5277 36.5925 13.3234 36.4298 13.1357C36.263 12.9438 36.117 12.7436 35.9919 12.5455C35.8939 12.3912 35.8084 12.239 35.7354 12.093C35.5227 12.0138 35.3204 11.8553 35.1682 11.6426C34.9805 11.384 34.8679 11.0482 34.8783 10.7292C34.8825 10.5457 34.8867 10.3205 34.8846 10.1369C34.8846 9.72612 35.0097 9.46337 34.9576 9.10468C35.066 9.4154 35.1786 9.56763 35.2704 9.69067C35.3663 9.81371 35.4476 9.90964 35.5352 10.0806C35.7125 10.4268 35.8564 10.7897 35.9085 11.1713C35.9481 11.4695 35.9606 11.799 35.8897 12.0826C35.9606 12.2035 36.042 12.3287 36.1316 12.4559C36.263 12.6415 36.4111 12.8312 36.5779 13.0106C36.7447 13.192 36.9178 13.3672 37.1264 13.4548C37.337 13.5465 37.5851 13.584 37.8166 13.6403C38.0481 13.6925 38.2691 13.7425 38.4735 13.7884C38.6653 13.8343 38.828 13.8718 38.9719 13.9073C39.2346 13.9052 39.4974 13.8864 39.7581 13.8489C39.5933 13.6737 39.4328 13.4965 39.2826 13.3088C39.2472 13.2629 39.2138 13.2191 39.1804 13.1732C38.9615 13.2983 38.6549 13.3484 38.3379 13.2963C37.9772 13.24 37.6081 13.0481 37.3682 12.7749C37.2264 12.6206 37.0617 12.4246 36.9262 12.2661C36.63 11.9012 36.5612 11.5884 36.2964 11.2776C36.5758 11.5154 36.7718 11.5842 36.9262 11.6426C37.0867 11.6947 37.2139 11.7302 37.4016 11.8219C37.7791 12.0033 38.1523 12.191 38.4881 12.4288C38.6257 12.5288 38.7696 12.6352 38.9031 12.7499C38.657 12.3161 38.4943 11.8553 38.3796 11.3464C38.3609 11.2609 38.3421 11.1755 38.3233 11.09C38.2212 10.9669 38.0919 10.8397 37.9417 10.7292C37.7749 10.6041 37.5851 10.5019 37.4037 10.4331C37.0408 10.2913 36.7301 10.2933 36.7322 10.2662C36.728 10.2495 37.0492 10.2058 37.4412 10.3288C37.6352 10.3872 37.8437 10.4873 38.0251 10.6124C38.1086 10.6708 38.1878 10.7334 38.2587 10.8001C38.2295 10.6708 38.1941 10.5415 38.1565 10.4143C38.0773 10.285 38.0168 10.1369 37.9876 9.97637C37.9855 9.96386 37.9834 9.95134 37.9813 9.93883C37.9584 9.88878 37.9355 9.83665 37.9084 9.7866C37.8854 9.74698 37.8625 9.70944 37.8375 9.6719C37.704 9.46962 37.5247 9.29237 37.3307 9.18185C37.3015 9.16517 37.2702 9.15057 37.241 9.13597C37.068 9.21104 36.9783 9.33199 36.7614 9.37787C36.6342 9.41123 36.4444 9.40289 36.2901 9.35284C36.1316 9.30488 35.9919 9.21313 35.8897 9.1026C35.7709 8.9754 35.6478 8.81899 35.5519 8.69387C35.3392 8.41234 35.3309 8.15793 35.1181 7.95148C35.3517 8.09329 35.5102 8.13291 35.6395 8.15794C35.7709 8.18087 35.8772 8.19339 36.0169 8.24135C36.1441 8.28514 36.2734 8.32894 36.4006 8.37273C36.5153 8.41444 36.6092 8.45406 36.7114 8.51036C36.7927 8.55833 36.947 8.61046 37.0909 8.7043C37.2285 8.78771 37.3474 8.93577 37.3516 9.07132C37.362 9.07549 37.3724 9.07966 37.3828 9.08592C37.5997 9.19227 37.8041 9.37787 37.9542 9.59058C37.9584 9.59475 37.9605 9.60101 37.9647 9.60518C37.9772 9.42792 38.021 9.25066 38.1023 9.09426C38.1795 8.94203 38.2691 8.75434 38.3359 8.59586C38.4193 8.40192 38.5194 8.2622 38.6049 8.11831C38.2837 8.10163 38.0606 8.09746 38.0606 8.08077C38.0606 8.062 38.3046 8.03489 38.6549 8.02864C38.7029 7.93897 38.7425 7.84513 38.7654 7.73252C38.7654 7.84722 38.7717 7.94314 38.7821 8.02656C38.828 8.02656 38.876 8.02656 38.9239 8.02656C39.1658 8.03073 39.439 8.02238 39.7101 8.06826C39.8039 8.08494 39.8957 8.10788 39.9854 8.13499C39.5474 7.72209 39.1554 7.27791 38.8718 6.77951C38.8384 6.75031 38.7967 6.71903 38.7404 6.69401C38.7342 6.68984 38.7258 6.68984 38.7196 6.68567C38.3213 6.80245 37.9855 6.86918 37.5851 6.767C37.4517 6.73155 37.2723 6.71278 37.1222 6.71486C36.7864 6.72321 36.5362 6.64188 36.2338 6.75032C36.7239 6.43126 36.7072 6.25608 37.0388 6.07049C37.2056 5.97873 37.3954 5.90574 37.6039 5.87238C37.8124 5.8411 38.0377 5.85361 38.2441 5.92243C38.3505 5.95788 38.4547 6.01001 38.5486 6.07466C38.534 6.03503 38.5194 5.99542 38.5048 5.94954C38.4547 5.80148 38.4172 5.62631 38.3942 5.44071C38.1774 5.45114 37.9855 5.46156 37.7749 5.4136C37.5309 5.35521 37.289 5.21966 37.1243 5.02155C37.0283 4.90686 36.9011 4.77756 36.7864 4.67955C36.5341 4.46267 36.4236 4.22911 36.14 4.11859C36.6926 4.19366 36.8052 4.07271 37.1514 4.14153C37.4975 4.21035 37.8416 4.35841 38.096 4.60448C38.1899 4.69832 38.2921 4.8151 38.3692 4.94856C38.3734 4.83178 38.3838 4.71709 38.4026 4.61074C38.4088 4.57111 38.4172 4.53149 38.4234 4.49396C38.365 4.44599 38.3108 4.3876 38.2712 4.31461C38.2024 4.19158 38.169 4.03726 38.1711 3.88503C38.1774 3.57639 38.3254 3.28653 38.5319 3.1197C38.6487 3.02378 38.7821 2.90908 38.878 2.80898C38.9823 2.69846 39.0866 2.6213 39.1721 2.53163C39.2555 2.44405 39.3243 2.34395 39.3347 2.21048C39.3785 2.45656 39.3931 2.62338 39.414 2.7631C39.4328 2.90282 39.4432 3.02169 39.4056 3.19061C39.3681 3.35952 39.3097 3.52009 39.2472 3.65772C39.1846 3.79327 39.1158 3.91214 39.0324 4.01641C38.8947 4.18949 38.7321 4.35632 38.5569 4.5732C38.5444 4.56903 38.5319 4.56069 38.5194 4.55443C38.5173 4.57737 38.5131 4.60031 38.511 4.62325C38.5048 4.68998 38.5006 4.7588 38.4985 4.82761C38.5423 4.71918 38.6007 4.61073 38.6633 4.52524C38.78 4.35841 38.9052 4.26456 38.9198 4.27708C38.9364 4.29376 38.8426 4.41262 38.7571 4.58154C38.6674 4.75045 38.5965 4.96942 38.5652 5.13416C38.5548 5.18213 38.5486 5.21966 38.5444 5.25511C38.5944 5.71181 38.7488 6.14139 38.9677 6.53969C38.9635 6.52301 38.9573 6.50633 38.9531 6.48965C38.8864 6.23315 38.9156 5.94119 39.049 5.70972C39.1241 5.57626 39.2159 5.41569 39.2826 5.28222C39.4369 4.98402 39.6496 4.85055 39.731 4.56903C39.7164 4.84012 39.7602 4.99653 39.7977 5.12373C39.8394 5.25094 39.8769 5.35104 39.8936 5.50536C39.9249 5.81608 39.9186 6.11636 39.8185 6.39997C39.731 6.63562 39.5996 6.89212 39.3973 7.08397C39.3389 7.05269 39.2847 7.01307 39.2367 6.96928C39.3765 7.16739 39.5287 7.35716 39.6934 7.5365C39.7497 7.58237 39.8081 7.62825 39.8665 7.67204C40.2669 7.96816 40.7069 8.19964 41.1407 8.44571C40.9342 8.11205 40.7507 7.69081 40.6673 7.31336C40.5526 6.84207 40.5672 6.46462 40.586 6.46462C40.611 6.46462 40.6339 6.83373 40.7736 7.28417C40.8299 7.48436 40.9154 7.69707 41.0135 7.89935C40.978 7.70958 40.9572 7.51564 40.9572 7.33838C40.9572 7.31545 40.9572 7.29251 40.9572 7.26957C40.8487 7.11525 40.7716 6.92549 40.7403 6.71695C40.6923 6.4104 40.7445 6.07466 40.8925 5.80356C40.978 5.64716 41.0781 5.45531 41.1532 5.29473C41.3263 4.93814 41.5494 4.7588 41.6432 4.42097C41.6182 4.74003 41.6578 4.91937 41.6891 5.06952C41.7246 5.21966 41.7579 5.33644 41.7621 5.52621C41.7621 5.58042 41.7621 5.63673 41.7621 5.69095C41.8789 5.64716 41.9852 5.61379 42.1458 5.60545C42.5024 5.59294 42.8861 5.68887 43.1718 5.91409C43.4095 6.09968 43.6076 6.36869 43.6494 6.64813C43.6473 6.64813 43.6431 6.64813 43.641 6.65022C44.0185 6.89421 44.423 7.22161 44.7025 7.49687C44.7504 7.54275 44.7921 7.58654 44.8317 7.62617C44.8067 7.51773 44.7796 7.4072 44.7483 7.29876C44.6378 6.90671 44.471 6.52093 44.2645 6.20812C44.179 6.07466 44.0852 5.95997 43.9934 5.85778C43.787 5.90783 43.5555 5.90575 43.3282 5.85778C43.1802 5.82442 43.0383 5.77436 42.8986 5.70346C42.7568 5.63048 42.6088 5.52621 42.4857 5.3844C42.3397 5.22174 42.1979 4.99236 42.1145 4.80885C42.0186 4.60448 41.9957 4.42514 41.9686 4.26248C41.9435 4.09773 41.9164 3.94551 41.8372 3.78493C42.0332 4.04143 42.1833 4.16238 42.3106 4.2458C42.4378 4.32921 42.5441 4.38969 42.6817 4.4877C42.7506 4.53566 42.8173 4.57737 42.8819 4.61282C42.9445 4.64827 43.0071 4.67747 43.0801 4.715C43.2198 4.78591 43.4033 4.88392 43.5659 5.0153C43.8329 5.23009 44.0768 5.5137 44.1686 5.80565C44.1436 5.81608 44.1165 5.82233 44.0894 5.83067C44.1811 5.92451 44.2729 6.02878 44.3563 6.15181C44.5815 6.4667 44.765 6.86084 44.886 7.26331C44.9861 7.58655 45.0486 7.90978 45.0966 8.20381C45.1446 7.84305 45.1529 7.47393 45.0883 7.09857C44.936 6.19352 44.4939 5.28639 44.446 4.36675C44.3938 4.15195 44.3459 3.89754 44.252 3.65981C44.2041 3.54095 44.1436 3.42834 44.0664 3.32824C43.9893 3.22814 43.8996 3.13639 43.8162 3.04672C43.7411 2.96539 43.6702 2.88823 43.6035 2.81732C43.6014 2.83401 43.5993 2.85069 43.5951 2.86529C43.3532 2.8924 43.1364 2.88823 42.9382 2.83401C42.7422 2.77979 42.5504 2.66301 42.4127 2.47115C42.3356 2.36271 42.2313 2.23759 42.1375 2.14584C41.9289 1.94147 41.8518 1.71834 41.6015 1.61615C42.0978 1.6808 42.2146 1.56194 42.5212 1.62242C42.8298 1.68498 43.1197 1.80801 43.3449 2.06659C43.493 2.23759 43.6076 2.47741 43.6097 2.70263C43.6952 2.78188 43.7891 2.87154 43.8913 2.96747C43.9788 3.05297 44.0748 3.14055 44.1644 3.24691C44.252 3.35326 44.325 3.4763 44.3792 3.60351C44.4105 3.6765 44.4376 3.75157 44.4606 3.82456C44.4668 3.78911 44.4752 3.75157 44.4856 3.71195C44.5023 3.62436 44.5231 3.53678 44.5502 3.44711C44.5502 3.44294 44.5544 3.44085 44.5544 3.43876C44.6191 3.20312 44.7108 2.94036 44.8359 2.68386C44.9131 2.52329 45.0069 2.36897 45.1091 2.223C45.0445 2.13541 45.0194 2.01238 45.057 1.87891C45.0778 1.7955 45.1133 1.71625 45.155 1.64535C45.1758 1.6099 45.1988 1.57653 45.2217 1.54525C45.2405 1.51606 45.2593 1.48895 45.2801 1.46184C45.4448 1.24705 45.6742 1.07605 45.9328 0.994721C46.0809 0.946758 46.2581 0.877942 46.3999 0.80704C46.5543 0.731967 46.7044 0.684004 46.8483 0.638126C46.9943 0.592248 47.1277 0.544279 47.2841 0.46295C47.0401 0.667316 46.9901 0.83415 46.9359 0.963442C46.8858 1.0969 46.8525 1.20951 46.7461 1.35757C46.5334 1.65578 46.2498 1.92062 45.9099 2.06451C45.839 2.09371 45.766 2.12082 45.6909 2.14376C45.6179 2.16461 45.5616 2.16878 45.5032 2.17712C45.4449 2.18546 45.3948 2.18338 45.3385 2.20006C45.3051 2.21049 45.2718 2.22926 45.2426 2.24802C45.1383 2.40234 45.0445 2.56708 44.9652 2.74017C44.8359 3.02378 44.7442 3.31573 44.6795 3.56806C44.6357 3.73697 44.6065 3.8746 44.5815 3.9893C44.5773 4.07897 44.5753 4.16864 44.5815 4.2604C44.5857 4.28125 44.5919 4.30627 44.5961 4.32712C44.6065 4.37509 44.617 4.42097 44.6274 4.46268C44.6608 4.20409 44.7337 3.92465 44.8359 3.69943C44.8797 3.59934 44.9277 3.51175 44.9736 3.43459C44.9506 3.22188 45.0048 2.99041 45.13 2.78605C45.278 2.53997 45.5241 2.33769 45.8014 2.25636C45.9599 2.2084 46.1518 2.15001 46.3061 2.09579C46.6544 1.9811 46.915 2.02906 47.1986 1.881C46.9734 2.06868 46.8838 2.21674 46.8108 2.33561C46.7399 2.45864 46.6898 2.56083 46.5793 2.68803C46.3582 2.94453 46.1163 3.16975 45.8223 3.3199C45.5804 3.44085 45.2926 3.5472 45.009 3.55971C44.9861 3.61602 44.9631 3.67441 44.9402 3.73906C44.8213 4.06437 44.7567 4.48144 44.7629 4.79007C44.7629 4.89017 44.7671 4.96942 44.7713 5.03823C44.8797 5.31976 45.009 5.59711 45.1383 5.87863C45.1738 5.70346 45.2405 5.53455 45.3385 5.39066C45.4386 5.23843 45.5637 5.057 45.6617 4.90268C45.8849 4.56486 46.1351 4.42305 46.2936 4.10608C46.206 4.41679 46.2185 4.60239 46.2248 4.75254C46.2373 4.90477 46.254 5.02572 46.2352 5.21132C46.1998 5.5846 46.133 5.94954 45.987 6.28737C45.8786 6.53135 45.7389 6.78576 45.5616 6.98596C45.741 7.68038 45.7055 8.39983 45.5825 9.11094C45.814 9.22981 45.9683 9.29654 46.1038 9.35076C46.2519 9.41332 46.3749 9.46337 46.5376 9.60309C46.8608 9.88253 47.1257 10.285 47.2112 10.7167C47.2841 11.0754 47.2549 11.4695 47.0944 11.7322C47.0777 11.7239 47.061 11.7114 47.0443 11.703C47.0777 11.8657 47.109 12.0617 47.1277 12.2807C47.1528 12.5789 47.1528 12.9167 47.1173 13.242C47.0985 13.4527 47.0589 13.6591 47.0172 13.8489C47.4823 13.0377 47.7992 12.1597 47.9973 11.238C48.0787 10.8606 48.1516 10.4581 48.233 10.0514C48.233 10.0452 48.233 10.0389 48.233 10.0327C48.2288 9.943 48.2184 9.84916 48.2079 9.75324C48.1996 9.74281 48.1934 9.73238 48.185 9.71987C48.0995 9.59892 48.0078 9.45503 47.9223 9.29654C47.7513 9.19436 47.599 9.05047 47.4718 8.88781C47.3071 8.67093 47.1882 8.4186 47.1423 8.14959C47.1173 7.99319 47.0652 7.80759 47.0068 7.65744C46.8712 7.33004 46.8525 7.05269 46.6106 6.8233C46.8712 6.97762 47.0339 7.05269 47.1778 7.11317C47.3175 7.17573 47.4364 7.22578 47.5865 7.36133C47.6386 7.4072 47.6887 7.45934 47.7367 7.51147C47.6845 7.41138 47.6407 7.30085 47.6094 7.18407C47.5135 6.84207 47.5156 6.44794 47.6282 6.11011C47.6929 5.91617 47.77 5.67844 47.8284 5.48033C47.964 5.04032 48.1725 4.79842 48.2434 4.39594C48.2434 4.76088 48.2976 4.96108 48.3414 5.12582C48.3915 5.29056 48.4353 5.41986 48.4603 5.63674C48.5124 6.07258 48.5291 6.52093 48.4603 6.9526C48.3998 7.31128 48.3018 7.69707 48.1266 7.97234C48.1037 7.95774 48.0828 7.94105 48.062 7.92437C48.0641 7.95148 48.0703 7.97859 48.0724 8.0057C48.135 8.13708 48.1829 8.27471 48.21 8.41652C48.2455 8.59377 48.2538 8.77937 48.2309 8.95246C48.2684 9.15682 48.306 9.3591 48.3352 9.55304C48.5437 8.59378 48.8294 7.63451 49.3966 6.89212C49.4279 6.8379 49.4613 6.77743 49.4988 6.70444C49.6177 6.48131 49.7386 6.18101 49.8199 5.88698C49.5217 5.46365 49.4154 4.8297 49.5426 4.28333C49.5864 4.11233 49.6177 3.89546 49.626 3.71403C49.6427 3.31364 49.7449 3.02795 49.626 2.67343C49.7949 2.9633 49.9096 3.12179 50.0139 3.25316C50.114 3.38663 50.1995 3.49506 50.2787 3.70151C50.4351 4.1165 50.4998 4.60656 50.3997 5.05074C50.3663 5.20297 50.3162 5.35313 50.2537 5.49285C50.3684 5.63048 50.456 5.72223 50.5373 5.79731C50.5519 5.8119 50.5665 5.8265 50.5811 5.8411C50.6374 5.81399 50.6958 5.78897 50.7542 5.76603C51.0002 5.67219 51.2609 5.61379 51.5091 5.58251C51.5278 5.47825 51.5737 5.37189 51.6509 5.27805C51.7468 5.15919 51.8865 5.05909 52.0429 4.99653C52.3578 4.86724 52.7248 4.88183 52.998 5.00487C53.1565 5.07577 53.34 5.1571 53.4943 5.20923C53.6633 5.26762 53.7946 5.33853 53.9281 5.38858C54.0595 5.43863 54.1971 5.46782 54.3493 5.43654C54.0908 5.5554 53.9218 5.62839 53.7863 5.69721C53.6487 5.76394 53.534 5.81607 53.3421 5.84318C53.1523 5.87029 52.9626 5.87864 52.7916 5.87655C52.6206 5.87447 52.46 5.85987 52.3078 5.83067C52.0763 5.78271 51.8365 5.73266 51.6154 5.68678C51.3568 5.72432 51.0837 5.79105 50.8272 5.89323C51.0649 5.85778 51.3256 5.84735 51.5487 5.87446C51.9032 5.90991 52.1597 6.01627 52.1535 6.03295C52.1472 6.05589 51.8844 5.99124 51.5424 5.9829C51.2901 5.97456 51.0003 6.00584 50.7479 6.06006C50.7584 6.07883 50.7688 6.09551 50.7771 6.11637C50.9127 6.41457 50.9502 6.77743 50.8272 7.08814C50.7271 7.34673 50.5331 7.58654 50.2829 7.68664C50.2266 7.62825 50.1786 7.56569 50.1369 7.50104C50.0639 7.61782 49.9805 7.73878 49.8887 7.8639C49.7136 8.09746 49.5322 8.35187 49.3737 8.62505C49.5801 8.4332 49.8262 8.25386 50.0618 8.13083C50.2641 8.02239 50.4497 7.95566 50.5728 7.92229C50.627 7.7492 50.775 7.59072 50.9752 7.48645C50.9335 7.46977 50.8918 7.45517 50.8522 7.43432C50.9022 7.19033 51.0774 6.96511 51.3256 6.82539C51.5696 6.68567 51.8803 6.63562 52.1535 6.70861C52.3099 6.74823 52.4996 6.79828 52.6539 6.83373C53.0022 6.91923 53.1857 7.10066 53.4943 7.13194C53.2107 7.16322 53.0606 7.24246 52.9396 7.30294C52.8187 7.36967 52.7269 7.42806 52.5747 7.47811C52.4579 7.51773 52.3411 7.54901 52.2264 7.57403C52.2348 7.58029 52.2452 7.58446 52.2536 7.59072C52.4079 7.69916 52.583 7.83679 52.7269 7.94314C53.046 8.18505 53.1669 8.44154 53.4797 8.5896C52.8687 8.4478 52.7457 8.5625 52.3808 8.49576C52.0096 8.4332 51.6842 8.36439 51.3798 8.24969C51.1441 8.16002 50.8897 8.06201 50.6353 7.94731C50.5248 7.99945 50.3309 8.08912 50.1181 8.22258C49.7866 8.42486 49.4321 8.74392 49.2131 9.0171C49.1714 9.06715 49.1359 9.11303 49.1047 9.15474C49.0046 9.38204 48.9211 9.60726 48.8586 9.81163C48.8482 9.84499 48.8398 9.87627 48.8315 9.90755C48.8169 10.2141 48.8085 10.5206 48.7939 10.8251C49.0171 11.2046 49.1568 11.2714 49.2882 11.6009C49.3486 11.7573 49.3945 11.922 49.4237 12.0909C49.4738 11.8845 49.5447 11.678 49.6448 11.4841C49.7323 11.3214 49.8158 11.1045 49.8721 10.919C49.9889 10.5061 50.1598 10.237 50.1494 9.83456C50.2975 10.5352 50.456 10.602 50.506 11.067C50.554 11.532 50.4914 12.068 50.2391 12.5122C50.0556 12.8437 49.7616 13.1336 49.4696 13.242C49.382 13.3797 49.284 13.5173 49.1756 13.6549C49.0546 13.8072 48.9191 13.9531 48.7752 14.097C48.869 14.0324 48.9754 13.9844 49.088 13.9594C49.211 13.9323 49.357 13.8823 49.4717 13.828C49.7219 13.705 49.9555 13.6946 50.1098 13.4819C49.9305 13.9386 50.0014 14.0845 49.8408 14.364C49.676 14.6413 49.4195 14.879 49.1067 14.9708C48.8794 15.0396 48.6167 15.0501 48.3935 14.9666C48.3935 14.9666 48.3935 14.9666 48.3915 14.9666C48.0349 15.1835 47.5657 15.3545 47.2341 15.5193C46.9651 15.7632 46.7023 16.0031 46.4563 16.2262C46.4521 16.2304 46.4479 16.2345 46.4437 16.2387C46.3165 16.368 46.1872 16.4952 46.0621 16.6245C46.206 16.5411 46.3582 16.4618 46.5167 16.3889C46.8858 16.2179 47.2779 16.0823 47.6407 15.9989C47.6595 15.9947 47.6783 15.9905 47.697 15.9864C47.6991 15.9572 47.7054 15.928 47.7137 15.8988C47.7367 15.8362 47.7825 15.7758 47.8368 15.7257C47.9431 15.6256 48.0745 15.5651 48.1704 15.5213C48.2205 15.5005 48.2517 15.4796 48.2872 15.465C48.3226 15.4484 48.3581 15.4379 48.3956 15.4254C48.4707 15.4046 48.552 15.3962 48.6459 15.3962C48.7543 15.3962 48.894 15.3691 49.0046 15.3232C49.2485 15.221 49.4821 15.2065 49.6427 14.9979C49.4529 15.4525 49.5322 15.5985 49.3445 15.8779C49.332 15.8967 49.3174 15.9134 49.3028 15.9301C49.8804 15.5443 50.433 15.123 50.946 14.658C51.1003 14.3952 51.2192 14.0553 51.3214 13.7008C51.3172 13.6487 51.311 13.5924 51.3026 13.5194C51.2859 13.315 51.263 13.0564 51.2401 12.8145C50.8876 12.5226 50.677 12.0555 50.6979 11.5988C50.7062 11.4486 50.6979 11.263 50.6728 11.1108C50.6145 10.7792 50.6603 10.5144 50.481 10.2516C50.9022 10.6479 51.0649 10.6353 51.3005 10.9377C51.3965 11.0649 51.4778 11.2067 51.5424 11.3548C51.5758 11.2943 51.6133 11.2359 51.6571 11.1838C51.7552 11.0608 51.8678 10.9085 51.9512 10.7751C52.1034 10.5332 52.2786 10.3914 52.3849 10.1828C52.3432 10.1828 52.3015 10.1807 52.2619 10.1766C52.093 10.1599 51.9387 10.1182 51.7906 10.0473C51.5466 9.92632 51.3089 9.73446 51.1879 9.48839C51.5278 9.13805 52.1222 9.07132 52.5121 9.32156C52.6206 9.39247 52.7582 9.45711 52.8729 9.48631C52.998 9.51968 53.1023 9.55929 53.2066 9.56764C53.3087 9.57598 53.4172 9.54887 53.4818 9.45503C53.413 9.66565 53.2879 9.79703 53.1941 9.90129C53.0919 10.0035 52.9918 10.0827 52.8083 10.1349C52.6873 10.1682 52.5622 10.1828 52.4412 10.1849C52.4412 10.6333 52.5559 10.7438 52.5372 11.0649C52.5184 11.4194 52.4371 11.776 52.2473 12.0763C52.118 12.2807 51.9449 12.4788 51.7405 12.6102C51.726 12.6727 51.7093 12.7374 51.6926 12.802C51.6238 13.0794 51.5487 13.3818 51.4695 13.6841C51.4695 13.705 51.4715 13.7279 51.4736 13.7467H51.4528C51.4444 13.778 51.4382 13.8072 51.4298 13.8364C51.3798 14.0178 51.3235 14.1971 51.2588 14.364C51.4715 14.1533 51.6801 13.9365 51.8761 13.7092C52.1847 13.3505 52.4663 12.9668 52.7207 12.5664C52.9834 12.1514 53.2128 11.7156 53.5006 11.3173C53.6028 11.1755 53.7133 11.042 53.828 10.9127C53.5465 10.4748 53.4923 9.82413 53.6883 9.29445C53.7508 9.1318 53.8071 8.92535 53.8405 8.75018C53.9093 8.36439 54.049 8.10163 53.9823 7.74294C54.2221 8.35396 54.3785 8.40609 54.487 8.82108C54.5912 9.23815 54.5996 9.71362 54.4599 10.1328C54.4286 10.2287 54.389 10.3246 54.3431 10.4143C54.4661 10.3142 54.5933 10.2162 54.7268 10.1307C54.7393 10.1203 54.7518 10.1119 54.7664 10.1015C54.9374 9.97845 55.1376 9.83457 55.342 9.68859C55.4275 9.62394 55.5192 9.56347 55.6068 9.50299C55.4963 9.03587 55.6214 8.46657 55.93 8.05992C56.0343 7.92646 56.1448 7.75129 56.2262 7.59697C56.3992 7.25706 56.6078 7.05895 56.6495 6.70652C56.7016 7.34256 56.8393 7.43431 56.8267 7.8493C56.8101 8.26429 56.6933 8.70638 56.4493 9.05464C56.2491 9.3445 55.9655 9.60309 55.6715 9.69485C55.6631 9.67608 55.6589 9.65313 55.6506 9.63228C55.6089 9.66565 55.5651 9.69693 55.5234 9.73029C55.5317 9.73029 55.538 9.72821 55.5443 9.73029C55.7007 9.68859 55.8696 9.66148 56.0426 9.65522C56.3409 9.6448 56.6432 9.69484 56.9018 9.76992C56.9435 9.78243 56.9831 9.79494 57.0228 9.80746C57.0207 9.8012 57.0144 9.79703 57.0123 9.79077C57.2021 9.62603 57.4753 9.55095 57.7526 9.58015C58.03 9.60726 58.3094 9.74281 58.4929 9.95343C58.5472 10.0139 58.6056 10.0786 58.6639 10.1453C58.7203 10.2099 58.7745 10.2683 58.8266 10.3163C58.9392 10.4226 59.0143 10.5227 59.104 10.5936C59.1915 10.6645 59.3042 10.7042 59.4105 10.6562C59.3271 10.7292 59.227 10.773 59.1394 10.8001C59.0497 10.8272 58.9684 10.8439 58.8954 10.8564C58.7474 10.8793 58.6181 10.8856 58.4366 10.8397C58.2552 10.7897 58.1092 10.7396 57.9612 10.675C57.8152 10.6103 57.6797 10.5311 57.5524 10.4331C57.3856 10.2996 57.2167 10.1328 57.0937 9.93883C57.0228 9.91798 56.9498 9.89713 56.8705 9.87836C56.6161 9.81788 56.3263 9.78243 56.0468 9.79911C55.8529 9.80954 55.6673 9.84916 55.5005 9.90129C55.3253 9.97428 55.1564 10.0577 54.9937 10.1515C54.975 10.1641 54.9562 10.1786 54.9395 10.1912L54.9353 10.187C54.6705 10.3476 54.4265 10.5394 54.2075 10.7605C54.1721 10.7959 54.1366 10.8355 54.1033 10.8731C54.2889 10.7813 54.5203 10.7 54.7456 10.6437C54.8519 10.4748 55.0271 10.3225 55.2523 10.2308C55.586 10.0848 56.0239 10.089 56.3471 10.2537C56.5348 10.3455 56.7454 10.4685 56.9123 10.5707C57.2834 10.8043 57.4253 11.0712 57.7589 11.238C57.4357 11.1463 57.2417 11.1442 57.0832 11.1483C56.9248 11.1546 56.7996 11.1671 56.6078 11.1483C56.4284 11.1337 56.2449 11.1191 56.0635 11.1025C55.8925 11.09 55.7278 11.0753 55.5547 11.0524C55.269 11.0107 54.9374 10.9836 54.635 10.9085C54.6413 10.8731 54.6517 10.8397 54.6642 10.8043C54.4536 10.8772 54.2451 10.9669 54.0845 11.0566C53.9907 11.1066 53.9156 11.1525 53.8572 11.1859L53.853 11.1775C53.6403 11.4653 53.461 11.776 53.2837 12.0868C53.2086 12.2181 53.1315 12.3474 53.0543 12.4767C53.0043 12.5998 52.9563 12.7228 52.9021 12.8437C52.8395 12.9876 52.7707 13.1294 52.6977 13.2692C52.9313 13.1002 53.1961 12.9376 53.4839 12.8062C53.901 12.6143 54.3535 12.483 54.7706 12.4267C54.9186 12.4058 55.0604 12.3933 55.1939 12.3891C55.3441 12.2327 55.5651 12.1201 55.8154 12.0826C56.1219 12.0346 56.4618 12.1014 56.7183 12.2744C56.8643 12.3724 57.0436 12.4913 57.1917 12.5893C57.517 12.8125 57.64 13.0606 57.9382 13.2274C57.6421 13.1315 57.4607 13.1419 57.3168 13.1482C57.1708 13.1607 57.0561 13.1774 56.8789 13.1628C56.5265 13.1336 56.1907 13.0836 55.8716 12.9563C55.6235 12.8542 55.3566 12.7186 55.1459 12.5372C55.0354 12.5497 54.9186 12.5664 54.7977 12.5914C54.3994 12.6665 53.9698 12.8083 53.5778 13.0022C53.1836 13.1962 52.8312 13.4402 52.5601 13.68C52.4913 13.7384 52.4329 13.7947 52.3766 13.851C52.1639 14.2034 51.9345 14.5412 51.6843 14.8645C52.1764 14.6976 52.7415 14.5496 53.2358 14.4682C53.3129 14.4557 53.3859 14.4432 53.4589 14.4328C53.5673 14.2034 53.7863 14.0136 54.0574 13.9135C54.3306 13.8093 54.6538 13.7967 54.9291 13.8948C55.0896 13.949 55.2815 14.0157 55.4442 14.0616C55.8028 14.17 55.9968 14.3598 56.3242 14.3973C56.0239 14.4244 55.8612 14.4933 55.7298 14.5496C55.5964 14.61 55.4942 14.6622 55.3211 14.7018C55.1939 14.731 55.0667 14.7518 54.9374 14.7664C54.9458 14.9208 54.9603 15.0334 54.977 15.1356C54.9979 15.2857 55.0167 15.4087 54.9812 15.6027C54.9103 15.9885 54.7226 16.3826 54.4244 16.6516C54.1825 16.8727 53.8635 17.0353 53.5736 17.0416C53.4172 17.1896 53.2316 17.3585 53.0126 17.5254C52.9271 17.59 52.8374 17.6567 52.7436 17.7193C53.1106 17.6567 53.511 17.6171 53.8968 17.6025C54.0657 17.4315 54.3035 17.3064 54.5704 17.2397C54.7205 17.2001 54.879 17.1813 55.0375 17.1813C55.2002 17.1834 55.3649 17.2105 55.5213 17.2668C55.7006 17.3314 55.9238 17.4086 56.1094 17.4837C56.3158 17.565 56.4701 17.6818 56.6057 17.7986C56.7412 17.9195 56.858 18.0384 57.0082 18.1718C56.6954 17.9883 56.4994 18.0133 56.3513 18.0279C56.2011 18.0509 56.0906 18.0843 55.9092 18.1009C55.5484 18.1385 55.1585 18.1739 54.7435 18.0968C54.4724 18.0425 54.1929 17.9383 53.9761 17.786C53.3734 17.8319 52.729 17.9362 52.2348 18.0613C52.093 18.0947 51.9741 18.128 51.8657 18.1572C51.8573 18.1593 51.849 18.1635 51.8407 18.1656C51.58 18.2552 51.3151 18.2928 51.0691 18.3157C51.3256 18.3762 51.5821 18.4471 51.8302 18.5389C52.4663 18.7724 53.0481 19.1269 53.6299 19.4752C53.7112 19.5231 53.7926 19.5711 53.8739 19.6191C54.2117 19.6691 54.5871 19.7046 54.9708 19.7108C55.0208 19.7108 55.0709 19.7108 55.1209 19.7108V19.6962C55.148 19.7004 55.1772 19.7046 55.2043 19.7108C55.6277 19.7087 56.051 19.6754 56.4347 19.617C56.5619 19.5982 56.6849 19.5753 56.8017 19.5523C56.8893 19.3146 57.0666 19.1061 57.2918 18.9601C57.4044 18.885 57.5295 18.8266 57.6609 18.787C57.7923 18.7474 57.9299 18.7286 58.0425 18.7349C58.1781 18.7411 58.3136 18.7265 58.4304 18.6682C58.6848 18.5409 58.9371 18.4429 59.0831 18.1656C59.0101 18.445 58.9934 18.6139 58.9684 18.7641C58.9413 18.9121 58.9184 19.0414 58.7828 19.2166C58.714 19.3021 58.6243 19.3855 58.5263 19.4543C58.4283 19.5211 58.3282 19.5732 58.2323 19.6107C58.0446 19.6858 57.8757 19.7275 57.688 19.74C57.4315 19.7567 57.1521 19.7254 56.9248 19.6253C56.7767 19.6629 56.6203 19.6962 56.4535 19.7275C56.2303 19.7692 55.9926 19.8005 55.7486 19.8234C56.0739 19.8943 56.441 19.9882 56.7579 20.0737C56.9706 19.9652 57.2042 19.911 57.4336 19.9069C57.6776 19.9027 57.9132 19.9527 58.1301 20.0674C58.2531 20.1342 58.4179 20.1967 58.5576 20.2301C58.8662 20.2968 59.0914 20.4282 59.3813 20.3406C59.1436 20.4824 59.0039 20.5804 58.8871 20.6701C58.7682 20.7556 58.6702 20.8265 58.4846 20.8765C58.1176 20.9766 57.6838 20.96 57.3356 20.7764C57.077 20.643 56.8497 20.4282 56.7475 20.1863C56.3263 20.1008 55.8133 19.9965 55.4337 19.9194C55.3149 19.8943 55.2169 19.8735 55.1355 19.8568C55.0792 19.8568 55.0229 19.861 54.9666 19.861C54.708 19.861 54.4515 19.8464 54.2096 19.8214C55.5443 20.5909 56.9414 21.2853 58.4262 21.5981C58.6264 21.4813 58.8787 21.4 59.1436 21.3624C59.5169 21.3082 59.9047 21.327 60.2467 21.4083C60.2801 21.4167 60.3156 21.4229 60.351 21.4313C60.5387 20.6638 60.6784 19.8777 60.7597 19.0748C60.6721 19.3438 60.5178 19.5982 60.2968 19.7776C60.2384 19.8234 60.1779 19.8672 60.1112 19.9048C60.0465 19.9444 59.9631 19.9924 59.8776 20.0215C59.7921 20.0528 59.6879 20.0737 59.6024 20.0591C59.5148 20.0445 59.4418 20.0028 59.3938 19.9402C59.4585 19.8526 59.4939 19.74 59.4877 19.6524C59.4918 19.5586 59.4877 19.4752 59.5356 19.3542C59.617 19.1311 59.7546 18.9351 59.9485 18.7954C60.0611 18.7161 60.1863 18.6035 60.278 18.4992C60.4782 18.2698 60.6993 18.1531 60.7722 17.8757C60.766 18.1426 60.7931 18.3032 60.814 18.4429C60.839 18.0613 60.8536 17.6776 60.8536 17.2897C60.8536 17.1625 60.8536 17.0332 60.8494 16.906L60.8306 16.8998ZM29.7212 12.8417C30.0424 12.8125 30.3823 12.8729 30.645 13.0606C30.864 13.217 31.0559 13.4506 31.1143 13.7154C30.7097 13.9844 30.1904 13.974 29.8484 13.6883C29.7504 13.6049 29.619 13.5152 29.5043 13.4548C29.252 13.3234 29.106 13.1378 28.8391 13.1315C29.3229 13.0189 29.4001 12.875 29.7191 12.8417H29.7212ZM31.3499 9.53844C31.1163 9.43835 30.9182 9.2736 30.766 9.08384C30.6159 8.89198 30.5116 8.67302 30.474 8.4332C30.4532 8.29348 30.4052 8.12665 30.3489 7.99319C30.2196 7.70541 30.1925 7.44683 29.9506 7.2654C30.205 7.37176 30.3656 7.42597 30.5053 7.46768C30.643 7.51147 30.7597 7.54901 30.9099 7.66579C31.2081 7.89935 31.4521 8.25177 31.5146 8.63757C31.5689 8.95663 31.5209 9.30905 31.3478 9.53844H31.3499ZM32.8055 7.34256C32.7805 7.53858 32.6887 7.75755 32.5094 7.92854C32.0631 7.84513 31.7837 7.48436 31.8817 7.12359C31.9088 7.01932 31.9317 6.8942 31.938 6.79202C31.9526 6.56472 32.0693 6.39789 31.9859 6.21021C32.2591 6.51259 32.4239 6.50424 32.5803 6.6961C32.7387 6.88586 32.8347 7.10691 32.8055 7.34256ZM33.1329 6.2686C32.8952 6.26443 32.6637 6.1393 32.5135 5.93702C32.3613 5.73683 32.2925 5.46365 32.3509 5.21758C32.3822 5.07577 32.4218 4.90686 32.4468 4.76923C32.5114 4.46059 32.6824 4.29793 32.6929 4.02892C32.7429 4.27708 32.8284 4.40428 32.8993 4.50438C32.9744 4.60448 33.037 4.67955 33.0974 4.80467C33.2163 5.05492 33.2997 5.29057 33.2935 5.55124C33.2851 5.76811 33.2476 6.02253 33.135 6.26651L33.1329 6.2686ZM34.0192 10.4226C33.7877 10.2996 33.5979 10.0806 33.4728 9.81997C33.4102 9.69068 33.3644 9.55095 33.3393 9.40707C33.3122 9.26109 33.3081 9.10468 33.331 8.95454C33.3581 8.7752 33.3894 8.55624 33.4165 8.37481C33.4478 8.17044 33.5228 8.00361 33.6021 7.85347C33.6834 7.70332 33.7647 7.56986 33.8523 7.40095C33.7647 7.73252 33.8377 7.9056 33.8899 8.03698C33.9503 8.16836 34.0108 8.2622 34.0671 8.42486C34.1839 8.74601 34.3049 9.10052 34.2923 9.50716C34.2819 9.83457 34.2006 10.1849 34.0212 10.4247L34.0192 10.4226ZM34.9659 7.37384C34.7303 7.28625 34.5301 7.09023 34.4529 6.85041C34.407 6.71486 34.3549 6.5522 34.309 6.42083C34.211 6.12262 34.2798 5.90157 34.161 5.66593C34.3236 5.8557 34.4613 5.92034 34.5697 5.97248C34.6823 6.02044 34.7761 6.05172 34.8867 6.12471C35.1119 6.27277 35.2975 6.42083 35.4205 6.63771C35.5227 6.81913 35.6207 7.05061 35.6562 7.31336C35.4581 7.44057 35.1974 7.46351 34.9617 7.37384H34.9659ZM36.5007 5.37815C36.3131 5.55957 36.042 5.67635 35.7229 5.67844C35.5644 5.67844 35.3913 5.64716 35.2266 5.57626C35.0618 5.50536 34.9054 5.39483 34.7907 5.25094C34.6552 5.08828 34.5301 4.86932 34.4529 4.70666C34.3632 4.52523 34.332 4.37092 34.2819 4.23329C34.234 4.09565 34.1693 3.97053 34.0421 3.88712C34.3028 3.9893 34.4696 4.0894 34.6093 4.14987C34.749 4.21452 34.8637 4.26874 35.0055 4.36883C35.1515 4.46893 35.2641 4.52941 35.3892 4.58988C35.5102 4.65244 35.6437 4.71709 35.7855 4.80467C36.0211 4.94856 36.3214 5.13208 36.4966 5.37607L36.5007 5.37815ZM40.8466 3.73488C40.7153 4.00806 40.4879 4.25414 40.2231 4.34381C40.0771 4.14153 39.9979 3.9038 39.9791 3.67024C39.9604 3.43668 40 3.2052 40.1105 2.99875C40.1751 2.87988 40.2356 2.72348 40.2711 2.59002C40.342 2.29598 40.4817 2.08954 40.4108 1.8101C40.538 2.04157 40.6318 2.17503 40.7173 2.28764C40.7987 2.40025 40.8696 2.4941 40.9175 2.6651C41.0155 3.0071 41.0114 3.4054 40.8487 3.7328L40.8466 3.73488ZM48.4936 2.12498C48.4749 2.2647 48.4665 2.37731 48.4227 2.53163C48.381 2.68595 48.3498 2.82567 48.2935 2.98207C48.2392 3.1343 48.16 3.3053 48.0515 3.45128C47.8722 3.69526 47.622 3.92048 47.3467 4.00806C47.2174 3.7891 47.1715 3.51801 47.2007 3.25108C47.2341 2.98624 47.3321 2.72765 47.5365 2.50452C47.6512 2.3794 47.8055 2.21883 47.9327 2.10205C48.2142 1.84138 48.4811 1.80175 48.6751 1.55151C48.552 1.81218 48.5145 1.98318 48.4936 2.1229V2.12498ZM51.6384 3.52009C51.555 3.73071 51.3986 3.94342 51.1712 4.06645C50.7771 3.8183 50.6228 3.35118 50.8167 2.99249C50.873 2.88823 50.9293 2.75893 50.9627 2.64841C51.0378 2.40442 51.1942 2.25428 51.1587 2.0228C51.3485 2.42736 51.5091 2.46698 51.6092 2.72557C51.7093 2.98415 51.7385 3.26568 51.6384 3.52009ZM54.8352 6.98596C54.6726 7.17573 54.4307 7.32171 54.17 7.33005C53.9385 6.91923 53.9531 6.48339 54.2284 6.21229C54.3097 6.13305 54.3931 6.0267 54.4515 5.92869C54.5725 5.71598 54.7497 5.58668 54.7414 5.35312C54.8811 5.77854 55.025 5.85361 55.0646 6.14556C55.1001 6.44168 55.0333 6.75866 54.8352 6.98388V6.98596ZM57.738 8.81899C57.5775 8.93994 57.3543 9.02753 57.1041 9.01085C56.9832 8.81691 56.9394 8.61254 56.9644 8.43112C56.9894 8.24969 57.0874 8.09746 57.2292 8.01821C57.3126 7.97234 57.4023 7.90352 57.4586 7.83888C57.5191 7.76797 57.59 7.71375 57.64 7.64911C57.6901 7.58655 57.7193 7.50939 57.688 7.42806C57.8069 7.56361 57.8799 7.68456 57.9403 7.78465C57.9987 7.88684 58.0425 7.98276 58.0446 8.12665C58.0446 8.4186 57.9257 8.67927 57.738 8.81899ZM55.3899 19.0581C55.0917 19.2354 54.7456 19.3521 54.3973 19.3334C54.1095 19.3188 53.7967 19.2354 53.5798 19.056C53.7821 18.5972 54.3285 18.3032 54.8331 18.3783C54.9791 18.3991 55.1585 18.4137 55.3065 18.4116C55.6339 18.4075 55.8675 18.5097 56.149 18.4054C55.6923 18.714 55.6881 18.8809 55.3899 19.0581ZM58.1009 11.8991C58.5388 11.7343 59.0351 11.9575 59.1603 12.3724C59.1978 12.4913 59.2499 12.6289 59.3 12.7374C59.4147 12.9793 59.3917 13.1962 59.5606 13.3609C59.1582 13.1524 59.0101 13.2337 58.7682 13.1127C58.5263 12.996 58.3199 12.8333 58.2093 12.5998C58.1176 12.4037 58.0592 12.1556 58.1009 11.9012V11.8991ZM57.6818 14.6955C57.6692 14.8415 57.663 14.9646 57.5858 15.1418C57.4336 15.4942 57.1646 15.8237 56.8163 16.0031C56.5285 16.1532 56.1782 16.2262 55.8988 16.1449C55.9154 15.8884 56.0135 15.6423 56.1573 15.4317C56.3012 15.221 56.4931 15.0459 56.7225 14.9354C56.8559 14.8728 57.0103 14.7748 57.127 14.6809C57.3835 14.4703 57.6317 14.3807 57.7631 14.095C57.7068 14.3744 57.6922 14.5454 57.6818 14.6935V14.6955ZM58.9663 16.8309C58.9204 16.9686 58.8495 17.0979 58.7536 17.2084C58.593 17.3919 58.3616 17.5504 58.1009 17.5942C57.8277 17.2063 57.8715 16.6745 58.1906 16.3889C58.2782 16.3138 58.3699 16.2158 58.4221 16.1261C58.4784 16.0281 58.5388 15.953 58.5722 15.8696C58.6035 15.7883 58.5993 15.6944 58.5242 15.6339C58.7057 15.6965 58.8141 15.8383 58.8933 15.9447C58.9705 16.0573 59.0247 16.1657 59.0372 16.3409C59.0477 16.514 59.0164 16.6891 58.9663 16.833V16.8309Z" fill="#0A322D"/>
<path d="M59.2969 22.2278C58.9716 22.1549 58.6546 22.0402 58.4023 21.8921C58.2417 21.8754 58.0812 21.8546 57.9227 21.8316C57.9269 21.842 57.9331 21.8525 57.9373 21.8629C57.9957 21.9985 58.0603 22.1632 58.1208 22.2946C58.248 22.5907 58.2063 22.8263 58.3564 23.0599C58.1688 22.8806 58.0249 22.8243 57.9081 22.7784C57.7871 22.7367 57.6912 22.7096 57.5682 22.6366C57.3221 22.4927 57.1115 22.3363 56.9613 22.1111C56.8654 21.963 56.7737 21.7878 56.7153 21.5897C56.5338 21.5438 56.3524 21.4959 56.171 21.4417C55.1116 21.1289 54.1211 20.6555 53.1347 20.1675C52.5758 19.8922 52.0128 19.617 51.4351 19.3834C51.4748 19.4564 51.506 19.5336 51.529 19.6128C51.5769 19.7755 51.6312 19.9757 51.6812 20.1341C51.7876 20.4949 51.7271 20.7597 51.8605 21.06C51.6854 20.8161 51.5415 20.716 51.4247 20.6367C51.3038 20.5596 51.2057 20.5032 51.0806 20.3844C50.8304 20.1487 50.6093 19.8985 50.4592 19.6003C50.3674 19.4126 50.2798 19.1999 50.236 18.9809C50.2131 18.9747 50.1923 18.9684 50.1693 18.9622C49.1162 18.7015 48.0047 18.6911 46.9453 18.9225C46.8724 18.9392 46.7994 18.958 46.7243 18.9768C46.1967 19.3062 45.7963 19.8443 45.5502 20.424C45.2416 21.156 45.1457 21.9567 45.0706 22.7471C44.9205 24.3069 44.8662 26.0086 45.4585 27.4454C45.4585 27.4454 45.4585 27.4454 45.4606 27.4454C45.9485 28.4068 46.8307 29.2659 47.9067 29.3306C48.7367 29.3785 49.6209 28.9615 50.3653 29.3264C50.8491 29.5641 51.1474 30.0855 51.6353 30.3107C52.2088 30.5755 52.874 30.3712 53.4996 30.2794C53.9918 30.2064 54.4881 30.2085 54.9844 30.2461C57.3617 28.1482 59.1593 25.4059 60.0998 22.2925C59.8245 22.3071 59.5514 22.2862 59.299 22.2278H59.2969Z" fill="#0A322D"/>
</svg>
