<svg width="128" height="128" viewBox="0 0 128 128" fill="none" xmlns="http://www.w3.org/2000/svg">
<g clip-path="url(#clip0_180_135)">
<path d="M80.8857 82.6035C100.454 82.6035 116.375 66.6836 116.375 47.1143C116.375 27.5459 100.454 11.625 80.8857 11.625C61.3174 11.625 45.3965 27.5459 45.3965 47.1143C45.3965 66.6836 61.3174 82.6035 80.8857 82.6035ZM80.8857 16.625C97.6973 16.625 111.375 30.3027 111.375 47.1143C111.375 63.9258 97.6973 77.6035 80.8857 77.6035C64.0742 77.6035 50.3965 63.9268 50.3965 47.1143C50.3965 30.3027 64.0742 16.625 80.8857 16.625Z" fill="white"/>
<path d="M80.5146 94.9707C106.698 94.9707 128 73.6689 128 47.4854C128 21.3018 106.698 0 80.5146 0C54.3311 0 33.0293 21.3018 33.0293 47.4854C33.0293 57.4229 36.0996 66.6543 41.3389 74.2881L33.5713 82.0557L32.5137 80.998C31.5371 80.0215 29.9541 80.0215 28.9775 80.998L3.7334 106.242C1.32617 108.649 0 111.851 0 115.255C0 118.659 1.32617 121.859 3.7334 124.267C6.14062 126.674 9.34082 128 12.7451 128C16.1494 128 19.3506 126.674 21.7578 124.267L47.0029 99.0225C47.4717 98.5537 47.7344 97.918 47.7344 97.2549C47.7344 96.5918 47.4717 95.9551 47.0029 95.4863L45.9443 94.4287L53.7119 86.6611C61.3457 91.9004 70.5781 94.9707 80.5146 94.9707ZM80.5146 5C103.941 5 123 24.0586 123 47.4854C123 70.9121 103.941 89.9707 80.5146 89.9707C57.0889 89.9707 38.0293 70.9121 38.0293 47.4854C38.0293 24.0586 57.0889 5 80.5146 5ZM18.2227 120.731C16.7588 122.194 14.8145 123 12.7451 123C10.6758 123 8.73145 122.194 7.26855 120.731C4.24805 117.712 4.24805 112.798 7.26855 109.777L30.7451 86.3008L31.8027 87.3574C31.8027 87.3584 31.8037 87.3584 31.8037 87.3594L41.6992 97.2549L18.2227 120.731ZM42.4092 90.8926L37.1074 85.5908L44.4082 78.29C46.0342 80.1924 47.8076 81.9658 49.71 83.5918L42.4092 90.8926Z" fill="white"/>
<path d="M72.3271 40.543C73.708 40.543 74.8271 39.4238 74.8271 38.043C74.8271 36.3223 75.5635 34.6768 76.8457 33.5283C78.1465 32.3633 79.8291 31.8291 81.5859 32.0234C84.3613 32.3301 86.5986 34.5674 86.9053 37.3428C87.1748 39.79 85.9707 42.1426 83.8359 43.3359C80.4746 45.2158 78.3857 48.6924 78.3857 52.4082V55.9756C78.3857 57.3565 79.5049 58.4756 80.8857 58.4756C82.2656 58.4756 83.3857 57.3565 83.3857 55.9756V52.4082C83.3857 50.501 84.4932 48.6973 86.2764 47.7002C90.1689 45.5234 92.3662 41.2422 91.875 36.794C91.3135 31.7109 87.2168 27.6152 82.1348 27.0537C78.9941 26.707 75.8486 27.709 73.5098 29.8037C71.1699 31.8994 69.8271 34.9024 69.8271 38.043C69.8271 39.4238 70.9463 40.543 72.3271 40.543Z" fill="white"/>
<path d="M80.8848 63.2227C80.2275 63.2227 79.583 63.4902 79.1182 63.9551C78.6533 64.4199 78.3848 65.0654 78.3848 65.7227C78.3848 66.3828 78.6523 67.0254 79.1182 67.4902C79.583 67.957 80.2275 68.2227 80.8848 68.2227C81.543 68.2227 82.1875 67.957 82.6523 67.4902C83.1172 67.0254 83.3848 66.3799 83.3848 65.7227C83.3848 65.0654 83.1182 64.4199 82.6523 63.9551C82.1875 63.4902 81.543 63.2227 80.8848 63.2227Z" fill="white"/>
</g>
<defs>
<clipPath id="clip0_180_135">
<rect width="128" height="128" fill="white"/>
</clipPath>
</defs>
</svg>
