<svg width="128" height="128" viewBox="0 0 128 128" fill="none" xmlns="http://www.w3.org/2000/svg">
<g clip-path="url(#clip0_180_147)">
<path d="M36.881 54.677H119.252C121.668 54.677 123.847 55.662 125.43 57.244V57.259C127.012 58.842 127.998 61.021 127.998 63.422V119.253C127.998 121.653 127.012 123.847 125.43 125.429C123.847 127.013 121.668 127.997 119.252 127.997H36.881C34.48 127.997 32.286 127.013 30.704 125.429C29.121 123.847 28.136 121.667 28.136 119.253V63.422C28.136 61.021 29.121 58.827 30.704 57.244C32.287 55.662 34.48 54.677 36.881 54.677ZM119.252 58.675H36.881C35.576 58.675 34.396 59.216 33.536 60.076C32.675 60.937 32.134 62.117 32.134 63.422V119.253C32.134 120.558 32.675 121.751 33.536 122.612C34.395 123.471 35.576 123.999 36.881 123.999H119.252C120.557 123.999 121.75 123.472 122.611 122.612C123.471 121.751 124 120.557 124 119.253V63.422C124 62.117 123.472 60.924 122.611 60.063V60.077C121.75 59.217 120.557 58.675 119.252 58.675Z" fill="white"/>
<path d="M61.368 38.006H94.78C96.682 38.006 98.43 38.783 99.68 40.046C100.929 41.309 101.721 43.045 101.721 44.946V56.675V58.674H99.721H91.282H89.284V56.675V50.18H66.865V56.676V58.675H64.865H56.426H54.427V56.676V44.946C54.427 43.045 55.204 41.295 56.453 40.046C57.716 38.783 59.453 38.006 61.368 38.006ZM94.779 42.004H61.368C60.562 42.004 59.827 42.336 59.285 42.878C58.758 43.406 58.426 44.141 58.426 44.946V54.676H62.867V48.18V46.182H64.866H91.282H93.282V48.18V54.677H97.723V44.947C97.723 44.141 97.39 43.406 96.863 42.879H96.848C96.32 42.337 95.585 42.004 94.779 42.004Z" fill="white"/>
<path d="M22.084 108.495C23.181 108.495 24.083 109.382 24.083 110.493C24.083 111.589 23.181 112.491 22.084 112.491H5.997C4.359 112.491 2.86 111.811 1.763 110.729V110.715C0.68 109.632 0 108.134 0 106.481V5.996C0 4.358 0.68 2.859 1.763 1.763C2.845 0.68 4.344 0 5.997 0H62.228C63.089 0 63.894 0.167 64.645 0.5C65.381 0.833 66.047 1.318 66.644 1.943L81.733 18.087C81.774 18.129 81.802 18.17 81.844 18.212C82.328 18.753 82.676 19.351 82.926 19.975C83.176 20.656 83.315 21.377 83.315 22.141V31.941C83.315 33.051 82.413 33.94 81.316 33.94C80.206 33.94 79.303 33.051 79.303 31.941V22.141C79.303 21.863 79.276 21.614 79.192 21.391C79.109 21.211 79.012 21.044 78.887 20.877C78.859 20.85 78.83 20.836 78.803 20.808L63.728 4.664C63.519 4.442 63.284 4.275 63.034 4.15C62.799 4.053 62.535 3.998 62.229 3.998H5.997C5.456 3.998 4.956 4.22 4.595 4.595L4.581 4.581C4.22 4.941 3.998 5.455 3.998 5.996V106.481C3.998 107.036 4.22 107.536 4.581 107.897L4.595 107.911C4.956 108.259 5.455 108.495 5.997 108.495H22.084Z" fill="white"/>
<path d="M70.821 91.116L36.521 84.604C34.203 84.174 32.064 83.161 30.525 81.62C29.052 80.149 28.136 78.22 28.136 75.901H32.134C32.134 77.081 32.607 78.053 33.356 78.803C34.314 79.746 35.716 80.399 37.257 80.69L71.557 87.2L70.821 91.116ZM127.997 75.901C127.997 78.219 127.081 80.135 125.609 81.606V81.62C124.068 83.161 121.931 84.175 119.627 84.604L85.326 91.17L84.577 87.256L118.877 80.69C120.432 80.385 121.834 79.747 122.791 78.803C123.541 78.053 123.999 77.08 123.999 75.901H127.997Z" fill="white"/>
<path d="M50.943 17.864C52.053 17.864 52.942 18.753 52.942 19.863C52.942 20.96 52.053 21.862 50.943 21.862H23.043C21.932 21.862 21.043 20.96 21.043 19.863C21.043 18.753 21.932 17.864 23.043 17.864H50.943ZM13.519 17.864C14.63 17.864 15.533 18.753 15.533 19.863C15.533 20.96 14.631 21.862 13.519 21.862H12.021C10.923 21.862 10.021 20.96 10.021 19.863C10.021 18.753 10.923 17.864 12.021 17.864H13.519Z" fill="white"/>
<path d="M37.797 36.007C38.894 36.007 39.796 36.908 39.796 38.006C39.796 39.116 38.894 40.004 37.797 40.004H23.042C21.932 40.004 21.043 39.116 21.043 38.006C21.043 36.909 21.932 36.007 23.042 36.007H37.797ZM13.52 36.007C14.63 36.007 15.533 36.908 15.533 38.006C15.533 39.116 14.631 40.004 13.52 40.004H12.021C10.924 40.004 10.021 39.116 10.021 38.006C10.021 36.909 10.923 36.007 12.021 36.007H13.52Z" fill="white"/>
<path d="M50.943 26.942C52.053 26.942 52.942 27.831 52.942 28.941C52.942 30.037 52.053 30.94 50.943 30.94H23.043C21.932 30.94 21.043 30.038 21.043 28.941C21.043 27.831 21.932 26.942 23.043 26.942H50.943ZM13.519 26.942C14.63 26.942 15.533 27.831 15.533 28.941C15.533 30.037 14.631 30.94 13.519 30.94H12.021C10.923 30.94 10.021 30.038 10.021 28.941C10.021 27.831 10.923 26.942 12.021 26.942H13.519Z" fill="white"/>
<path d="M64.283 0.735L82.48 20.488C83.216 21.293 83.175 22.556 82.355 23.305C81.98 23.652 81.496 23.833 81.009 23.833H68.475C66.338 23.833 64.408 22.958 63.006 21.557C62.965 21.515 62.922 21.474 62.881 21.432C61.548 20.043 60.729 18.156 60.729 16.087V1.999C60.729 0.902 61.618 0 62.729 0C63.352 0 63.908 0.291 64.283 0.735ZM76.457 19.836L64.727 7.12V16.088C64.727 17.087 65.116 17.989 65.741 18.655C65.768 18.683 65.797 18.711 65.825 18.739C66.505 19.419 67.448 19.835 68.475 19.835L76.457 19.836Z" fill="white"/>
<path d="M90.893 10.771C90.671 11.853 89.617 12.547 88.534 12.312C87.451 12.089 86.757 11.035 86.979 9.96499L87.743 6.32799L88.742 1.59499C88.936 0.651986 89.769 -0.00201416 90.699 -0.00201416H94.197H97.695C98.708 -0.00201416 99.542 0.747986 99.68 1.73299L101.151 8.72899C102.178 9.02099 103.178 9.36799 104.149 9.76999C105.135 10.173 106.092 10.645 107.008 11.159L113.13 7.16099C113.921 6.64699 114.962 6.77199 115.614 7.42499H115.629L118.1 9.89599C118.127 9.93799 118.169 9.96599 118.198 10.007L120.571 12.381C121.264 13.061 121.335 14.144 120.794 14.921L116.837 20.986C117.364 21.903 117.823 22.86 118.239 23.846C118.628 24.817 118.975 25.817 119.266 26.844L126.401 28.357C127.387 28.551 128.053 29.44 127.998 30.411V33.8V37.298C127.998 38.311 127.249 39.158 126.263 39.283L119.267 40.754C118.976 41.795 118.628 42.795 118.24 43.752C117.657 45.154 116.963 46.486 116.172 47.723C115.59 48.666 114.354 48.944 113.41 48.347C112.48 47.75 112.203 46.515 112.799 45.584C113.48 44.516 114.063 43.391 114.549 42.226C115.021 41.087 115.395 39.921 115.673 38.728C115.798 37.937 116.408 37.284 117.228 37.104L124 35.688V33.8H124.014V31.926L117.226 30.496C116.491 30.344 115.866 29.774 115.685 28.983C115.421 27.748 115.033 26.554 114.547 25.375C114.061 24.209 113.478 23.084 112.797 22.016C112.395 21.377 112.381 20.544 112.811 19.864L116.602 14.062L115.379 12.827C115.338 12.8 115.311 12.771 115.268 12.729L113.936 11.397L108.258 15.103C107.606 15.602 106.703 15.658 105.983 15.2C104.914 14.52 103.79 13.937 102.624 13.451C101.485 12.979 100.306 12.604 99.112 12.327C98.335 12.202 97.668 11.605 97.502 10.772L96.07 3.99699H94.197H92.308L91.656 7.13399L90.893 10.771ZM94.197 21.418C93.086 21.418 92.197 20.529 92.197 19.419C92.197 18.309 93.086 17.42 94.197 17.42C98.721 17.42 102.816 19.253 105.787 22.223C108.744 25.18 110.576 29.275 110.576 33.8C110.576 34.994 110.451 36.174 110.201 37.298C109.951 38.449 109.576 39.561 109.092 40.629C108.633 41.629 107.453 42.073 106.44 41.615C105.441 41.156 105.01 39.976 105.469 38.977C105.829 38.2 106.107 37.353 106.301 36.464C106.482 35.604 106.579 34.715 106.579 33.799C106.579 30.384 105.191 27.288 102.956 25.04C100.707 22.807 97.611 21.418 94.197 21.418Z" fill="white"/>
<path d="M71.474 75.958H84.674C85.716 75.958 86.659 76.388 87.34 77.067L87.354 77.081C88.035 77.763 88.464 78.72 88.464 79.761V94.392C88.464 97.251 87.299 99.847 85.41 101.734C83.537 103.623 80.927 104.789 78.067 104.789C75.207 104.789 72.611 103.623 70.724 101.734C68.849 99.847 67.669 97.252 67.669 94.392V79.761C67.669 78.72 68.1 77.761 68.794 77.081V77.067C69.488 76.388 70.433 75.958 71.474 75.958ZM84.467 79.956H71.682V94.392C71.682 96.14 72.39 97.751 73.556 98.904C74.722 100.07 76.319 100.791 78.067 100.791C79.831 100.791 81.426 100.07 82.592 98.904C83.744 97.752 84.467 96.14 84.467 94.392V79.956Z" fill="white"/>
<path d="M78.066 96.126C79.17 96.126 80.065 95.231 80.065 94.127C80.065 93.023 79.17 92.128 78.066 92.128C76.962 92.128 76.067 93.023 76.067 94.127C76.067 95.231 76.962 96.126 78.066 96.126Z" fill="white"/>
</g>
<defs>
<clipPath id="clip0_180_147">
<rect width="128" height="128" fill="white"/>
</clipPath>
</defs>
</svg>
