<svg width="128" height="128" viewBox="0 0 128 128" fill="none" xmlns="http://www.w3.org/2000/svg">
<path fill-rule="evenodd" clip-rule="evenodd" d="M40 4C33.3866 4 28 9.3866 28 16H24C17.3866 16 12 21.3866 12 28V112C12 118.613 17.3866 124 24 124H88C94.6134 124 100 118.613 100 112H104C110.613 112 116 106.613 116 100V16C116 9.3866 110.613 4 104 4H40ZM40 8H104C108.467 8 112 11.5334 112 16V100C112 104.467 108.467 108 104 108H40C35.5334 108 32 104.467 32 100V16C32 11.5334 35.5334 8 40 8ZM24 20H28V100C28 106.613 33.3866 112 40 112H96C96 116.467 92.4666 120 88 120H24C19.5334 120 16 116.467 16 112V28C16 23.5334 19.5334 20 24 20Z" fill="white"/>
<path fill-rule="evenodd" clip-rule="evenodd" d="M92 84C87.6054 84 84 87.6054 84 92C84 96.3946 87.6054 100 92 100C96.3946 100 100 96.3946 100 92C100 87.6054 96.3946 84 92 84ZM92 88C94.2328 88 96 89.7672 96 92C96 94.2328 94.2328 96 92 96C89.7672 96 88 94.2328 88 92C88 89.7672 89.7672 88 92 88Z" fill="white"/>
<path d="M42 84C41.4696 84 40.9609 84.2107 40.5858 84.5858C40.2107 84.9609 40 85.4696 40 86C40 86.5304 40.2107 87.0391 40.5858 87.4142C40.9609 87.7893 41.4696 88 42 88H70C70.5304 88 71.0391 87.7893 71.4142 87.4142C71.7893 87.0391 72 86.5304 72 86C72 85.4696 71.7893 84.9609 71.4142 84.5858C71.0391 84.2107 70.5304 84 70 84H42Z" fill="white"/>
<path fill-rule="evenodd" clip-rule="evenodd" d="M46 40C42.7106 40 40 42.7106 40 46V70C40 73.2894 42.7106 76 46 76H98C101.289 76 104 73.2894 104 70V46C104 42.7106 101.289 40 98 40H46ZM46 44H56V56H44V46C44 44.8574 44.8574 44 46 44ZM60 44H98C99.1426 44 100 44.8574 100 46V56H60V44ZM44 60H56V72H46C44.8574 72 44 71.1426 44 70V60ZM60 60H100V70C100 71.1426 99.1426 72 98 72H60V60Z" fill="white"/>
<path d="M42 16C41.4696 16 40.9609 16.2107 40.5858 16.5858C40.2107 16.9609 40 17.4696 40 18C40 18.5304 40.2107 19.0391 40.5858 19.4142C40.9609 19.7893 41.4696 20 42 20H70C70.5304 20 71.0391 19.7893 71.4142 19.4142C71.7893 19.0391 72 18.5304 72 18C72 17.4696 71.7893 16.9609 71.4142 16.5858C71.0391 16.2107 70.5304 16 70 16H42Z" fill="white"/>
<path d="M42 28C41.7374 28 41.4773 28.0517 41.2346 28.1522C40.992 28.2527 40.7715 28.4001 40.5858 28.5858C40.4001 28.7715 40.2527 28.992 40.1522 29.2346C40.0517 29.4773 40 29.7374 40 30C40 30.2626 40.0517 30.5227 40.1522 30.7654C40.2527 31.008 40.4001 31.2285 40.5858 31.4142C40.7715 31.5999 40.992 31.7473 41.2346 31.8478C41.4773 31.9483 41.7374 32 42 32H94C94.2626 32 94.5227 31.9483 94.7654 31.8478C95.008 31.7473 95.2285 31.5999 95.4142 31.4142C95.5999 31.2285 95.7473 31.008 95.8478 30.7654C95.9483 30.5227 96 30.2626 96 30C96 29.7374 95.9483 29.4773 95.8478 29.2346C95.7473 28.992 95.5999 28.7715 95.4142 28.5858C95.2285 28.4001 95.008 28.2527 94.7654 28.1522C94.5227 28.0517 94.2626 28 94 28H42Z" fill="white"/>
</svg>
